SplineFontDB: 3.0
FontName: MerriweatherSans-Bold
FullName: Merriweather Sans Bold
FamilyName: Merriweather Sans
Weight: Bold
Copyright: Copyright (c) 2013, Sorkin Type Co (www.sorkintype.com) with Reserved Font Name 'Merriweather'
Version: 1.002; ttfautohint (v0.93.8-669f) -l 8 -r 24 -G 200 -x 11 -w "gG" -W -c
ItalicAngle: 0
UnderlinePosition: -212
UnderlineWidth: 137
Ascent: 1638
Descent: 410
sfntRevision: 0x00010000
LayerCount: 2
Layer: 0 1 "Back"  1
Layer: 1 1 "Fore"  0
XUID: [1021 631 1661839179 4695954]
FSType: 0
OS2Version: 3
OS2_WeightWidthSlopeOnly: 0
OS2_UseTypoMetrics: 1
CreationTime: 1360957140
ModificationTime: 1360941045
PfmFamily: 17
TTFWeight: 700
TTFWidth: 5
LineGap: 0
VLineGap: 0
Panose: 2 0 8 3 5 0 0 2 0 4
OS2TypoAscent: 2000
OS2TypoAOffset: 0
OS2TypoDescent: -640
OS2TypoDOffset: 0
OS2TypoLinegap: 0
OS2WinAscent: 2000
OS2WinAOffset: 0
OS2WinDescent: 640
OS2WinDOffset: 0
HheadAscent: 2000
HheadAOffset: 0
HheadDescent: -640
HheadDOffset: 0
OS2SubXSize: -13867
OS2SubYSize: -17578
OS2SubXOff: 0
OS2SubYOff: 10342
OS2SupXSize: -13867
OS2SupYSize: -17578
OS2SupXOff: 0
OS2SupYOff: -30333
OS2StrikeYSize: 137
OS2StrikeYPos: 771
OS2FamilyClass: 768
OS2Vendor: 'STC '
OS2CodePages: 20000093.00000000
OS2UnicodeRanges: a00000af.5000204a.00000000.00000000
Lookup: 1 0 0 "'aalt' Access All Alternates in Latin lookup 0"  {"'aalt' Access All Alternates in Latin lookup 0 subtable"  } ['aalt' ('DFLT' <'dflt' > 'latn' <'AZE ' 'CRT ' 'MOL ' 'ROM ' 'TRK ' 'dflt' > ) ]
Lookup: 3 0 0 "'aalt' Access All Alternates in Latin lookup 1"  {"'aalt' Access All Alternates in Latin lookup 1 subtable"  } ['aalt' ('DFLT' <'dflt' > 'latn' <'AZE ' 'CRT ' 'MOL ' 'ROM ' 'TRK ' 'dflt' > ) ]
Lookup: 1 0 0 "'locl' Localized Forms lookup 2"  {"'locl' Localized Forms lookup 2 subtable"  } ['locl' ('DFLT' <'AZE ' > ) ]
Lookup: 1 0 0 "'locl' Localized Forms lookup 3"  {"'locl' Localized Forms lookup 3 subtable"  } ['locl' ('DFLT' <'TRK ' > ) ]

StartChar: .notdef
Encoding: 65536 -1 0
Width: 1872
Flags: W
LayerCount: 2
Fore
SplineSet
228 1416 m 1,0,-1
 1644 1416 l 1,1,-1
 1644 0 l 1,2,-1
 228 0 l 1,3,-1
 228 1416 l 1,0,-1
586 219 m 1,4,-1
 933 587 l 1,5,-1
 1295 219 l 1,6,-1
 1417 341 l 1,7,-1
 1054 709 l 1,8,-1
 1417 1067 l 1,9,-1
 1289 1191 l 1,10,-1
 937 825 l 1,11,-1
 580 1193 l 1,12,-1
 457 1068 l 1,13,-1
 816 705 l 1,14,-1
 458 363 l 1,15,-1
 586 219 l 1,4,-1
EndSplineSet
EndChar

StartChar: numbersign
Encoding: 35 35 4
Width: 1644
Flags: W
LayerCount: 2
Fore
SplineSet
376 322 m 1,0,-1
 191 322 l 1,1,-1
 191 539 l 1,2,-1
 397 539 l 1,3,-1
 426 852 l 1,4,-1
 230 852 l 1,5,-1
 230 1061 l 1,6,-1
 446 1061 l 1,7,-1
 475 1373 l 1,8,-1
 744 1373 l 1,9,-1
 714 1061 l 1,10,-1
 987 1061 l 1,11,-1
 1016 1373 l 1,12,-1
 1283 1373 l 1,13,-1
 1253 1061 l 1,14,-1
 1455 1061 l 1,15,-1
 1455 852 l 1,16,-1
 1233 852 l 1,17,-1
 1203 539 l 1,18,-1
 1411 539 l 1,19,-1
 1411 322 l 1,20,-1
 1182 322 l 1,21,-1
 1152 0 l 1,22,-1
 891 0 l 1,23,-1
 920 322 l 1,24,-1
 643 322 l 1,25,-1
 612 0 l 1,26,-1
 346 0 l 1,27,-1
 376 322 l 1,0,-1
940 539 m 1,28,-1
 968 852 l 1,29,-1
 694 852 l 1,30,-1
 664 539 l 1,31,-1
 940 539 l 1,28,-1
EndSplineSet
EndChar

StartChar: ampersand
Encoding: 38 38 5
Width: 1532
Flags: W
LayerCount: 2
Fore
SplineSet
78 401 m 0,0,1
 78 469 78 469 101.5 526.5 c 128,-1,2
 125 584 125 584 166 632.5 c 128,-1,3
 207 681 207 681 264 720.5 c 128,-1,4
 321 760 321 760 389 791 c 1,5,6
 362 828 362 828 336.5 868 c 128,-1,7
 311 908 311 908 291.5 954 c 128,-1,8
 272 1000 272 1000 260 1052 c 128,-1,9
 248 1104 248 1104 248 1165 c 0,10,11
 248 1255 248 1255 279.5 1326 c 128,-1,12
 311 1397 311 1397 369.5 1445.5 c 128,-1,13
 428 1494 428 1494 510.5 1520 c 128,-1,14
 593 1546 593 1546 694 1546 c 0,15,16
 791 1546 791 1546 869 1517 c 128,-1,17
 947 1488 947 1488 1001.5 1438.5 c 128,-1,18
 1056 1389 1056 1389 1085 1322 c 128,-1,19
 1114 1255 1114 1255 1114 1180 c 0,20,21
 1114 1087 1114 1087 1091 1016.5 c 128,-1,22
 1068 946 1068 946 1026.5 891 c 128,-1,23
 985 836 985 836 926.5 794 c 128,-1,24
 868 752 868 752 798 716 c 1,25,26
 823 683 823 683 856.5 641.5 c 128,-1,27
 890 600 890 600 927 555.5 c 128,-1,28
 964 511 964 511 1002 467.5 c 128,-1,29
 1040 424 1040 424 1076 386 c 1,30,31
 1111 426 1111 426 1129 478 c 128,-1,32
 1147 530 1147 530 1147 585 c 0,33,34
 1147 655 1147 655 1137 697.5 c 128,-1,35
 1127 740 1127 740 1124 761 c 1,36,-1
 1389 761 l 1,37,38
 1394 740 1394 740 1401 698 c 128,-1,39
 1408 656 1408 656 1408 584 c 0,40,41
 1408 459 1408 459 1372 370 c 128,-1,42
 1336 281 1336 281 1273 218 c 1,43,44
 1314 196 1314 196 1359 186 c 128,-1,45
 1404 176 1404 176 1467 174 c 1,46,-1
 1467 -1 l 1,47,48
 1443 -7 1443 -7 1406 -11.5 c 128,-1,49
 1369 -16 1369 -16 1322 -16 c 0,50,51
 1231 -16 1231 -16 1164.5 3.5 c 128,-1,52
 1098 23 1098 23 1043 55 c 1,53,54
 974 26 974 26 893.5 5 c 128,-1,55
 813 -16 813 -16 732 -16 c 0,56,57
 405 -16 405 -16 241.5 92.5 c 128,-1,58
 78 201 78 201 78 401 c 0,0,1
662 897 m 1,59,60
 705 920 705 920 739.5 947 c 128,-1,61
 774 974 774 974 798 1008 c 128,-1,62
 822 1042 822 1042 835 1083.5 c 128,-1,63
 848 1125 848 1125 848 1176 c 0,64,65
 848 1200 848 1200 840 1226.5 c 128,-1,66
 832 1253 832 1253 814 1276 c 128,-1,67
 796 1299 796 1299 767 1314 c 128,-1,68
 738 1329 738 1329 696 1329 c 0,69,70
 660 1329 660 1329 630.5 1317.5 c 128,-1,71
 601 1306 601 1306 580 1285 c 128,-1,72
 559 1264 559 1264 547.5 1235 c 128,-1,73
 536 1206 536 1206 536 1170 c 0,74,75
 536 1131 536 1131 543.5 1100 c 128,-1,76
 551 1069 551 1069 566 1038.5 c 128,-1,77
 581 1008 581 1008 605 974.5 c 128,-1,78
 629 941 629 941 662 897 c 1,59,60
386 418 m 0,79,80
 386 373 386 373 402 336.5 c 128,-1,81
 418 300 418 300 453.5 274.5 c 128,-1,82
 489 249 489 249 546 235 c 128,-1,83
 603 221 603 221 686 221 c 0,84,85
 733 221 733 221 769.5 225 c 128,-1,86
 806 229 806 229 837 236 c 1,87,88
 798 278 798 278 756.5 325.5 c 128,-1,89
 715 373 715 373 674.5 421 c 128,-1,90
 634 469 634 469 595.5 516.5 c 128,-1,91
 557 564 557 564 524 606 c 1,92,93
 458 570 458 570 422 525 c 128,-1,94
 386 480 386 480 386 418 c 0,79,80
EndSplineSet
EndChar

StartChar: quotesingle
Encoding: 39 39 6
Width: 756
Flags: W
LayerCount: 2
Fore
SplineSet
215 1685 m 1,0,-1
 541 1685 l 1,1,-1
 502 966 l 1,2,-1
 255 966 l 1,3,-1
 215 1685 l 1,0,-1
EndSplineSet
EndChar

StartChar: parenleft
Encoding: 40 40 7
Width: 827
Flags: W
LayerCount: 2
Fore
SplineSet
589 -360 m 1,0,1
 565 -345 565 -345 521 -308.5 c 128,-1,2
 477 -272 477 -272 425 -211 c 128,-1,3
 373 -150 373 -150 318.5 -63 c 128,-1,4
 264 24 264 24 219.5 138.5 c 128,-1,5
 175 253 175 253 147 396.5 c 128,-1,6
 119 540 119 540 119 716 c 0,7,8
 119 869 119 869 145.5 1002 c 128,-1,9
 172 1135 172 1135 214.5 1246 c 128,-1,10
 257 1357 257 1357 310 1445.5 c 128,-1,11
 363 1534 363 1534 415 1599.5 c 128,-1,12
 467 1665 467 1665 513.5 1707 c 128,-1,13
 560 1749 560 1749 589 1767 c 1,14,-1
 772 1648 l 1,15,16
 752 1633 752 1633 716.5 1595.5 c 128,-1,17
 681 1558 681 1558 640 1500 c 128,-1,18
 599 1442 599 1442 557 1362.5 c 128,-1,19
 515 1283 515 1283 480.5 1183.5 c 128,-1,20
 446 1084 446 1084 424.5 964.5 c 128,-1,21
 403 845 403 845 403 707 c 0,22,23
 403 564 403 564 423 444 c 128,-1,24
 443 324 443 324 474.5 225.5 c 128,-1,25
 506 127 506 127 546.5 49.5 c 128,-1,26
 587 -28 587 -28 628 -85.5 c 128,-1,27
 669 -143 669 -143 707 -182 c 128,-1,28
 745 -221 745 -221 772 -241 c 1,29,-1
 589 -360 l 1,30,-1
 589 -360 l 1,0,1
EndSplineSet
EndChar

StartChar: asterisk
Encoding: 42 42 9
Width: 1316
Flags: W
LayerCount: 2
Fore
SplineSet
116 985 m 1,0,-1
 371 1120 l 1,1,-1
 547 1171 l 1,2,3
 540 1174 540 1174 515 1180.5 c 128,-1,4
 490 1187 490 1187 461 1194 c 128,-1,5
 432 1201 432 1201 405.5 1207.5 c 128,-1,6
 379 1214 379 1214 370 1218 c 2,7,-1
 110 1346 l 1,8,-1
 222 1560 l 1,9,-1
 468 1395 l 1,10,-1
 601 1267 l 1,11,12
 600 1275 600 1275 593.5 1299.5 c 128,-1,13
 587 1324 587 1324 579 1352.5 c 128,-1,14
 571 1381 571 1381 564 1407.5 c 128,-1,15
 557 1434 557 1434 556 1445 c 2,16,-1
 529 1739 l 1,17,-1
 771 1739 l 1,18,-1
 754 1450 l 1,19,-1
 711 1270 l 1,20,21
 717 1275 717 1275 735 1293.5 c 128,-1,22
 753 1312 753 1312 774 1333.5 c 128,-1,23
 795 1355 795 1355 814 1375 c 128,-1,24
 833 1395 833 1395 841 1402 c 1,25,-1
 1085 1569 l 1,26,-1
 1199 1357 l 1,27,-1
 944 1226 l 1,28,-1
 767 1173 l 1,29,-1
 946 1125 l 1,30,-1
 1206 1002 l 1,31,-1
 1084 782 l 1,32,-1
 850 945 l 1,33,-1
 713 1072 l 1,34,35
 714 1064 714 1064 720.5 1039.5 c 128,-1,36
 727 1015 727 1015 735 986.5 c 128,-1,37
 743 958 743 958 750 932 c 128,-1,38
 757 906 757 906 759 895 c 2,39,-1
 786 601 l 1,40,-1
 544 600 l 1,41,-1
 562 894 l 1,42,-1
 604 1074 l 1,43,-1
 473 939 l 1,44,-1
 236 772 l 1,45,-1
 116 985 l 1,0,-1
EndSplineSet
EndChar

StartChar: plus
Encoding: 43 43 10
Width: 1393
Flags: W
LayerCount: 2
Fore
SplineSet
570 467 m 1,0,-1
 576 659 l 1,1,-1
 414 653 l 1,2,-1
 203 653 l 1,3,-1
 203 897 l 1,4,-1
 414 897 l 1,5,-1
 576 890 l 1,6,-1
 570 1080 l 1,7,-1
 570 1294 l 1,8,-1
 822 1294 l 1,9,-1
 822 1080 l 1,10,-1
 816 890 l 1,11,-1
 968 897 l 1,12,-1
 1190 897 l 1,13,-1
 1190 653 l 1,14,-1
 968 653 l 1,15,-1
 816 659 l 1,16,-1
 822 467 l 1,17,-1
 822 257 l 1,18,-1
 570 257 l 1,19,-1
 570 467 l 1,0,-1
EndSplineSet
EndChar

StartChar: comma
Encoding: 44 44 11
Width: 683
Flags: W
LayerCount: 2
Fore
SplineSet
155 164 m 1,0,-1
 385 300 l 1,1,2
 431 283 431 283 465.5 247 c 128,-1,3
 500 211 500 211 522.5 166 c 128,-1,4
 545 121 545 121 556.5 72 c 128,-1,5
 568 23 568 23 568 -20 c 0,6,7
 568 -105 568 -105 545.5 -184 c 128,-1,8
 523 -263 523 -263 484 -327.5 c 128,-1,9
 445 -392 445 -392 392.5 -439 c 128,-1,10
 340 -486 340 -486 280 -508 c 1,11,-1
 169 -409 l 1,12,-1
 169 -383 l 1,13,14
 188 -371 188 -371 206 -346 c 128,-1,15
 224 -321 224 -321 238 -287.5 c 128,-1,16
 252 -254 252 -254 260.5 -215 c 128,-1,17
 269 -176 269 -176 269 -136 c 0,18,19
 269 -101 269 -101 258 -64 c 128,-1,20
 247 -27 247 -27 230.5 3 c 128,-1,21
 214 33 214 33 193.5 52.5 c 128,-1,22
 173 72 173 72 155 73 c 1,23,-1
 155 164 l 1,0,-1
EndSplineSet
EndChar

StartChar: hyphen
Encoding: 45 45 12
Width: 1350
Flags: W
LayerCount: 2
Fore
SplineSet
249 892 m 1,0,-1
 1101 892 l 1,1,-1
 1101 640 l 1,2,-1
 249 640 l 1,3,-1
 249 892 l 1,0,-1
EndSplineSet
EndChar

StartChar: period
Encoding: 46 46 13
Width: 635
Flags: W
LayerCount: 2
Fore
SplineSet
119 175 m 0,0,1
 119 218 119 218 135 257 c 128,-1,2
 151 296 151 296 179.5 325.5 c 128,-1,3
 208 355 208 355 246 372.5 c 128,-1,4
 284 390 284 390 327 390 c 0,5,6
 371 390 371 390 406 375 c 128,-1,7
 441 360 441 360 465.5 333.5 c 128,-1,8
 490 307 490 307 503 271 c 128,-1,9
 516 235 516 235 516 194 c 0,10,11
 517 150 517 150 501 111 c 128,-1,12
 485 72 485 72 457 42.5 c 128,-1,13
 429 13 429 13 391 -4.5 c 128,-1,14
 353 -22 353 -22 310 -22 c 0,15,16
 269 -22 269 -22 234 -7 c 128,-1,17
 199 8 199 8 173.5 34.5 c 128,-1,18
 148 61 148 61 133.5 97 c 128,-1,19
 119 133 119 133 119 175 c 0,0,1
EndSplineSet
EndChar

StartChar: slash
Encoding: 47 47 14
Width: 854
Flags: W
LayerCount: 2
Fore
SplineSet
576 1599 m 1,0,-1
 838 1599 l 1,1,-1
 278 -363 l 1,2,-1
 16 -363 l 1,3,-1
 576 1599 l 1,0,-1
EndSplineSet
EndChar

StartChar: zero
Encoding: 48 48 15
Width: 1371
Flags: W
LayerCount: 2
Fore
SplineSet
100 642 m 0,0,1
 102 787 102 787 147 904 c 128,-1,2
 192 1021 192 1021 271.5 1102.5 c 128,-1,3
 351 1184 351 1184 461 1228 c 128,-1,4
 571 1272 571 1272 703 1272 c 0,5,6
 869 1272 869 1272 979 1221.5 c 128,-1,7
 1089 1171 1089 1171 1154 1084 c 128,-1,8
 1219 997 1219 997 1245.5 881 c 128,-1,9
 1272 765 1272 765 1271 633 c 0,10,11
 1270 489 1270 489 1228 369.5 c 128,-1,12
 1186 250 1186 250 1109.5 164.5 c 128,-1,13
 1033 79 1033 79 923.5 31.5 c 128,-1,14
 814 -16 814 -16 678 -16 c 0,15,16
 570 -16 570 -16 485 9 c 128,-1,17
 400 34 400 34 335.5 78.5 c 128,-1,18
 271 123 271 123 226 184.5 c 128,-1,19
 181 246 181 246 152.5 319.5 c 128,-1,20
 124 393 124 393 111.5 474.5 c 128,-1,21
 99 556 99 556 100 642 c 0,0,1
686 208 m 0,22,23
 751 206 751 206 799.5 233.5 c 128,-1,24
 848 261 848 261 880 314.5 c 128,-1,25
 912 368 912 368 928 446.5 c 128,-1,26
 944 525 944 525 944 624 c 0,27,28
 944 711 944 711 929.5 788 c 128,-1,29
 915 865 915 865 884 922.5 c 128,-1,30
 853 980 853 980 805 1013.5 c 128,-1,31
 757 1047 757 1047 690 1048 c 0,32,33
 625 1049 625 1049 576 1022 c 128,-1,34
 527 995 527 995 494 943 c 128,-1,35
 461 891 461 891 444 817 c 128,-1,36
 427 743 427 743 427 651 c 0,37,38
 427 567 427 567 442.5 487.5 c 128,-1,39
 458 408 458 408 490 346.5 c 128,-1,40
 522 285 522 285 570.5 247.5 c 128,-1,41
 619 210 619 210 686 208 c 0,22,23
EndSplineSet
EndChar

StartChar: one
Encoding: 49 49 16
Width: 971
Flags: W
LayerCount: 2
Fore
SplineSet
364 919 m 1,0,1
 304 905 304 905 247.5 894 c 128,-1,2
 191 883 191 883 132 873 c 1,3,-1
 105 1066 l 1,4,5
 155 1079 155 1079 218.5 1104.5 c 128,-1,6
 282 1130 282 1130 344.5 1160.5 c 128,-1,7
 407 1191 407 1191 460 1222.5 c 128,-1,8
 513 1254 513 1254 543 1278 c 1,9,-1
 703 1252 l 1,10,-1
 701 0 l 1,11,-1
 364 0 l 1,12,-1
 364 919 l 1,0,1
EndSplineSet
Substitution2: "'sups' Superscript in Latin lookup 11 subtable" onesuperior
EndChar

StartChar: two
Encoding: 50 50 17
Width: 1329
Flags: W
LayerCount: 2
Fore
SplineSet
121 158 m 1,0,1
 183 192 183 192 256 236.5 c 128,-1,2
 329 281 329 281 402.5 334.5 c 128,-1,3
 476 388 476 388 545 447.5 c 128,-1,4
 614 507 614 507 667 570.5 c 128,-1,5
 720 634 720 634 752 700 c 128,-1,6
 784 766 784 766 784 832 c 0,7,8
 784 875 784 875 772 912 c 128,-1,9
 760 949 760 949 735 976.5 c 128,-1,10
 710 1004 710 1004 670.5 1019.5 c 128,-1,11
 631 1035 631 1035 576 1035 c 0,12,13
 528 1035 528 1035 480 1024 c 128,-1,14
 432 1013 432 1013 389 994.5 c 128,-1,15
 346 976 346 976 309.5 952 c 128,-1,16
 273 928 273 928 247 903 c 1,17,-1
 129 1092 l 1,18,19
 159 1124 159 1124 208 1159 c 128,-1,20
 257 1194 257 1194 321.5 1223.5 c 128,-1,21
 386 1253 386 1253 464.5 1272.5 c 128,-1,22
 543 1292 543 1292 634 1292 c 0,23,24
 771 1292 771 1292 865.5 1258.5 c 128,-1,25
 960 1225 960 1225 1018 1169.5 c 128,-1,26
 1076 1114 1076 1114 1101.5 1042 c 128,-1,27
 1127 970 1127 970 1127 894 c 0,28,29
 1127 801 1127 801 1093 714 c 128,-1,30
 1059 627 1059 627 996 547 c 128,-1,31
 933 467 933 467 843 393 c 128,-1,32
 753 319 753 319 641 250 c 1,33,-1
 1198 274 l 1,34,-1
 1198 0 l 1,35,-1
 165 0 l 1,36,-1
 121 158 l 1,0,1
EndSplineSet
Substitution2: "'sups' Superscript in Latin lookup 11 subtable" twosuperior
EndChar

StartChar: three
Encoding: 51 51 18
Width: 1133
Flags: W
LayerCount: 2
Fore
SplineSet
99 -76 m 1,0,1
 149 -87 149 -87 198.5 -93.5 c 128,-1,2
 248 -100 248 -100 294 -100 c 0,3,4
 386 -100 386 -100 464.5 -83 c 128,-1,5
 543 -66 543 -66 600 -32 c 128,-1,6
 657 2 657 2 689.5 52.5 c 128,-1,7
 722 103 722 103 722 170 c 0,8,9
 722 220 722 220 707.5 264.5 c 128,-1,10
 693 309 693 309 660.5 342 c 128,-1,11
 628 375 628 375 575 393 c 128,-1,12
 522 411 522 411 445 408 c 1,13,-1
 307 372 l 1,14,-1
 263 577 l 1,15,16
 331 591 331 591 395.5 611.5 c 128,-1,17
 460 632 460 632 505 655 c 1,18,19
 651 737 651 737 654 870 c 0,20,21
 655 912 655 912 640 941.5 c 128,-1,22
 625 971 625 971 598 990.5 c 128,-1,23
 571 1010 571 1010 533.5 1019 c 128,-1,24
 496 1028 496 1028 452 1028 c 0,25,26
 396 1028 396 1028 351 1018.5 c 128,-1,27
 306 1009 306 1009 268.5 994 c 128,-1,28
 231 979 231 979 201 961 c 128,-1,29
 171 943 171 943 147 926 c 1,30,-1
 52 1129 l 1,31,32
 73 1152 73 1152 119 1179 c 128,-1,33
 165 1206 165 1206 225.5 1228.5 c 128,-1,34
 286 1251 286 1251 357.5 1266 c 128,-1,35
 429 1281 429 1281 502 1281 c 0,36,37
 622 1281 622 1281 711 1255 c 128,-1,38
 800 1229 800 1229 858.5 1181.5 c 128,-1,39
 917 1134 917 1134 946 1067 c 128,-1,40
 975 1000 975 1000 975 918 c 0,41,42
 975 846 975 846 955 787.5 c 128,-1,43
 935 729 935 729 900 680.5 c 128,-1,44
 865 632 865 632 816.5 592.5 c 128,-1,45
 768 553 768 553 711 521 c 1,46,47
 806 514 806 514 872 480.5 c 128,-1,48
 938 447 938 447 978.5 397.5 c 128,-1,49
 1019 348 1019 348 1037 289 c 128,-1,50
 1055 230 1055 230 1055 172 c 0,51,52
 1055 64 1055 64 1008 -29 c 128,-1,53
 961 -122 961 -122 874 -189.5 c 128,-1,54
 787 -257 787 -257 664 -296 c 128,-1,55
 541 -335 541 -335 388 -335 c 0,56,57
 331 -335 331 -335 285 -329.5 c 128,-1,58
 239 -324 239 -324 203.5 -316.5 c 128,-1,59
 168 -309 168 -309 142.5 -300.5 c 128,-1,60
 117 -292 117 -292 100 -287 c 1,61,-1
 99 -76 l 1,62,-1
 99 -76 l 1,0,1
EndSplineSet
Substitution2: "'sups' Superscript in Latin lookup 11 subtable" threesuperior
EndChar

StartChar: four
Encoding: 52 52 19
Width: 1378
Flags: W
LayerCount: 2
Fore
SplineSet
634 1336 m 1,0,-1
 708 1336 l 1,1,-1
 962 1209 l 1,2,-1
 506 371 l 1,3,-1
 428 240 l 1,4,-1
 807 240 l 1,5,-1
 849 641 l 1,6,-1
 1118 647 l 1,7,-1
 1118 240 l 1,8,-1
 1347 240 l 1,9,-1
 1347 0 l 1,10,-1
 1118 0 l 1,11,-1
 1118 -376 l 1,12,-1
 807 -376 l 1,13,-1
 807 0 l 1,14,-1
 154 0 l 1,15,-1
 76 133 l 1,16,-1
 634 1336 l 1,0,-1
EndSplineSet
EndChar

StartChar: five
Encoding: 53 53 20
Width: 1248
Flags: W
LayerCount: 2
Fore
SplineSet
164 -118 m 1,0,1
 184 -119 184 -119 203.5 -119.5 c 128,-1,2
 223 -120 223 -120 243 -120 c 0,3,4
 368 -120 368 -120 470.5 -94.5 c 128,-1,5
 573 -69 573 -69 645.5 -23 c 128,-1,6
 718 23 718 23 758 88 c 128,-1,7
 798 153 798 153 798 231 c 0,8,9
 798 284 798 284 783 324 c 128,-1,10
 768 364 768 364 734.5 390.5 c 128,-1,11
 701 417 701 417 648 430.5 c 128,-1,12
 595 444 595 444 519 444 c 0,13,14
 455 444 455 444 380 425 c 128,-1,15
 305 406 305 406 224 379 c 1,16,-1
 171 410 l 1,17,-1
 236 1252 l 1,18,-1
 1090 1252 l 1,19,-1
 1062 978 l 1,20,-1
 470 978 l 1,21,-1
 437 648 l 1,22,23
 509 665 509 665 570 675 c 128,-1,24
 631 685 631 685 690 685 c 0,25,26
 795 685 795 685 877 654 c 128,-1,27
 959 623 959 623 1015.5 565.5 c 128,-1,28
 1072 508 1072 508 1101.5 426.5 c 128,-1,29
 1131 345 1131 345 1131 245 c 0,30,31
 1131 118 1131 118 1072.5 8.5 c 128,-1,32
 1014 -101 1014 -101 905.5 -181 c 128,-1,33
 797 -261 797 -261 642.5 -307.5 c 128,-1,34
 488 -354 488 -354 297 -355 c 0,35,36
 283 -355 283 -355 266 -354.5 c 128,-1,37
 249 -354 249 -354 230.5 -352.5 c 128,-1,38
 212 -351 212 -351 194.5 -348.5 c 128,-1,39
 177 -346 177 -346 163 -342 c 1,40,-1
 164 -118 l 1,41,-1
 164 -118 l 1,0,1
EndSplineSet
EndChar

StartChar: six
Encoding: 54 54 21
Width: 1379
Flags: W
LayerCount: 2
Fore
SplineSet
103 593 m 0,0,1
 103 741 103 741 142.5 871.5 c 128,-1,2
 182 1002 182 1002 249 1112 c 128,-1,3
 316 1222 316 1222 404.5 1311 c 128,-1,4
 493 1400 493 1400 590.5 1465.5 c 128,-1,5
 688 1531 688 1531 788.5 1572 c 128,-1,6
 889 1613 889 1613 981 1627 c 1,7,-1
 1059 1433 l 1,8,9
 964 1409 964 1409 882 1364 c 128,-1,10
 800 1319 800 1319 733 1259.5 c 128,-1,11
 666 1200 666 1200 613.5 1129.5 c 128,-1,12
 561 1059 561 1059 525 983 c 128,-1,13
 489 907 489 907 469.5 829 c 128,-1,14
 450 751 450 751 449 678 c 0,15,16
 448 579 448 579 460.5 493 c 128,-1,17
 473 407 473 407 503 344 c 128,-1,18
 533 281 533 281 582 245 c 128,-1,19
 631 209 631 209 703 209 c 0,20,21
 765 209 765 209 811 229 c 128,-1,22
 857 249 857 249 887 285 c 128,-1,23
 917 321 917 321 932 372 c 128,-1,24
 947 423 947 423 947 486 c 0,25,26
 947 568 947 568 932 623.5 c 128,-1,27
 917 679 917 679 892 712.5 c 128,-1,28
 867 746 867 746 833 760 c 128,-1,29
 799 774 799 774 762 774 c 0,30,31
 705 774 705 774 668 762 c 128,-1,32
 631 750 631 750 609 739 c 1,33,-1
 545 923 l 1,34,35
 558 938 558 938 584.5 955 c 128,-1,36
 611 972 611 972 648.5 986.5 c 128,-1,37
 686 1001 686 1001 734.5 1011 c 128,-1,38
 783 1021 783 1021 841 1021 c 0,39,40
 944 1021 944 1021 1024.5 984.5 c 128,-1,41
 1105 948 1105 948 1160.5 885 c 128,-1,42
 1216 822 1216 822 1245 737 c 128,-1,43
 1274 652 1274 652 1274 555 c 0,44,45
 1274 441 1274 441 1237.5 337.5 c 128,-1,46
 1201 234 1201 234 1127 155.5 c 128,-1,47
 1053 77 1053 77 939.5 30.5 c 128,-1,48
 826 -16 826 -16 672 -16 c 0,49,50
 539 -16 539 -16 433.5 32 c 128,-1,51
 328 80 328 80 254.5 163 c 128,-1,52
 181 246 181 246 142 356.5 c 128,-1,53
 103 467 103 467 103 593 c 0,0,1
EndSplineSet
EndChar

StartChar: seven
Encoding: 55 55 22
Width: 1258
Flags: W
LayerCount: 2
Fore
SplineSet
244 -309 m 1,0,1
 297 -198 297 -198 351 -81.5 c 128,-1,2
 405 35 405 35 457.5 151.5 c 128,-1,3
 510 268 510 268 560 382.5 c 128,-1,4
 610 497 610 497 655.5 603.5 c 128,-1,5
 701 710 701 710 741.5 806 c 128,-1,6
 782 902 782 902 815 982 c 1,7,-1
 90 983 l 1,8,-1
 90 1271 l 1,9,-1
 1099 1271 l 1,10,-1
 1177 1154 l 1,11,-1
 572 -402 l 1,12,-1
 244 -309 l 1,13,-1
 244 -309 l 1,0,1
EndSplineSet
EndChar

StartChar: eight
Encoding: 56 56 23
Width: 1322
Flags: W
LayerCount: 2
Fore
SplineSet
105 387 m 0,0,1
 105 439 105 439 120 491 c 128,-1,2
 135 543 135 543 169 593.5 c 128,-1,3
 203 644 203 644 257 690.5 c 128,-1,4
 311 737 311 737 388 777 c 1,5,6
 339 810 339 810 297 849 c 128,-1,7
 255 888 255 888 223.5 936 c 128,-1,8
 192 984 192 984 174 1042 c 128,-1,9
 156 1100 156 1100 156 1171 c 0,10,11
 156 1257 156 1257 190.5 1329.5 c 128,-1,12
 225 1402 225 1402 290.5 1454.5 c 128,-1,13
 356 1507 356 1507 450 1536 c 128,-1,14
 544 1565 544 1565 663 1565 c 0,15,16
 781 1565 781 1565 873.5 1539 c 128,-1,17
 966 1513 966 1513 1030 1466 c 128,-1,18
 1094 1419 1094 1419 1127.5 1353.5 c 128,-1,19
 1161 1288 1161 1288 1161 1210 c 0,20,21
 1161 1157 1161 1157 1145.5 1101.5 c 128,-1,22
 1130 1046 1130 1046 1097.5 994 c 128,-1,23
 1065 942 1065 942 1015.5 896 c 128,-1,24
 966 850 966 850 897 817 c 1,25,26
 961 781 961 781 1020 740.5 c 128,-1,27
 1079 700 1079 700 1124.5 651 c 128,-1,28
 1170 602 1170 602 1197 543.5 c 128,-1,29
 1224 485 1224 485 1225 413 c 0,30,31
 1226 308 1226 308 1184 228 c 128,-1,32
 1142 148 1142 148 1067.5 94 c 128,-1,33
 993 40 993 40 892 12 c 128,-1,34
 791 -16 791 -16 675 -16 c 0,35,36
 550 -16 550 -16 445.5 9.5 c 128,-1,37
 341 35 341 35 265 86 c 128,-1,38
 189 137 189 137 147 212.5 c 128,-1,39
 105 288 105 288 105 387 c 0,0,1
700 924 m 1,40,41
 746 943 746 943 780 971.5 c 128,-1,42
 814 1000 814 1000 835.5 1034.5 c 128,-1,43
 857 1069 857 1069 866.5 1108 c 128,-1,44
 876 1147 876 1147 875 1187 c 0,45,46
 875 1223 875 1223 860.5 1253 c 128,-1,47
 846 1283 846 1283 819 1305 c 128,-1,48
 792 1327 792 1327 752 1339.5 c 128,-1,49
 712 1352 712 1352 661 1352 c 0,50,51
 617 1352 617 1352 579.5 1340.5 c 128,-1,52
 542 1329 542 1329 514.5 1308 c 128,-1,53
 487 1287 487 1287 471 1257.5 c 128,-1,54
 455 1228 455 1228 455 1193 c 0,55,56
 455 1150 455 1150 474 1113 c 128,-1,57
 493 1076 493 1076 526.5 1043.5 c 128,-1,58
 560 1011 560 1011 604.5 981.5 c 128,-1,59
 649 952 649 952 700 924 c 1,40,41
411 405 m 0,60,61
 411 364 411 364 426 328.5 c 128,-1,62
 441 293 441 293 472.5 266 c 128,-1,63
 504 239 504 239 554 223.5 c 128,-1,64
 604 208 604 208 675 208 c 0,65,66
 720 208 720 208 761 219.5 c 128,-1,67
 802 231 802 231 833 253 c 128,-1,68
 864 275 864 275 882.5 306.5 c 128,-1,69
 901 338 901 338 901 379 c 0,70,71
 901 428 901 428 874.5 467 c 128,-1,72
 848 506 848 506 804 539.5 c 128,-1,73
 760 573 760 573 702.5 603 c 128,-1,74
 645 633 645 633 583 665 c 1,75,76
 506 624 506 624 458.5 560.5 c 128,-1,77
 411 497 411 497 411 405 c 0,60,61
EndSplineSet
EndChar

StartChar: nine
Encoding: 57 57 24
Width: 1389
Flags: W
LayerCount: 2
Fore
SplineSet
303 -208 m 1,0,1
 402 -183 402 -183 486.5 -135.5 c 128,-1,2
 571 -88 571 -88 640.5 -24.5 c 128,-1,3
 710 39 710 39 764 113.5 c 128,-1,4
 818 188 818 188 854.5 267 c 128,-1,5
 891 346 891 346 910.5 425 c 128,-1,6
 930 504 930 504 931 576 c 0,7,8
 932 679 932 679 919 765 c 128,-1,9
 906 851 906 851 875.5 913 c 128,-1,10
 845 975 845 975 796.5 1010 c 128,-1,11
 748 1045 748 1045 678 1045 c 0,12,13
 619 1045 619 1045 573.5 1026.5 c 128,-1,14
 528 1008 528 1008 497 974 c 128,-1,15
 466 940 466 940 450 892 c 128,-1,16
 434 844 434 844 434 786 c 0,17,18
 434 704 434 704 448.5 645 c 128,-1,19
 463 586 463 586 489.5 548.5 c 128,-1,20
 516 511 516 511 551.5 493.5 c 128,-1,21
 587 476 587 476 629 476 c 0,22,23
 660 476 660 476 683.5 479 c 128,-1,24
 707 482 707 482 724 486.5 c 128,-1,25
 741 491 741 491 754.5 497 c 128,-1,26
 768 503 768 503 780 508 c 1,27,-1
 841 328 l 1,28,29
 829 313 829 313 804 295.5 c 128,-1,30
 779 278 779 278 742 263 c 128,-1,31
 705 248 705 248 655.5 238.5 c 128,-1,32
 606 229 606 229 545 229 c 0,33,34
 441 229 441 229 360 267 c 128,-1,35
 279 305 279 305 223.5 370 c 128,-1,36
 168 435 168 435 139 521.5 c 128,-1,37
 110 608 110 608 110 706 c 0,38,39
 110 825 110 825 147.5 928.5 c 128,-1,40
 185 1032 185 1032 260 1108.5 c 128,-1,41
 335 1185 335 1185 447.5 1228.5 c 128,-1,42
 560 1272 560 1272 710 1272 c 0,43,44
 845 1272 845 1272 950 1224 c 128,-1,45
 1055 1176 1055 1176 1127.5 1093 c 128,-1,46
 1200 1010 1200 1010 1238 899 c 128,-1,47
 1276 788 1276 788 1276 662 c 0,48,49
 1276 511 1276 511 1235.5 377.5 c 128,-1,50
 1195 244 1195 244 1127 130.5 c 128,-1,51
 1059 17 1059 17 969.5 -74 c 128,-1,52
 880 -165 880 -165 781 -232.5 c 128,-1,53
 682 -300 682 -300 580.5 -342 c 128,-1,54
 479 -384 479 -384 387 -398 c 1,55,-1
 303 -208 l 1,56,-1
 303 -208 l 1,0,1
EndSplineSet
EndChar

StartChar: less
Encoding: 60 60 27
Width: 1368
Flags: W
LayerCount: 2
Fore
SplineSet
195 852 m 1,0,-1
 1145 1336 l 1,1,-1
 1145 1052 l 1,2,-1
 566 773 l 1,3,-1
 1145 518 l 1,4,-1
 1145 226 l 1,5,-1
 195 698 l 1,6,-1
 195 852 l 1,0,-1
EndSplineSet
EndChar

StartChar: equal
Encoding: 61 61 28
Width: 1415
Flags: W
LayerCount: 2
Fore
SplineSet
247 1142 m 1,0,-1
 1168 1142 l 1,1,-1
 1168 919 l 1,2,-1
 247 919 l 1,3,-1
 247 1142 l 1,0,-1
247 631 m 1,4,-1
 1168 631 l 1,5,-1
 1168 408 l 1,6,-1
 247 408 l 1,7,-1
 247 631 l 1,4,-1
EndSplineSet
EndChar

StartChar: question
Encoding: 63 63 30
Width: 1047
Flags: W
LayerCount: 2
Fore
SplineSet
330 512 m 1,0,1
 316 533 316 533 303 558.5 c 128,-1,2
 290 584 290 584 279 616.5 c 128,-1,3
 268 649 268 649 261 689 c 128,-1,4
 254 729 254 729 253 777 c 0,5,6
 252 835 252 835 268.5 880.5 c 128,-1,7
 285 926 285 926 312.5 962.5 c 128,-1,8
 340 999 340 999 375.5 1029.5 c 128,-1,9
 411 1060 411 1060 447.5 1088 c 128,-1,10
 484 1116 484 1116 519.5 1143.5 c 128,-1,11
 555 1171 555 1171 582.5 1203 c 128,-1,12
 610 1235 610 1235 627 1273.5 c 128,-1,13
 644 1312 644 1312 644 1361 c 0,14,15
 646 1463 646 1463 569 1523 c 128,-1,16
 492 1583 492 1583 329 1583 c 0,17,18
 282 1583 282 1583 247.5 1579.5 c 128,-1,19
 213 1576 213 1576 188 1571.5 c 128,-1,20
 163 1567 163 1567 146 1562.5 c 128,-1,21
 129 1558 129 1558 117 1555 c 1,22,-1
 117 1794 l 1,23,24
 133 1804 133 1804 160.5 1813 c 128,-1,25
 188 1822 188 1822 225 1829.5 c 128,-1,26
 262 1837 262 1837 305.5 1841.5 c 128,-1,27
 349 1846 349 1846 397 1846 c 0,28,29
 572 1846 572 1846 689 1804.5 c 128,-1,30
 806 1763 806 1763 874.5 1694 c 128,-1,31
 943 1625 943 1625 967.5 1536 c 128,-1,32
 992 1447 992 1447 982 1353 c 1,33,34
 978 1287 978 1287 957 1235.5 c 128,-1,35
 936 1184 936 1184 904.5 1142 c 128,-1,36
 873 1100 873 1100 834 1066 c 128,-1,37
 795 1032 795 1032 755 1000.5 c 128,-1,38
 715 969 715 969 676.5 939 c 128,-1,39
 638 909 638 909 608 875 c 128,-1,40
 578 841 578 841 559.5 801 c 128,-1,41
 541 761 541 761 540 711 c 0,42,43
 539 684 539 684 541 661.5 c 128,-1,44
 543 639 543 639 547.5 616.5 c 128,-1,45
 552 594 552 594 559 569 c 128,-1,46
 566 544 566 544 575 512 c 1,47,-1
 330 512 l 1,0,1
297 159 m 0,48,49
 296 199 296 199 312 234.5 c 128,-1,50
 328 270 328 270 355 297 c 128,-1,51
 382 324 382 324 418 340 c 128,-1,52
 454 356 454 356 493 356 c 0,53,54
 534 356 534 356 567.5 342.5 c 128,-1,55
 601 329 601 329 624.5 305 c 128,-1,56
 648 281 648 281 660.5 248 c 128,-1,57
 673 215 673 215 673 176 c 0,58,59
 673 136 673 136 657.5 100 c 128,-1,60
 642 64 642 64 615.5 37 c 128,-1,61
 589 10 589 10 553.5 -6 c 128,-1,62
 518 -22 518 -22 478 -22 c 0,63,64
 440 -22 440 -22 407 -8.5 c 128,-1,65
 374 5 374 5 349.5 29.5 c 128,-1,66
 325 54 325 54 311 87 c 128,-1,67
 297 120 297 120 297 159 c 0,48,49
EndSplineSet
EndChar

StartChar: at
Encoding: 64 64 31
Width: 2218
Flags: W
LayerCount: 2
Fore
SplineSet
147 438 m 0,0,1
 147 604 147 604 186 750.5 c 128,-1,2
 225 897 225 897 296.5 1020 c 128,-1,3
 368 1143 368 1143 467.5 1240 c 128,-1,4
 567 1337 567 1337 688 1404.5 c 128,-1,5
 809 1472 809 1472 947.5 1507.5 c 128,-1,6
 1086 1543 1086 1543 1236 1543 c 0,7,8
 1411 1543 1411 1543 1559 1495.5 c 128,-1,9
 1707 1448 1707 1448 1815 1354.5 c 128,-1,10
 1923 1261 1923 1261 1983.5 1122.5 c 128,-1,11
 2044 984 2044 984 2044 803 c 0,12,13
 2044 601 2044 601 1991.5 449.5 c 128,-1,14
 1939 298 1939 298 1853.5 197 c 128,-1,15
 1768 96 1768 96 1660.5 45.5 c 128,-1,16
 1553 -5 1553 -5 1442 -5 c 0,17,18
 1348 -5 1348 -5 1301.5 41.5 c 128,-1,19
 1255 88 1255 88 1248 182 c 0,20,21
 1247 196 1247 196 1246.5 214 c 128,-1,22
 1246 232 1246 232 1247 254 c 1,23,24
 1215 200 1215 200 1176.5 152.5 c 128,-1,25
 1138 105 1138 105 1093 70 c 128,-1,26
 1048 35 1048 35 996.5 15 c 128,-1,27
 945 -5 945 -5 886 -5 c 0,28,29
 835 -5 835 -5 782.5 22.5 c 128,-1,30
 730 50 730 50 688 105.5 c 128,-1,31
 646 161 646 161 620 244.5 c 128,-1,32
 594 328 594 328 596 441 c 0,33,34
 598 509 598 509 614 583 c 128,-1,35
 630 657 630 657 662 728 c 128,-1,36
 694 799 694 799 742 863 c 128,-1,37
 790 927 790 927 855.5 975 c 128,-1,38
 921 1023 921 1023 1005 1051.5 c 128,-1,39
 1089 1080 1089 1080 1192 1080 c 0,40,41
 1255 1080 1255 1080 1318 1067 c 128,-1,42
 1381 1054 1381 1054 1423 1025 c 1,43,-1
 1611 1056 l 1,44,45
 1598 1002 1598 1002 1581.5 923 c 128,-1,46
 1565 844 1565 844 1547.5 757 c 128,-1,47
 1530 670 1530 670 1512.5 583.5 c 128,-1,48
 1495 497 1495 497 1482 427 c 0,49,50
 1470 361 1470 361 1466.5 316.5 c 128,-1,51
 1463 272 1463 272 1467.5 246 c 128,-1,52
 1472 220 1472 220 1484 209 c 128,-1,53
 1496 198 1496 198 1515 198 c 0,54,55
 1570 198 1570 198 1626.5 238 c 128,-1,56
 1683 278 1683 278 1729 353 c 128,-1,57
 1775 428 1775 428 1804 534.5 c 128,-1,58
 1833 641 1833 641 1833 774 c 0,59,60
 1833 892 1833 892 1809 982 c 128,-1,61
 1785 1072 1785 1072 1742.5 1137.5 c 128,-1,62
 1700 1203 1700 1203 1642 1246.5 c 128,-1,63
 1584 1290 1584 1290 1516 1316 c 128,-1,64
 1448 1342 1448 1342 1372.5 1352.5 c 128,-1,65
 1297 1363 1297 1363 1220 1363 c 0,66,67
 1107 1363 1107 1363 999 1335 c 128,-1,68
 891 1307 891 1307 795.5 1252.5 c 128,-1,69
 700 1198 700 1198 620 1118.5 c 128,-1,70
 540 1039 540 1039 482.5 937 c 128,-1,71
 425 835 425 835 393 711 c 128,-1,72
 361 587 361 587 361 444 c 0,73,74
 361 306 361 306 389 197.5 c 128,-1,75
 417 89 417 89 466 8 c 128,-1,76
 515 -73 515 -73 581.5 -129.5 c 128,-1,77
 648 -186 648 -186 725 -221 c 128,-1,78
 802 -256 802 -256 885.5 -271.5 c 128,-1,79
 969 -287 969 -287 1052 -287 c 0,80,81
 1149 -287 1149 -287 1220.5 -276 c 128,-1,82
 1292 -265 1292 -265 1345 -248.5 c 128,-1,83
 1398 -232 1398 -232 1436.5 -213 c 128,-1,84
 1475 -194 1475 -194 1506 -177 c 1,85,-1
 1549 -337 l 1,86,87
 1512 -360 1512 -360 1462.5 -383 c 128,-1,88
 1413 -406 1413 -406 1349.5 -425 c 128,-1,89
 1286 -444 1286 -444 1207 -455.5 c 128,-1,90
 1128 -467 1128 -467 1032 -467 c 0,91,92
 912 -467 912 -467 799.5 -443.5 c 128,-1,93
 687 -420 687 -420 588.5 -371.5 c 128,-1,94
 490 -323 490 -323 408.5 -249 c 128,-1,95
 327 -175 327 -175 269 -74.5 c 128,-1,96
 211 26 211 26 179 154 c 128,-1,97
 147 282 147 282 147 438 c 0,0,1
847 465 m 0,98,99
 845 342 845 342 874 285 c 128,-1,100
 903 228 903 228 957 228 c 0,101,102
 991 228 991 228 1028.5 256.5 c 128,-1,103
 1066 285 1066 285 1103.5 332.5 c 128,-1,104
 1141 380 1141 380 1175.5 442 c 128,-1,105
 1210 504 1210 504 1238 570.5 c 128,-1,106
 1266 637 1266 637 1285.5 703 c 128,-1,107
 1305 769 1305 769 1313 826 c 1,108,109
 1294 851 1294 851 1253.5 865 c 128,-1,110
 1213 879 1213 879 1159 879 c 0,111,112
 1091 879 1091 879 1034.5 842 c 128,-1,113
 978 805 978 805 936.5 745.5 c 128,-1,114
 895 686 895 686 871.5 612 c 128,-1,115
 848 538 848 538 847 465 c 0,98,99
EndSplineSet
EndChar

StartChar: A
Encoding: 65 65 32
Width: 1434
Flags: W
LayerCount: 2
Fore
SplineSet
544 1538 m 1,0,-1
 885 1538 l 1,1,-1
 1447 0 l 1,2,-1
 1091 0 l 1,3,-1
 990 313 l 1,4,-1
 442 313 l 1,5,-1
 346 0 l 1,6,-1
 -14 0 l 1,7,-1
 544 1538 l 1,0,-1
914 551 m 1,8,-1
 755 1045 l 1,9,-1
 712 1204 l 1,10,-1
 668 1045 l 1,11,-1
 516 551 l 1,12,-1
 914 551 l 1,8,-1
EndSplineSet
EndChar

StartChar: B
Encoding: 66 66 33
Width: 1384
Flags: W
LayerCount: 2
Fore
SplineSet
164 1523 m 1,0,-1
 324 1522 l 2,1,2
 363 1522 363 1522 402 1524.5 c 128,-1,3
 441 1527 441 1527 484.5 1529.5 c 128,-1,4
 528 1532 528 1532 577 1534.5 c 128,-1,5
 626 1537 626 1537 683 1537 c 0,6,7
 830 1537 830 1537 935 1512 c 128,-1,8
 1040 1487 1040 1487 1107 1439.5 c 128,-1,9
 1174 1392 1174 1392 1205.5 1324 c 128,-1,10
 1237 1256 1237 1256 1237 1170 c 0,11,12
 1237 1115 1237 1115 1223.5 1057 c 128,-1,13
 1210 999 1210 999 1180.5 948.5 c 128,-1,14
 1151 898 1151 898 1104 860.5 c 128,-1,15
 1057 823 1057 823 990 808 c 1,16,17
 1061 805 1061 805 1123 775.5 c 128,-1,18
 1185 746 1185 746 1230.5 698.5 c 128,-1,19
 1276 651 1276 651 1302.5 589.5 c 128,-1,20
 1329 528 1329 528 1329 461 c 0,21,22
 1329 357 1329 357 1299 270 c 128,-1,23
 1269 183 1269 183 1196.5 120 c 128,-1,24
 1124 57 1124 57 1003.5 21.5 c 128,-1,25
 883 -14 883 -14 702 -14 c 0,26,27
 652 -14 652 -14 599 -12.5 c 128,-1,28
 546 -11 546 -11 496.5 -9 c 128,-1,29
 447 -7 447 -7 404 -4.5 c 128,-1,30
 361 -2 361 -2 331 0 c 1,31,-1
 164 0 l 1,32,-1
 164 1523 l 1,0,-1
495 895 m 1,33,34
 508 892 508 892 530.5 890.5 c 128,-1,35
 553 889 553 889 576.5 888 c 128,-1,36
 600 887 600 887 622 886.5 c 128,-1,37
 644 886 644 886 658 886 c 0,38,39
 712 886 712 886 758 899 c 128,-1,40
 804 912 804 912 838 940.5 c 128,-1,41
 872 969 872 969 891.5 1013.5 c 128,-1,42
 911 1058 911 1058 911 1122 c 0,43,44
 911 1217 911 1217 839.5 1258 c 128,-1,45
 768 1299 768 1299 632 1299 c 0,46,47
 621 1299 621 1299 601 1298.5 c 128,-1,48
 581 1298 581 1298 560 1296.5 c 128,-1,49
 539 1295 539 1295 520.5 1292.5 c 128,-1,50
 502 1290 502 1290 495 1286 c 1,51,-1
 495 895 l 1,33,34
495 237 m 1,52,53
 505 229 505 229 526.5 224 c 128,-1,54
 548 219 548 219 574 216.5 c 128,-1,55
 600 214 600 214 627.5 213 c 128,-1,56
 655 212 655 212 677 212 c 0,57,58
 752 212 752 212 809 224.5 c 128,-1,59
 866 237 866 237 903.5 264.5 c 128,-1,60
 941 292 941 292 960 337.5 c 128,-1,61
 979 383 979 383 979 449 c 0,62,63
 979 506 979 506 962.5 547.5 c 128,-1,64
 946 589 946 589 910 616 c 128,-1,65
 874 643 874 643 817.5 656 c 128,-1,66
 761 669 761 669 681 669 c 0,67,68
 660 669 660 669 632 668.5 c 128,-1,69
 604 668 604 668 577 667.5 c 128,-1,70
 550 667 550 667 527.5 665.5 c 128,-1,71
 505 664 505 664 495 662 c 1,72,-1
 495 237 l 1,52,53
EndSplineSet
EndChar

StartChar: C
Encoding: 67 67 34
Width: 1326
Flags: W
LayerCount: 2
Fore
SplineSet
89 757 m 0,0,1
 89 883 89 883 115.5 990.5 c 128,-1,2
 142 1098 142 1098 190.5 1184.5 c 128,-1,3
 239 1271 239 1271 307 1337 c 128,-1,4
 375 1403 375 1403 458.5 1448 c 128,-1,5
 542 1493 542 1493 638.5 1515.5 c 128,-1,6
 735 1538 735 1538 840 1538 c 0,7,8
 922 1538 922 1538 983.5 1531.5 c 128,-1,9
 1045 1525 1045 1525 1093 1515.5 c 128,-1,10
 1141 1506 1141 1506 1179 1496 c 128,-1,11
 1217 1486 1217 1486 1253 1479 c 1,12,-1
 1205 1188 l 1,13,14
 1185 1199 1185 1199 1158 1214 c 128,-1,15
 1131 1229 1131 1229 1091 1243 c 128,-1,16
 1051 1257 1051 1257 995.5 1266.5 c 128,-1,17
 940 1276 940 1276 864 1276 c 0,18,19
 772 1276 772 1276 693 1242.5 c 128,-1,20
 614 1209 614 1209 556 1145.5 c 128,-1,21
 498 1082 498 1082 464.5 989 c 128,-1,22
 431 896 431 896 431 778 c 0,23,24
 431 661 431 661 461.5 562 c 128,-1,25
 492 463 492 463 550.5 391.5 c 128,-1,26
 609 320 609 320 694 280 c 128,-1,27
 779 240 779 240 887 240 c 0,28,29
 938 240 938 240 991.5 249.5 c 128,-1,30
 1045 259 1045 259 1092.5 273.5 c 128,-1,31
 1140 288 1140 288 1177.5 304.5 c 128,-1,32
 1215 321 1215 321 1235 336 c 1,33,-1
 1236 64 l 1,34,35
 1203 51 1203 51 1165 37 c 128,-1,36
 1127 23 1127 23 1081 11 c 128,-1,37
 1035 -1 1035 -1 979 -8.5 c 128,-1,38
 923 -16 923 -16 854 -16 c 0,39,40
 675 -16 675 -16 533.5 39.5 c 128,-1,41
 392 95 392 95 293 196.5 c 128,-1,42
 194 298 194 298 141.5 440.5 c 128,-1,43
 89 583 89 583 89 757 c 0,0,1
EndSplineSet
EndChar

StartChar: D
Encoding: 68 68 35
Width: 1519
Flags: W
LayerCount: 2
Fore
SplineSet
164 1522 m 1,0,-1
 321 1522 l 2,1,2
 353 1522 353 1522 391 1524.5 c 128,-1,3
 429 1527 429 1527 474 1530 c 128,-1,4
 519 1533 519 1533 572.5 1535.5 c 128,-1,5
 626 1538 626 1538 691 1538 c 0,6,7
 883 1538 883 1538 1023.5 1488.5 c 128,-1,8
 1164 1439 1164 1439 1256 1344.5 c 128,-1,9
 1348 1250 1348 1250 1392.5 1113 c 128,-1,10
 1437 976 1437 976 1437 801 c 0,11,12
 1437 606 1437 606 1383 453.5 c 128,-1,13
 1329 301 1329 301 1229 196 c 128,-1,14
 1129 91 1129 91 986.5 36.5 c 128,-1,15
 844 -18 844 -18 667 -16 c 0,16,17
 556 -15 556 -15 473.5 -7.5 c 128,-1,18
 391 0 391 0 324 0 c 2,19,-1
 164 0 l 1,20,-1
 164 1522 l 1,0,-1
501 254 m 1,21,22
 539 244 539 244 590 240.5 c 128,-1,23
 641 237 641 237 695 237 c 0,24,25
 783 238 783 238 855.5 268.5 c 128,-1,26
 928 299 928 299 980 363 c 128,-1,27
 1032 427 1032 427 1060 527 c 128,-1,28
 1088 627 1088 627 1088 767 c 0,29,30
 1088 913 1088 913 1062 1013 c 128,-1,31
 1036 1113 1036 1113 983.5 1174.5 c 128,-1,32
 931 1236 931 1236 851.5 1262.5 c 128,-1,33
 772 1289 772 1289 664 1289 c 0,34,35
 619 1289 619 1289 574 1283.5 c 128,-1,36
 529 1278 529 1278 501 1276 c 1,37,-1
 501 254 l 1,21,22
EndSplineSet
EndChar

StartChar: E
Encoding: 69 69 36
Width: 1225
Flags: W
LayerCount: 2
Fore
SplineSet
164 1522 m 1,0,-1
 1098 1522 l 1,1,-1
 1098 1268 l 1,2,-1
 498 1268 l 1,3,-1
 498 904 l 1,4,-1
 957 904 l 1,5,-1
 957 654 l 1,6,-1
 498 654 l 1,7,-1
 498 262 l 1,8,-1
 1162 262 l 1,9,-1
 1162 0 l 1,10,-1
 164 0 l 1,11,-1
 164 1522 l 1,0,-1
EndSplineSet
EndChar

StartChar: F
Encoding: 70 70 37
Width: 1124
Flags: W
LayerCount: 2
Fore
SplineSet
164 1522 m 1,0,-1
 1092 1522 l 1,1,-1
 1092 1268 l 1,2,-1
 503 1268 l 1,3,-1
 503 878 l 1,4,-1
 937 878 l 1,5,-1
 937 626 l 1,6,-1
 503 626 l 1,7,-1
 503 0 l 1,8,-1
 164 0 l 1,9,-1
 164 1522 l 1,0,-1
EndSplineSet
EndChar

StartChar: G
Encoding: 71 71 38
Width: 1455
Flags: W
LayerCount: 2
Fore
SplineSet
89 753 m 0,0,1
 89 959 89 959 148 1107.5 c 128,-1,2
 207 1256 207 1256 310.5 1351.5 c 128,-1,3
 414 1447 414 1447 553 1492.5 c 128,-1,4
 692 1538 692 1538 853 1538 c 0,5,6
 939 1538 939 1538 998.5 1532 c 128,-1,7
 1058 1526 1058 1526 1105 1517 c 128,-1,8
 1152 1508 1152 1508 1193 1497.5 c 128,-1,9
 1234 1487 1234 1487 1283 1478 c 1,10,-1
 1273 1195 l 1,11,12
 1238 1212 1238 1212 1199.5 1226.5 c 128,-1,13
 1161 1241 1161 1241 1112 1252 c 128,-1,14
 1063 1263 1063 1263 1001 1269.5 c 128,-1,15
 939 1276 939 1276 857 1276 c 0,16,17
 758 1276 758 1276 679 1242 c 128,-1,18
 600 1208 600 1208 545 1144.5 c 128,-1,19
 490 1081 490 1081 461 989 c 128,-1,20
 432 897 432 897 432 780 c 0,21,22
 432 666 432 666 454.5 567 c 128,-1,23
 477 468 477 468 523.5 395 c 128,-1,24
 570 322 570 322 641 280 c 128,-1,25
 712 238 712 238 808 238 c 0,26,27
 895 238 895 238 952 248 c 128,-1,28
 1009 258 1009 258 1052 274 c 1,29,-1
 1052 589 l 1,30,-1
 824 601 l 1,31,-1
 824 827 l 1,32,-1
 1364 827 l 1,33,-1
 1364 89 l 1,34,35
 1329 87 1329 87 1286 70.5 c 128,-1,36
 1243 54 1243 54 1180 34.5 c 128,-1,37
 1117 15 1117 15 1029.5 -0.5 c 128,-1,38
 942 -16 942 -16 819 -16 c 0,39,40
 646 -16 646 -16 510.5 38 c 128,-1,41
 375 92 375 92 281 192 c 128,-1,42
 187 292 187 292 138 434.5 c 128,-1,43
 89 577 89 577 89 753 c 0,0,1
EndSplineSet
EndChar

StartChar: H
Encoding: 72 72 39
Width: 1563
Flags: W
LayerCount: 2
Fore
SplineSet
164 1522 m 1,0,-1
 499 1522 l 1,1,-1
 499 893 l 1,2,-1
 1065 893 l 1,3,-1
 1065 1522 l 1,4,-1
 1399 1522 l 1,5,-1
 1399 0 l 1,6,-1
 1065 0 l 1,7,-1
 1065 647 l 1,8,-1
 499 647 l 1,9,-1
 499 0 l 1,10,-1
 164 0 l 1,11,-1
 164 1522 l 1,0,-1
EndSplineSet
EndChar

StartChar: I
Encoding: 73 73 40
Width: 683
Flags: W
LayerCount: 2
Fore
SplineSet
173 1522 m 1,0,-1
 510 1522 l 1,1,-1
 510 0 l 1,2,-1
 173 0 l 1,3,-1
 173 1522 l 1,0,-1
EndSplineSet
EndChar

StartChar: J
Encoding: 74 74 41
Width: 749
Flags: W
LayerCount: 2
Fore
SplineSet
-53 -159 m 1,0,1
 -14 -144 -14 -144 24 -122 c 128,-1,2
 62 -100 62 -100 96 -67 c 128,-1,3
 130 -34 130 -34 156 11 c 128,-1,4
 182 56 182 56 197 116 c 0,5,6
 218 201 218 201 223.5 322.5 c 128,-1,7
 229 444 229 444 229 608 c 2,8,-1
 229 1522 l 1,9,-1
 565 1522 l 1,10,-1
 565 613 l 2,11,12
 565 538 565 538 566 467.5 c 128,-1,13
 567 397 567 397 566 331.5 c 128,-1,14
 565 266 565 266 560.5 206 c 128,-1,15
 556 146 556 146 546 92 c 0,16,17
 532 21 532 21 500.5 -38 c 128,-1,18
 469 -97 469 -97 425 -143.5 c 128,-1,19
 381 -190 381 -190 329 -225 c 128,-1,20
 277 -260 277 -260 224 -283.5 c 128,-1,21
 171 -307 171 -307 119.5 -319 c 128,-1,22
 68 -331 68 -331 25 -332 c 1,23,-1
 -53 -159 l 1,24,-1
 -53 -159 l 1,0,1
EndSplineSet
EndChar

StartChar: K
Encoding: 75 75 42
Width: 1405
Flags: W
LayerCount: 2
Fore
SplineSet
164 1522 m 1,0,-1
 498 1522 l 1,1,-1
 498 830 l 1,2,-1
 1023 1522 l 1,3,-1
 1380 1522 l 1,4,-1
 876 863 l 1,5,6
 902 826 902 826 937 770 c 128,-1,7
 972 714 972 714 1013 648.5 c 128,-1,8
 1054 583 1054 583 1098 510.5 c 128,-1,9
 1142 438 1142 438 1184.5 366.5 c 128,-1,10
 1227 295 1227 295 1266 229 c 128,-1,11
 1305 163 1305 163 1336 110 c 2,12,-1
 1401 0 l 1,13,-1
 1033 0 l 1,14,15
 1026 10 1026 10 1020 20 c 128,-1,16
 1014 30 1014 30 1007.5 43.5 c 128,-1,17
 1001 57 1001 57 992 74 c 128,-1,18
 983 91 983 91 970 114 c 0,19,20
 897 246 897 246 817.5 372.5 c 128,-1,21
 738 499 738 499 666 605 c 1,22,-1
 498 412 l 1,23,-1
 498 0 l 1,24,-1
 164 0 l 1,25,-1
 164 1522 l 1,0,-1
EndSplineSet
EndChar

StartChar: L
Encoding: 76 76 43
Width: 1079
Flags: W
LayerCount: 2
Fore
SplineSet
164 1522 m 1,0,-1
 507 1522 l 1,1,-1
 507 250 l 1,2,-1
 1035 250 l 1,3,-1
 1035 0 l 1,4,-1
 164 0 l 1,5,-1
 164 1522 l 1,0,-1
EndSplineSet
EndChar

StartChar: M
Encoding: 77 77 44
Width: 1975
Flags: W
LayerCount: 2
Fore
SplineSet
273 1522 m 1,0,-1
 730 1522 l 1,1,-1
 906 847 l 1,2,-1
 994 422 l 1,3,-1
 1087 847 l 1,4,-1
 1265 1522 l 1,5,-1
 1703 1522 l 1,6,-1
 1882 0 l 1,7,-1
 1561 0 l 1,8,-1
 1495 798 l 1,9,-1
 1464 1216 l 1,10,-1
 1370 798 l 1,11,-1
 1119 -15 l 1,12,-1
 857 -15 l 1,13,-1
 612 798 l 1,14,-1
 519 1216 l 1,15,-1
 483 798 l 1,16,-1
 426 0 l 1,17,-1
 99 -1 l 1,18,-1
 273 1522 l 1,0,-1
EndSplineSet
EndChar

StartChar: N
Encoding: 78 78 45
Width: 1582
Flags: W
LayerCount: 2
Fore
SplineSet
164 1522 m 1,0,-1
 482 1522 l 1,1,-1
 1030 639 l 1,2,-1
 1141 416 l 1,3,-1
 1105 782 l 1,4,-1
 1105 1522 l 1,5,-1
 1418 1522 l 1,6,-1
 1418 0 l 1,7,-1
 1085 0 l 1,8,-1
 552 852 l 1,9,-1
 436 1087 l 1,10,-1
 477 724 l 1,11,-1
 477 0 l 1,12,-1
 164 0 l 1,13,-1
 164 1522 l 1,0,-1
EndSplineSet
EndChar

StartChar: O
Encoding: 79 79 46
Width: 1580
Flags: W
LayerCount: 2
Fore
SplineSet
88 769 m 0,0,1
 92 968 92 968 147.5 1111 c 128,-1,2
 203 1254 203 1254 299 1347.5 c 128,-1,3
 395 1441 395 1441 526.5 1487 c 128,-1,4
 658 1533 658 1533 813 1538 c 1,5,6
 972 1542 972 1542 1099 1488 c 128,-1,7
 1226 1434 1226 1434 1314 1332 c 128,-1,8
 1402 1230 1402 1230 1448 1085 c 128,-1,9
 1494 940 1494 940 1491 763 c 0,10,11
 1487 565 1487 565 1433.5 419.5 c 128,-1,12
 1380 274 1380 274 1286.5 178 c 128,-1,13
 1193 82 1193 82 1064.5 34.5 c 128,-1,14
 936 -13 936 -13 783 -16 c 0,15,16
 618 -19 618 -19 487.5 37 c 128,-1,17
 357 93 357 93 267 196.5 c 128,-1,18
 177 300 177 300 131 446 c 128,-1,19
 85 592 85 592 88 769 c 0,0,1
790 231 m 0,20,21
 872 231 872 231 939 262.5 c 128,-1,22
 1006 294 1006 294 1052.5 360 c 128,-1,23
 1099 426 1099 426 1124.5 528.5 c 128,-1,24
 1150 631 1150 631 1150 773 c 0,25,26
 1150 884 1150 884 1128.5 978 c 128,-1,27
 1107 1072 1107 1072 1064.5 1140.5 c 128,-1,28
 1022 1209 1022 1209 957.5 1247.5 c 128,-1,29
 893 1286 893 1286 806 1286 c 0,30,31
 729 1286 729 1286 660.5 1258 c 128,-1,32
 592 1230 592 1230 541 1167 c 128,-1,33
 490 1104 490 1104 460 1003.5 c 128,-1,34
 430 903 430 903 430 758 c 0,35,36
 430 646 430 646 452 550 c 128,-1,37
 474 454 474 454 519 383 c 128,-1,38
 564 312 564 312 631.5 271.5 c 128,-1,39
 699 231 699 231 790 231 c 0,20,21
EndSplineSet
EndChar

StartChar: P
Encoding: 80 80 47
Width: 1320
Flags: W
LayerCount: 2
Fore
SplineSet
164 1522 m 1,0,-1
 270 1522 l 2,1,2
 331 1522 331 1522 387.5 1524.5 c 128,-1,3
 444 1527 444 1527 498.5 1530 c 128,-1,4
 553 1533 553 1533 606.5 1535.5 c 128,-1,5
 660 1538 660 1538 715 1538 c 0,6,7
 847 1538 847 1538 951.5 1509 c 128,-1,8
 1056 1480 1056 1480 1128.5 1417 c 128,-1,9
 1201 1354 1201 1354 1239.5 1253.5 c 128,-1,10
 1278 1153 1278 1153 1278 1011 c 0,11,12
 1278 879 1278 879 1238.5 776 c 128,-1,13
 1199 673 1199 673 1121.5 602 c 128,-1,14
 1044 531 1044 531 929.5 494 c 128,-1,15
 815 457 815 457 665 457 c 0,16,17
 601 457 601 457 563 457.5 c 128,-1,18
 525 458 525 458 499 459 c 1,19,-1
 499 0 l 1,20,-1
 164 0 l 1,21,-1
 164 1522 l 1,0,-1
499 712 m 1,22,23
 534 707 534 707 576.5 705.5 c 128,-1,24
 619 704 619 704 659 704 c 0,25,26
 716 704 716 704 768.5 718.5 c 128,-1,27
 821 733 821 733 861.5 768 c 128,-1,28
 902 803 902 803 926 863 c 128,-1,29
 950 923 950 923 950 1014 c 0,30,31
 950 1156 950 1156 875.5 1230.5 c 128,-1,32
 801 1305 801 1305 655 1299 c 0,33,34
 616 1298 616 1298 575 1295.5 c 128,-1,35
 534 1293 534 1293 499 1286 c 1,36,-1
 499 712 l 1,22,23
EndSplineSet
EndChar

StartChar: Q
Encoding: 81 81 48
Width: 1580
Flags: W
LayerCount: 2
Fore
SplineSet
737 -15 m 1,0,1
 582 -10 582 -10 460.5 49.5 c 128,-1,2
 339 109 339 109 255 212 c 128,-1,3
 171 315 171 315 128 456.5 c 128,-1,4
 85 598 85 598 88 769 c 0,5,6
 92 968 92 968 147.5 1111 c 128,-1,7
 203 1254 203 1254 299 1347.5 c 128,-1,8
 395 1441 395 1441 526.5 1487 c 128,-1,9
 658 1533 658 1533 813 1538 c 1,10,11
 972 1542 972 1542 1099 1488 c 128,-1,12
 1226 1434 1226 1434 1314 1332 c 128,-1,13
 1402 1230 1402 1230 1448 1085 c 128,-1,14
 1494 940 1494 940 1491 763 c 0,15,16
 1488 607 1488 607 1453.5 483.5 c 128,-1,17
 1419 360 1419 360 1358.5 268 c 128,-1,18
 1298 176 1298 176 1213 114.5 c 128,-1,19
 1128 53 1128 53 1024 21 c 1,20,21
 1051 -6 1051 -6 1085.5 -23.5 c 128,-1,22
 1120 -41 1120 -41 1159 -51.5 c 128,-1,23
 1198 -62 1198 -62 1239.5 -66.5 c 128,-1,24
 1281 -71 1281 -71 1322 -71 c 0,25,26
 1344 -71 1344 -71 1374 -69.5 c 128,-1,27
 1404 -68 1404 -68 1435 -65 c 128,-1,28
 1466 -62 1466 -62 1494 -58 c 128,-1,29
 1522 -54 1522 -54 1540 -48 c 1,30,-1
 1540 -281 l 1,31,32
 1526 -289 1526 -289 1501 -296.5 c 128,-1,33
 1476 -304 1476 -304 1445 -310 c 128,-1,34
 1414 -316 1414 -316 1378.5 -320 c 128,-1,35
 1343 -324 1343 -324 1307 -324 c 0,36,37
 1213 -324 1213 -324 1130 -311.5 c 128,-1,38
 1047 -299 1047 -299 976 -265 c 128,-1,39
 905 -231 905 -231 845 -171 c 128,-1,40
 785 -111 785 -111 737 -15 c 1,0,1
790 231 m 0,41,42
 872 231 872 231 939 262.5 c 128,-1,43
 1006 294 1006 294 1052.5 360 c 128,-1,44
 1099 426 1099 426 1124.5 528.5 c 128,-1,45
 1150 631 1150 631 1150 773 c 0,46,47
 1150 884 1150 884 1128.5 978 c 128,-1,48
 1107 1072 1107 1072 1064.5 1140.5 c 128,-1,49
 1022 1209 1022 1209 957.5 1247.5 c 128,-1,50
 893 1286 893 1286 806 1286 c 0,51,52
 729 1286 729 1286 660.5 1258 c 128,-1,53
 592 1230 592 1230 541 1167 c 128,-1,54
 490 1104 490 1104 460 1003.5 c 128,-1,55
 430 903 430 903 430 758 c 0,56,57
 430 646 430 646 452 550 c 128,-1,58
 474 454 474 454 519 383 c 128,-1,59
 564 312 564 312 631.5 271.5 c 128,-1,60
 699 231 699 231 790 231 c 0,41,42
EndSplineSet
EndChar

StartChar: R
Encoding: 82 82 49
Width: 1395
Flags: W
LayerCount: 2
Fore
SplineSet
164 1522 m 1,0,-1
 317 1522 l 2,1,2
 351 1522 351 1522 388 1524.5 c 128,-1,3
 425 1527 425 1527 472 1530 c 128,-1,4
 519 1533 519 1533 580 1535.5 c 128,-1,5
 641 1538 641 1538 723 1538 c 0,6,7
 793 1538 793 1538 861.5 1529 c 128,-1,8
 930 1520 930 1520 991.5 1498.5 c 128,-1,9
 1053 1477 1053 1477 1105 1442 c 128,-1,10
 1157 1407 1157 1407 1194.5 1355.5 c 128,-1,11
 1232 1304 1232 1304 1253.5 1234 c 128,-1,12
 1275 1164 1275 1164 1275 1073 c 0,13,14
 1275 980 1275 980 1255.5 907.5 c 128,-1,15
 1236 835 1236 835 1200 781 c 128,-1,16
 1164 727 1164 727 1113 689.5 c 128,-1,17
 1062 652 1062 652 999 628 c 1,18,19
 1052 595 1052 595 1092.5 536 c 128,-1,20
 1133 477 1133 477 1169 405.5 c 128,-1,21
 1205 334 1205 334 1239.5 256.5 c 128,-1,22
 1274 179 1274 179 1314 110 c 2,23,-1
 1377 0 l 1,24,-1
 1001 0 l 1,25,26
 994 9 994 9 988.5 18.5 c 128,-1,27
 983 28 983 28 977 40 c 128,-1,28
 971 52 971 52 963.5 69 c 128,-1,29
 956 86 956 86 945 110 c 0,30,31
 924 154 924 154 904.5 205 c 128,-1,32
 885 256 885 256 865.5 306.5 c 128,-1,33
 846 357 846 357 825.5 404 c 128,-1,34
 805 451 805 451 780.5 487.5 c 128,-1,35
 756 524 756 524 727.5 546.5 c 128,-1,36
 699 569 699 569 664 571 c 1,37,38
 632 569 632 569 591.5 568.5 c 128,-1,39
 551 568 551 568 499 568 c 1,40,-1
 499 0 l 1,41,-1
 164 0 l 1,42,-1
 164 1522 l 1,0,-1
499 805 m 1,43,44
 514 803 514 803 538.5 801.5 c 128,-1,45
 563 800 563 800 590 799.5 c 128,-1,46
 617 799 617 799 643.5 798.5 c 128,-1,47
 670 798 670 798 690 798 c 0,48,49
 759 798 759 798 807.5 820.5 c 128,-1,50
 856 843 856 843 886.5 880 c 128,-1,51
 917 917 917 917 931 965 c 128,-1,52
 945 1013 945 1013 945 1065 c 0,53,54
 945 1109 945 1109 935 1150 c 128,-1,55
 925 1191 925 1191 895.5 1223 c 128,-1,56
 866 1255 866 1255 813 1274.5 c 128,-1,57
 760 1294 760 1294 674 1294 c 0,58,59
 624 1294 624 1294 581.5 1290 c 128,-1,60
 539 1286 539 1286 499 1276 c 1,61,-1
 499 805 l 1,43,44
EndSplineSet
EndChar

StartChar: S
Encoding: 83 83 50
Width: 1159
Flags: W
LayerCount: 2
Fore
SplineSet
150 338 m 1,0,1
 178 321 178 321 219.5 304 c 128,-1,2
 261 287 261 287 309.5 273.5 c 128,-1,3
 358 260 358 260 411.5 251.5 c 128,-1,4
 465 243 465 243 516 243 c 0,5,6
 573 243 573 243 620 251.5 c 128,-1,7
 667 260 667 260 701 279 c 128,-1,8
 735 298 735 298 754 326.5 c 128,-1,9
 773 355 773 355 773 396 c 0,10,11
 773 439 773 439 751 472 c 128,-1,12
 729 505 729 505 687 535 c 128,-1,13
 645 565 645 565 584 595 c 128,-1,14
 523 625 523 625 445 663 c 0,15,16
 275 744 275 744 189 856 c 128,-1,17
 103 968 103 968 103 1126 c 0,18,19
 103 1235 103 1235 146 1313 c 128,-1,20
 189 1391 189 1391 262 1441 c 128,-1,21
 335 1491 335 1491 429.5 1514.5 c 128,-1,22
 524 1538 524 1538 628 1538 c 0,23,24
 714 1538 714 1538 781.5 1529 c 128,-1,25
 849 1520 849 1520 900 1506.5 c 128,-1,26
 951 1493 951 1493 986 1478 c 128,-1,27
 1021 1463 1021 1463 1042 1450 c 1,28,-1
 989 1194 l 1,29,30
 935 1230 935 1230 853 1258 c 128,-1,31
 771 1286 771 1286 662 1286 c 0,32,33
 613 1286 613 1286 571.5 1277 c 128,-1,34
 530 1268 530 1268 500 1250 c 128,-1,35
 470 1232 470 1232 453 1204 c 128,-1,36
 436 1176 436 1176 436 1139 c 0,37,38
 436 1101 436 1101 449 1071.5 c 128,-1,39
 462 1042 462 1042 493 1014.5 c 128,-1,40
 524 987 524 987 575 958.5 c 128,-1,41
 626 930 626 930 702 894 c 0,42,43
 785 855 785 855 858.5 809.5 c 128,-1,44
 932 764 932 764 986.5 708 c 128,-1,45
 1041 652 1041 652 1073 584.5 c 128,-1,46
 1105 517 1105 517 1105 436 c 0,47,48
 1105 320 1105 320 1067 234.5 c 128,-1,49
 1029 149 1029 149 958.5 93.5 c 128,-1,50
 888 38 888 38 788 11 c 128,-1,51
 688 -16 688 -16 565 -16 c 0,52,53
 484 -16 484 -16 409.5 -7 c 128,-1,54
 335 2 335 2 274.5 16 c 128,-1,55
 214 30 214 30 169.5 45.5 c 128,-1,56
 125 61 125 61 104 75 c 1,57,-1
 150 338 l 1,0,1
EndSplineSet
EndChar

StartChar: T
Encoding: 84 84 51
Width: 1274
Flags: W
LayerCount: 2
Fore
SplineSet
468 1268 m 1,0,-1
 40 1268 l 1,1,-1
 40 1522 l 1,2,-1
 1231 1522 l 1,3,-1
 1231 1268 l 1,4,-1
 805 1268 l 1,5,-1
 805 0 l 1,6,-1
 468 0 l 1,7,-1
 468 1268 l 1,0,-1
EndSplineSet
EndChar

StartChar: U
Encoding: 85 85 52
Width: 1483
Flags: W
LayerCount: 2
Fore
SplineSet
126 1522 m 1,0,-1
 458 1522 l 1,1,-1
 455 672 l 2,2,3
 455 541 455 541 475.5 459 c 128,-1,4
 496 377 496 377 534 330 c 128,-1,5
 572 283 572 283 627 266 c 128,-1,6
 682 249 682 249 750 249 c 0,7,8
 817 249 817 249 869 268.5 c 128,-1,9
 921 288 921 288 957 336 c 128,-1,10
 993 384 993 384 1012 465.5 c 128,-1,11
 1031 547 1031 547 1031 672 c 2,12,-1
 1031 1522 l 1,13,-1
 1360 1522 l 1,14,-1
 1360 633 l 2,15,16
 1360 477 1360 477 1320.5 356 c 128,-1,17
 1281 235 1281 235 1203 152.5 c 128,-1,18
 1125 70 1125 70 1009 27 c 128,-1,19
 893 -16 893 -16 740 -16 c 0,20,21
 568 -16 568 -16 450 30.5 c 128,-1,22
 332 77 332 77 259.5 163.5 c 128,-1,23
 187 250 187 250 155.5 372 c 128,-1,24
 124 494 124 494 124 645 c 2,25,-1
 126 1522 l 1,0,-1
EndSplineSet
EndChar

StartChar: V
Encoding: 86 86 53
Width: 1364
Flags: W
LayerCount: 2
Fore
SplineSet
-22 1522 m 1,0,-1
 332 1522 l 1,1,-1
 601 718 l 1,2,-1
 684 413 l 1,3,-1
 769 718 l 1,4,-1
 1033 1522 l 1,5,-1
 1385 1522 l 1,6,-1
 822 -5 l 1,7,-1
 541 -5 l 1,8,-1
 -22 1522 l 1,0,-1
EndSplineSet
EndChar

StartChar: W
Encoding: 87 87 54
Width: 1921
Flags: W
LayerCount: 2
Fore
SplineSet
-25 1522 m 1,0,-1
 320 1522 l 1,1,-1
 488 768 l 1,2,-1
 552 367 l 1,3,-1
 618 768 l 1,4,-1
 828 1522 l 1,5,-1
 1118 1522 l 1,6,-1
 1321 769 l 1,7,-1
 1396 369 l 1,8,-1
 1453 768 l 1,9,-1
 1613 1522 l 1,10,-1
 1947 1522 l 1,11,-1
 1551 -16 l 1,12,-1
 1214 -16 l 1,13,-1
 1008 799 l 1,14,-1
 960 1066 l 1,15,-1
 914 798 l 1,16,-1
 681 -16 l 1,17,-1
 378 -16 l 1,18,-1
 -25 1522 l 1,0,-1
EndSplineSet
EndChar

StartChar: X
Encoding: 88 88 55
Width: 1333
Flags: W
LayerCount: 2
Fore
SplineSet
462 784 m 1,0,-1
 12 1522 l 1,1,-1
 374 1523 l 1,2,-1
 682 994 l 1,3,-1
 969 1522 l 1,4,-1
 1318 1522 l 1,5,-1
 867 753 l 1,6,-1
 1329 0 l 1,7,-1
 961 0 l 1,8,-1
 651 547 l 1,9,-1
 350 0 l 1,10,-1
 5 0 l 1,11,-1
 462 784 l 1,0,-1
EndSplineSet
EndChar

StartChar: Y
Encoding: 89 89 56
Width: 1298
Flags: W
LayerCount: 2
Fore
SplineSet
482 539 m 1,0,-1
 -17 1522 l 1,1,-1
 349 1522 l 1,2,-1
 612 949 l 1,3,-1
 658 827 l 1,4,-1
 700 949 l 1,5,-1
 971 1522 l 1,6,-1
 1316 1522 l 1,7,-1
 818 537 l 1,8,-1
 818 0 l 1,9,-1
 482 0 l 1,10,-1
 482 539 l 1,0,-1
EndSplineSet
EndChar

StartChar: Z
Encoding: 90 90 57
Width: 1278
Flags: W
LayerCount: 2
Fore
SplineSet
57 84 m 1,0,-1
 717 1200 l 1,1,-1
 776 1282 l 1,2,-1
 140 1282 l 1,3,-1
 140 1522 l 1,4,-1
 1183 1522 l 1,5,-1
 1221 1441 l 1,6,-1
 574 346 l 1,7,-1
 501 250 l 1,8,-1
 1175 250 l 1,9,-1
 1175 0 l 1,10,-1
 97 0 l 1,11,-1
 57 84 l 1,0,-1
EndSplineSet
EndChar

StartChar: bracketleft
Encoding: 91 91 58
Width: 793
Flags: W
LayerCount: 2
Fore
SplineSet
137 1486 m 2,0,1
 137 1560 137 1560 145.5 1608.5 c 128,-1,2
 154 1657 154 1657 175.5 1686 c 128,-1,3
 197 1715 197 1715 234.5 1727 c 128,-1,4
 272 1739 272 1739 329 1739 c 0,5,6
 390 1739 390 1739 437 1737 c 128,-1,7
 484 1735 484 1735 525.5 1731.5 c 128,-1,8
 567 1728 567 1728 606 1723.5 c 128,-1,9
 645 1719 645 1719 692 1715 c 1,10,-1
 692 1549 l 1,11,-1
 427 1549 l 1,12,-1
 427 -18 l 1,13,-1
 692 -20 l 1,14,-1
 692 -171 l 1,15,16
 645 -176 645 -176 606 -180.5 c 128,-1,17
 567 -185 567 -185 525.5 -188.5 c 128,-1,18
 484 -192 484 -192 437 -194 c 128,-1,19
 390 -196 390 -196 329 -196 c 0,20,21
 271 -196 271 -196 234 -183.5 c 128,-1,22
 197 -171 197 -171 175.5 -141 c 128,-1,23
 154 -111 154 -111 145.5 -61.5 c 128,-1,24
 137 -12 137 -12 137 62 c 2,25,-1
 137 1486 l 2,0,1
EndSplineSet
EndChar

StartChar: asciicircum
Encoding: 94 94 61
Width: 1363
Flags: W
LayerCount: 2
Fore
SplineSet
567 1531 m 1,0,-1
 796 1531 l 1,1,-1
 1220 490 l 1,2,-1
 930 490 l 1,3,-1
 681 1146 l 1,4,-1
 434 490 l 1,5,-1
 143 490 l 1,6,-1
 567 1531 l 1,0,-1
EndSplineSet
EndChar

StartChar: underscore
Encoding: 95 95 62
Width: 1692
Flags: W
LayerCount: 2
Fore
SplineSet
1732 -239 m 1,0,-1
 1732 -409 l 1,1,-1
 -40 -409 l 1,2,-1
 -40 -239 l 1,3,-1
 1732 -239 l 1,0,-1
EndSplineSet
EndChar

StartChar: grave
Encoding: 96 96 63
Width: 664
Flags: W
LayerCount: 2
Fore
SplineSet
462 1246 m 1,0,1
 441 1256 441 1256 407 1278 c 128,-1,2
 373 1300 373 1300 333 1331 c 128,-1,3
 293 1362 293 1362 250.5 1399.5 c 128,-1,4
 208 1437 208 1437 169.5 1477 c 128,-1,5
 131 1517 131 1517 100 1557 c 128,-1,6
 69 1597 69 1597 52 1634 c 1,7,-1
 273 1811 l 1,8,9
 307 1758 307 1758 349 1700 c 128,-1,10
 391 1642 391 1642 436 1585.5 c 128,-1,11
 481 1529 481 1529 527 1477.5 c 128,-1,12
 573 1426 573 1426 615 1387 c 1,13,-1
 462 1246 l 1,14,-1
 462 1246 l 1,0,1
EndSplineSet
EndChar

StartChar: a
Encoding: 97 97 64
Width: 1170
Flags: W
LayerCount: 2
Fore
SplineSet
65 330 m 0,0,1
 65 437 65 437 121 514 c 128,-1,2
 177 591 177 591 277 635 c 1,3,4
 326 655 326 655 381 668.5 c 128,-1,5
 436 682 436 682 493 690 c 128,-1,6
 550 698 550 698 607 701.5 c 128,-1,7
 664 705 664 705 718 705 c 1,8,-1
 718 764 l 2,9,10
 718 806 718 806 707 835 c 128,-1,11
 696 864 696 864 672 882 c 128,-1,12
 648 900 648 900 610 908 c 128,-1,13
 572 916 572 916 518 916 c 0,14,15
 473 916 473 916 424 908 c 128,-1,16
 375 900 375 900 330 887.5 c 128,-1,17
 285 875 285 875 249 861 c 128,-1,18
 213 847 213 847 194 835 c 1,19,-1
 122 1041 l 1,20,21
 138 1051 138 1051 182.5 1071 c 128,-1,22
 227 1091 227 1091 291.5 1111 c 128,-1,23
 356 1131 356 1131 436.5 1146.5 c 128,-1,24
 517 1162 517 1162 606 1162 c 0,25,26
 714 1162 714 1162 795.5 1143 c 128,-1,27
 877 1124 877 1124 931.5 1076 c 128,-1,28
 986 1028 986 1028 1013.5 946 c 128,-1,29
 1041 864 1041 864 1041 738 c 2,30,-1
 1041 -16 l 1,31,-1
 849 -16 l 2,32,33
 820 -16 820 -16 798.5 -13.5 c 128,-1,34
 777 -11 777 -11 762 -1 c 128,-1,35
 747 9 747 9 739.5 30 c 128,-1,36
 732 51 732 51 732 88 c 2,37,-1
 732 96 l 1,38,39
 709 75 709 75 675.5 55 c 128,-1,40
 642 35 642 35 601 19 c 128,-1,41
 560 3 560 3 512.5 -6.5 c 128,-1,42
 465 -16 465 -16 415 -16 c 0,43,44
 338 -16 338 -16 274 6 c 128,-1,45
 210 28 210 28 163.5 71.5 c 128,-1,46
 117 115 117 115 91 179.5 c 128,-1,47
 65 244 65 244 65 330 c 0,0,1
392 348 m 0,48,49
 392 310 392 310 404.5 282 c 128,-1,50
 417 254 417 254 438 235.5 c 128,-1,51
 459 217 459 217 487 208 c 128,-1,52
 515 199 515 199 547 199 c 0,53,54
 572 199 572 199 599 205 c 128,-1,55
 626 211 626 211 650 220 c 128,-1,56
 674 229 674 229 692 239.5 c 128,-1,57
 710 250 710 250 718 260 c 1,58,-1
 718 528 l 1,59,60
 691 528 691 528 659.5 525 c 128,-1,61
 628 522 628 522 597.5 516.5 c 128,-1,62
 567 511 567 511 540.5 504 c 128,-1,63
 514 497 514 497 497 489 c 0,64,65
 479 481 479 481 460.5 471 c 128,-1,66
 442 461 442 461 426.5 444.5 c 128,-1,67
 411 428 411 428 401.5 404.5 c 128,-1,68
 392 381 392 381 392 348 c 0,48,49
EndSplineSet
Substitution2: "Single Substitution lookup 16 subtable" ordfeminine
Substitution2: "'aalt' Access All Alternates in Latin lookup 0 subtable" ordfeminine
EndChar

StartChar: b
Encoding: 98 98 65
Width: 1292
Flags: W
LayerCount: 2
Fore
SplineSet
134 1661 m 1,0,-1
 458 1661 l 1,1,-1
 458 1229 l 1,2,-1
 450 1037 l 1,3,4
 471 1056 471 1056 499.5 1077.5 c 128,-1,5
 528 1099 528 1099 567 1116 c 128,-1,6
 606 1133 606 1133 656.5 1144.5 c 128,-1,7
 707 1156 707 1156 770 1156 c 0,8,9
 861 1156 861 1156 943 1123 c 128,-1,10
 1025 1090 1025 1090 1087.5 1022.5 c 128,-1,11
 1150 955 1150 955 1187 853 c 128,-1,12
 1224 751 1224 751 1224 612 c 0,13,14
 1224 469 1224 469 1180.5 352 c 128,-1,15
 1137 235 1137 235 1058.5 152 c 128,-1,16
 980 69 980 69 869.5 23 c 128,-1,17
 759 -23 759 -23 626 -23 c 0,18,19
 546 -23 546 -23 463.5 -13 c 128,-1,20
 381 -3 381 -3 312 11 c 128,-1,21
 243 25 243 25 194.5 40 c 128,-1,22
 146 55 146 55 134 64 c 1,23,-1
 134 1661 l 1,0,-1
458 238 m 1,24,25
 478 218 478 218 521 209 c 128,-1,26
 564 200 564 200 630 200 c 0,27,28
 684 200 684 200 730.5 225.5 c 128,-1,29
 777 251 777 251 811 300.5 c 128,-1,30
 845 350 845 350 864.5 422.5 c 128,-1,31
 884 495 884 495 884 588 c 0,32,33
 885 683 885 683 869.5 746 c 128,-1,34
 854 809 854 809 825.5 846.5 c 128,-1,35
 797 884 797 884 757 899.5 c 128,-1,36
 717 915 717 915 668 915 c 0,37,38
 603 915 603 915 547.5 894 c 128,-1,39
 492 873 492 873 458 846 c 1,40,-1
 458 238 l 1,24,25
EndSplineSet
EndChar

StartChar: c
Encoding: 99 99 66
Width: 994
Flags: W
LayerCount: 2
Fore
SplineSet
68 557 m 0,0,1
 68 683 68 683 102.5 792 c 128,-1,2
 137 901 137 901 207.5 982 c 128,-1,3
 278 1063 278 1063 385.5 1109.5 c 128,-1,4
 493 1156 493 1156 639 1156 c 0,5,6
 693 1156 693 1156 741.5 1151 c 128,-1,7
 790 1146 790 1146 829 1137.5 c 128,-1,8
 868 1129 868 1129 896.5 1118.5 c 128,-1,9
 925 1108 925 1108 939 1098 c 1,10,-1
 899 850 l 1,11,12
 860 871 860 871 807.5 882.5 c 128,-1,13
 755 894 755 894 675 894 c 0,14,15
 627 894 627 894 577 878.5 c 128,-1,16
 527 863 527 863 486.5 828 c 128,-1,17
 446 793 446 793 419.5 735.5 c 128,-1,18
 393 678 393 678 391 593 c 0,19,20
 389 501 389 501 409 435 c 128,-1,21
 429 369 429 369 466.5 326 c 128,-1,22
 504 283 504 283 555 262.5 c 128,-1,23
 606 242 606 242 666 242 c 0,24,25
 704 242 704 242 740.5 245.5 c 128,-1,26
 777 249 777 249 809 255.5 c 128,-1,27
 841 262 841 262 867 270 c 128,-1,28
 893 278 893 278 911 287 c 1,29,-1
 956 98 l 1,30,31
 930 72 930 72 892 51 c 128,-1,32
 854 30 854 30 808.5 15 c 128,-1,33
 763 0 763 0 710.5 -8 c 128,-1,34
 658 -16 658 -16 604 -16 c 0,35,36
 469 -16 469 -16 368.5 27.5 c 128,-1,37
 268 71 268 71 201.5 148 c 128,-1,38
 135 225 135 225 101.5 329.5 c 128,-1,39
 68 434 68 434 68 557 c 0,0,1
EndSplineSet
EndChar

StartChar: d
Encoding: 100 100 67
Width: 1291
Flags: W
LayerCount: 2
Fore
SplineSet
522 -16 m 0,0,1
 431 -16 431 -16 349 17 c 128,-1,2
 267 50 267 50 204.5 117.5 c 128,-1,3
 142 185 142 185 105 287 c 128,-1,4
 68 389 68 389 68 528 c 0,5,6
 68 670 68 670 110 786 c 128,-1,7
 152 902 152 902 228.5 984.5 c 128,-1,8
 305 1067 305 1067 412 1111.5 c 128,-1,9
 519 1156 519 1156 649 1156 c 0,10,11
 709 1156 709 1156 755.5 1146.5 c 128,-1,12
 802 1137 802 1137 836 1125 c 1,13,-1
 833 1229 l 1,14,-1
 833 1662 l 1,15,-1
 1157 1662 l 1,16,-1
 1157 -16 l 1,17,-1
 930 -16 l 2,18,19
 898 -16 898 -16 878.5 -5 c 128,-1,20
 859 6 859 6 859 41 c 2,21,-1
 859 119 l 1,22,23
 839 99 839 99 810.5 75.5 c 128,-1,24
 782 52 782 52 741 31.5 c 128,-1,25
 700 11 700 11 646 -2.5 c 128,-1,26
 592 -16 592 -16 522 -16 c 0,0,1
624 234 m 0,27,28
 687 234 687 234 743 251.5 c 128,-1,29
 799 269 799 269 833 292 c 1,30,-1
 833 894 l 1,31,32
 804 915 804 915 758.5 921 c 128,-1,33
 713 927 713 927 662 927 c 0,34,35
 608 927 608 927 561.5 902.5 c 128,-1,36
 515 878 515 878 481.5 830.5 c 128,-1,37
 448 783 448 783 428.5 713 c 128,-1,38
 409 643 409 643 408 552 c 0,39,40
 407 460 407 460 422.5 399 c 128,-1,41
 438 338 438 338 466.5 301 c 128,-1,42
 495 264 495 264 535 249 c 128,-1,43
 575 234 575 234 624 234 c 0,27,28
EndSplineSet
EndChar

StartChar: e
Encoding: 101 101 68
Width: 1155
Flags: W
LayerCount: 2
Fore
SplineSet
73 574 m 0,0,1
 73 698 73 698 109.5 804.5 c 128,-1,2
 146 911 146 911 216 989 c 128,-1,3
 286 1067 286 1067 388.5 1111 c 128,-1,4
 491 1155 491 1155 623 1156 c 0,5,6
 712 1157 712 1157 794 1134.5 c 128,-1,7
 876 1112 876 1112 939 1059 c 128,-1,8
 1002 1006 1002 1006 1040 919.5 c 128,-1,9
 1078 833 1078 833 1080 706 c 1,10,11
 1080 641 1080 641 1077.5 586 c 128,-1,12
 1075 531 1075 531 1069 493 c 1,13,-1
 397 493 l 1,14,15
 402 422 402 422 425.5 371 c 128,-1,16
 449 320 449 320 487.5 287 c 128,-1,17
 526 254 526 254 579 238.5 c 128,-1,18
 632 223 632 223 697 223 c 0,19,20
 730 223 730 223 771.5 227.5 c 128,-1,21
 813 232 813 232 855 240 c 128,-1,22
 897 248 897 248 933.5 259 c 128,-1,23
 970 270 970 270 992 282 c 1,24,-1
 1044 100 l 1,25,26
 1016 77 1016 77 971.5 56 c 128,-1,27
 927 35 927 35 870.5 19 c 128,-1,28
 814 3 814 3 749.5 -6.5 c 128,-1,29
 685 -16 685 -16 616 -16 c 0,30,31
 484 -16 484 -16 383 24 c 128,-1,32
 282 64 282 64 213 140 c 128,-1,33
 144 216 144 216 108.5 325.5 c 128,-1,34
 73 435 73 435 73 574 c 0,0,1
780 668 m 1,35,36
 784 731 784 731 777 779.5 c 128,-1,37
 770 828 770 828 750.5 861 c 128,-1,38
 731 894 731 894 697.5 911 c 128,-1,39
 664 928 664 928 613 928 c 0,40,41
 570 928 570 928 534.5 915 c 128,-1,42
 499 902 499 902 472 872 c 128,-1,43
 445 842 445 842 427 792 c 128,-1,44
 409 742 409 742 401 668 c 1,45,-1
 780 668 l 1,35,36
EndSplineSet
EndChar

StartChar: f
Encoding: 102 102 69
Width: 838
Flags: W
LayerCount: 2
Fore
SplineSet
214 918 m 1,0,-1
 61 918 l 1,1,-1
 61 1107 l 1,2,-1
 214 1140 l 1,3,-1
 214 1251 l 2,4,5
 214 1375 214 1375 253 1458.5 c 128,-1,6
 292 1542 292 1542 354 1591.5 c 128,-1,7
 416 1641 416 1641 492.5 1662 c 128,-1,8
 569 1683 569 1683 644 1683 c 0,9,10
 678 1683 678 1683 711 1680.5 c 128,-1,11
 744 1678 744 1678 771.5 1675 c 128,-1,12
 799 1672 799 1672 819.5 1668 c 128,-1,13
 840 1664 840 1664 849 1661 c 1,14,-1
 849 1433 l 1,15,16
 826 1444 826 1444 789.5 1450.5 c 128,-1,17
 753 1457 753 1457 695 1457 c 0,18,19
 625 1457 625 1457 581.5 1406.5 c 128,-1,20
 538 1356 538 1356 538 1253 c 2,21,-1
 538 1140 l 1,22,-1
 800 1140 l 1,23,-1
 800 918 l 1,24,-1
 538 918 l 1,25,-1
 538 0 l 1,26,-1
 214 0 l 1,27,-1
 214 918 l 1,0,-1
EndSplineSet
EndChar

StartChar: g
Encoding: 103 103 70
Width: 1261
Flags: W
LayerCount: 2
Fore
SplineSet
58 -165 m 0,0,1
 58 -84 58 -84 104.5 -31 c 128,-1,2
 151 22 151 22 227 53 c 1,3,4
 177 77 177 77 156 121.5 c 128,-1,5
 135 166 135 166 136 228 c 0,6,7
 136 259 136 259 146.5 291.5 c 128,-1,8
 157 324 157 324 177 354.5 c 128,-1,9
 197 385 197 385 225.5 412.5 c 128,-1,10
 254 440 254 440 291 462 c 1,11,12
 190 508 190 508 137.5 588.5 c 128,-1,13
 85 669 85 669 85 775 c 0,14,15
 85 873 85 873 118 944.5 c 128,-1,16
 151 1016 151 1016 215 1062.5 c 128,-1,17
 279 1109 279 1109 372 1132 c 128,-1,18
 465 1155 465 1155 584 1156 c 0,19,20
 695 1157 695 1157 786 1136.5 c 128,-1,21
 877 1116 877 1116 943 1073 c 1,22,23
 970 1098 970 1098 1017.5 1120 c 128,-1,24
 1065 1142 1065 1142 1131 1142 c 2,25,-1
 1254 1142 l 1,26,-1
 1254 910 l 1,27,-1
 1071 910 l 1,28,29
 1080 881 1080 881 1085 849.5 c 128,-1,30
 1090 818 1090 818 1090 783 c 0,31,32
 1090 692 1090 692 1056.5 622 c 128,-1,33
 1023 552 1023 552 958 504 c 128,-1,34
 893 456 893 456 798 431.5 c 128,-1,35
 703 407 703 407 581 407 c 0,36,37
 554 407 554 407 528.5 408.5 c 128,-1,38
 503 410 503 410 479 412 c 1,39,40
 459 395 459 395 448 371.5 c 128,-1,41
 437 348 437 348 437 325 c 0,42,43
 437 277 437 277 469 259.5 c 128,-1,44
 501 242 501 242 573 242 c 2,45,-1
 769 242 l 2,46,47
 906 242 906 242 991.5 212.5 c 128,-1,48
 1077 183 1077 183 1124.5 135.5 c 128,-1,49
 1172 88 1172 88 1189 27.5 c 128,-1,50
 1206 -33 1206 -33 1206 -96 c 0,51,52
 1206 -200 1206 -200 1155.5 -279 c 128,-1,53
 1105 -358 1105 -358 1021.5 -411 c 128,-1,54
 938 -464 938 -464 829 -491 c 128,-1,55
 720 -518 720 -518 603 -516 c 1,56,57
 475 -515 475 -515 373.5 -489.5 c 128,-1,58
 272 -464 272 -464 202 -418.5 c 128,-1,59
 132 -373 132 -373 95 -309 c 128,-1,60
 58 -245 58 -245 58 -165 c 0,0,1
587 602 m 0,61,62
 629 602 629 602 665.5 609.5 c 128,-1,63
 702 617 702 617 728.5 636.5 c 128,-1,64
 755 656 755 656 770.5 689.5 c 128,-1,65
 786 723 786 723 786 775 c 0,66,67
 786 865 786 865 738.5 912 c 128,-1,68
 691 959 691 959 597 959 c 0,69,70
 555 959 555 959 518 951.5 c 128,-1,71
 481 944 481 944 454 924 c 128,-1,72
 427 904 427 904 411.5 869 c 128,-1,73
 396 834 396 834 396 778 c 0,74,75
 396 697 396 697 444.5 649.5 c 128,-1,76
 493 602 493 602 587 602 c 0,61,62
372 -112 m 0,77,78
 372 -153 372 -153 384 -191.5 c 128,-1,79
 396 -230 396 -230 424.5 -260 c 128,-1,80
 453 -290 453 -290 499.5 -308 c 128,-1,81
 546 -326 546 -326 615 -326 c 0,82,83
 670 -326 670 -326 719.5 -317 c 128,-1,84
 769 -308 769 -308 806.5 -288 c 128,-1,85
 844 -268 844 -268 866 -236.5 c 128,-1,86
 888 -205 888 -205 888 -160 c 0,87,88
 888 -121 888 -121 880 -91.5 c 128,-1,89
 872 -62 872 -62 845.5 -42 c 128,-1,90
 819 -22 819 -22 770 -12 c 128,-1,91
 721 -2 721 -2 639 -2 c 2,92,-1
 464 -2 l 2,93,94
 450 -2 450 -2 437 -1.5 c 128,-1,95
 424 -1 424 -1 411 0 c 1,96,97
 394 -16 394 -16 383 -41.5 c 128,-1,98
 372 -67 372 -67 372 -112 c 0,77,78
EndSplineSet
EndChar

StartChar: h
Encoding: 104 104 71
Width: 1306
Flags: W
LayerCount: 2
Fore
SplineSet
139 1662 m 1,0,-1
 463 1662 l 1,1,-1
 463 1226 l 1,2,-1
 446 1021 l 1,3,4
 476 1045 476 1045 516 1069 c 128,-1,5
 556 1093 556 1093 601.5 1112.5 c 128,-1,6
 647 1132 647 1132 695.5 1144.5 c 128,-1,7
 744 1157 744 1157 791 1159 c 0,8,9
 885 1162 885 1162 956 1139 c 128,-1,10
 1027 1116 1027 1116 1074.5 1062.5 c 128,-1,11
 1122 1009 1122 1009 1146 922 c 128,-1,12
 1170 835 1170 835 1170 711 c 2,13,-1
 1170 0 l 1,14,-1
 846 0 l 1,15,-1
 846 646 l 2,16,17
 846 715 846 715 837.5 761.5 c 128,-1,18
 829 808 829 808 809.5 836 c 128,-1,19
 790 864 790 864 758 875.5 c 128,-1,20
 726 887 726 887 680 886 c 0,21,22
 660 886 660 886 632.5 881 c 128,-1,23
 605 876 605 876 576 866 c 128,-1,24
 547 856 547 856 517.5 840 c 128,-1,25
 488 824 488 824 463 802 c 1,26,-1
 463 0 l 1,27,-1
 139 0 l 1,28,-1
 139 1662 l 1,0,-1
EndSplineSet
EndChar

StartChar: dotlessi
Encoding: 305 305 73
Width: 626
Flags: W
LayerCount: 2
Fore
SplineSet
151 1138 m 1,0,-1
 475 1138 l 1,1,-1
 475 0 l 1,2,-1
 151 0 l 1,3,-1
 151 1138 l 1,0,-1
EndSplineSet
EndChar

StartChar: dotaccent
Encoding: 729 729 74
Width: 489
Flags: W
LayerCount: 2
Fore
SplineSet
236 1301 m 0,0,1
 197 1301 197 1301 163 1314 c 128,-1,2
 129 1327 129 1327 104 1350.5 c 128,-1,3
 79 1374 79 1374 64.5 1406 c 128,-1,4
 50 1438 50 1438 50 1477 c 256,5,6
 50 1516 50 1516 67 1550.5 c 128,-1,7
 84 1585 84 1585 112 1611 c 128,-1,8
 140 1637 140 1637 177 1652 c 128,-1,9
 214 1667 214 1667 254 1667 c 0,10,11
 296 1667 296 1667 330.5 1654 c 128,-1,12
 365 1641 365 1641 389 1618 c 128,-1,13
 413 1595 413 1595 426 1563 c 128,-1,14
 439 1531 439 1531 439 1493 c 0,15,16
 439 1454 439 1454 422.5 1419 c 128,-1,17
 406 1384 406 1384 378.5 1357.5 c 128,-1,18
 351 1331 351 1331 314 1316 c 128,-1,19
 277 1301 277 1301 236 1301 c 0,0,1
EndSplineSet
EndChar

StartChar: dotlessj
Encoding: 567 567 76
Width: 603
Flags: W
LayerCount: 2
Fore
SplineSet
154 1138 m 1,0,-1
 478 1138 l 1,1,-1
 478 82 l 2,2,3
 478 -79 478 -79 449 -191 c 128,-1,4
 420 -303 420 -303 366 -373 c 128,-1,5
 312 -443 312 -443 234 -475 c 128,-1,6
 156 -507 156 -507 58 -507 c 0,7,8
 41 -507 41 -507 14.5 -506 c 128,-1,9
 -12 -505 -12 -505 -39 -503 c 128,-1,10
 -66 -501 -66 -501 -88.5 -498 c 128,-1,11
 -111 -495 -111 -495 -121 -491 c 1,12,-1
 -121 -275 l 1,13,14
 -115 -278 -115 -278 -100.5 -282 c 128,-1,15
 -86 -286 -86 -286 -69 -289.5 c 128,-1,16
 -52 -293 -52 -293 -34.5 -295 c 128,-1,17
 -17 -297 -17 -297 -4 -297 c 0,18,19
 84 -297 84 -297 119 -222.5 c 128,-1,20
 154 -148 154 -148 154 1 c 2,21,-1
 154 1138 l 1,0,-1
EndSplineSet
EndChar

StartChar: k
Encoding: 107 107 77
Width: 1215
Flags: W
LayerCount: 2
Fore
SplineSet
135 1661 m 1,0,-1
 459 1661 l 1,1,-1
 459 988 l 1,2,-1
 448 698 l 1,3,-1
 826 1140 l 1,4,-1
 1191 1140 l 1,5,-1
 786 698 l 1,6,-1
 1229 0 l 1,7,-1
 863 0 l 1,8,-1
 572 465 l 1,9,-1
 455 338 l 1,10,-1
 459 208 l 1,11,-1
 459 0 l 1,12,-1
 135 0 l 1,13,-1
 135 1661 l 1,0,-1
EndSplineSet
EndChar

StartChar: l
Encoding: 108 108 78
Width: 630
Flags: W
LayerCount: 2
Fore
SplineSet
153 1662 m 1,0,-1
 477 1662 l 1,1,-1
 477 0 l 1,2,-1
 153 0 l 1,3,-1
 153 1662 l 1,0,-1
EndSplineSet
EndChar

StartChar: m
Encoding: 109 109 79
Width: 1994
Flags: W
LayerCount: 2
Fore
SplineSet
140 1138 m 1,0,-1
 434 1138 l 1,1,-1
 441 1018 l 1,2,3
 469 1040 469 1040 511 1064 c 128,-1,4
 553 1088 553 1088 602 1109 c 128,-1,5
 651 1130 651 1130 704.5 1144 c 128,-1,6
 758 1158 758 1158 810 1160 c 0,7,8
 915 1163 915 1163 987 1131.5 c 128,-1,9
 1059 1100 1059 1100 1102 1025 c 1,10,11
 1128 1044 1128 1044 1168.5 1067.5 c 128,-1,12
 1209 1091 1209 1091 1259.5 1111.5 c 128,-1,13
 1310 1132 1310 1132 1368.5 1146 c 128,-1,14
 1427 1160 1427 1160 1489 1160 c 0,15,16
 1577 1160 1577 1160 1645.5 1138 c 128,-1,17
 1714 1116 1714 1116 1761.5 1064 c 128,-1,18
 1809 1012 1809 1012 1834 927 c 128,-1,19
 1859 842 1859 842 1859 717 c 2,20,-1
 1859 0 l 1,21,-1
 1535 0 l 1,22,-1
 1535 644 l 2,23,24
 1535 712 1535 712 1528.5 759 c 128,-1,25
 1522 806 1522 806 1504 835.5 c 128,-1,26
 1486 865 1486 865 1455 877.5 c 128,-1,27
 1424 890 1424 890 1375 889 c 0,28,29
 1346 889 1346 889 1316.5 882 c 128,-1,30
 1287 875 1287 875 1259 863.5 c 128,-1,31
 1231 852 1231 852 1205.5 837 c 128,-1,32
 1180 822 1180 822 1160 806 c 1,33,34
 1162 783 1162 783 1163 758.5 c 128,-1,35
 1164 734 1164 734 1164 708 c 2,36,-1
 1164 0 l 1,37,-1
 840 0 l 1,38,-1
 840 643 l 2,39,40
 840 713 840 713 832.5 760.5 c 128,-1,41
 825 808 825 808 807 836.5 c 128,-1,42
 789 865 789 865 758.5 877.5 c 128,-1,43
 728 890 728 890 682 889 c 0,44,45
 662 889 662 889 634.5 884 c 128,-1,46
 607 879 607 879 577.5 868.5 c 128,-1,47
 548 858 548 858 518.5 841.5 c 128,-1,48
 489 825 489 825 464 803 c 1,49,-1
 464 0 l 1,50,-1
 140 0 l 1,51,-1
 140 1138 l 1,0,-1
EndSplineSet
EndChar

StartChar: n
Encoding: 110 110 80
Width: 1302
Flags: W
LayerCount: 2
Fore
SplineSet
140 1138 m 1,0,-1
 434 1138 l 1,1,-1
 441 1018 l 1,2,3
 470 1040 470 1040 511.5 1064.5 c 128,-1,4
 553 1089 553 1089 601.5 1109.5 c 128,-1,5
 650 1130 650 1130 703.5 1143.5 c 128,-1,6
 757 1157 757 1157 809 1159 c 0,7,8
 899 1162 899 1162 966 1140 c 128,-1,9
 1033 1118 1033 1118 1077.5 1065.5 c 128,-1,10
 1122 1013 1122 1013 1144 927 c 128,-1,11
 1166 841 1166 841 1166 716 c 2,12,-1
 1166 0 l 1,13,-1
 842 0 l 1,14,-1
 842 647 l 2,15,16
 842 716 842 716 834.5 763 c 128,-1,17
 827 810 827 810 808.5 838.5 c 128,-1,18
 790 867 790 867 759 878.5 c 128,-1,19
 728 890 728 890 681 889 c 0,20,21
 659 889 659 889 631.5 884 c 128,-1,22
 604 879 604 879 575 868.5 c 128,-1,23
 546 858 546 858 517 842 c 128,-1,24
 488 826 488 826 464 804 c 1,25,-1
 464 0 l 1,26,-1
 140 0 l 1,27,-1
 140 1138 l 1,0,-1
EndSplineSet
EndChar

StartChar: o
Encoding: 111 111 81
Width: 1259
Flags: W
LayerCount: 2
Fore
SplineSet
69 594 m 0,0,1
 71 731 71 731 114.5 836 c 128,-1,2
 158 941 158 941 234 1012 c 128,-1,3
 310 1083 310 1083 413.5 1119.5 c 128,-1,4
 517 1156 517 1156 640 1156 c 0,5,6
 793 1156 793 1156 898.5 1106.5 c 128,-1,7
 1004 1057 1004 1057 1069.5 973 c 128,-1,8
 1135 889 1135 889 1163.5 778.5 c 128,-1,9
 1192 668 1192 668 1190 546 c 0,10,11
 1188 409 1188 409 1144.5 304 c 128,-1,12
 1101 199 1101 199 1025 128 c 128,-1,13
 949 57 949 57 845.5 20.5 c 128,-1,14
 742 -16 742 -16 619 -16 c 0,15,16
 467 -16 467 -16 361.5 33.5 c 128,-1,17
 256 83 256 83 190.5 167 c 128,-1,18
 125 251 125 251 96 361.5 c 128,-1,19
 67 472 67 472 69 594 c 0,0,1
627 211 m 256,20,21
 687 210 687 210 730 233 c 128,-1,22
 773 256 773 256 800.5 301 c 128,-1,23
 828 346 828 346 841 411.5 c 128,-1,24
 854 477 854 477 854 562 c 0,25,26
 854 632 854 632 842 698 c 128,-1,27
 830 764 830 764 804 814.5 c 128,-1,28
 778 865 778 865 735.5 895.5 c 128,-1,29
 693 926 693 926 633 927 c 0,30,31
 573 927 573 927 529.5 904.5 c 128,-1,32
 486 882 486 882 458.5 838 c 128,-1,33
 431 794 431 794 418 730 c 128,-1,34
 405 666 405 666 405 585 c 0,35,36
 405 513 405 513 417 445.5 c 128,-1,37
 429 378 429 378 456 326.5 c 128,-1,38
 483 275 483 275 525 243.5 c 128,-1,39
 567 212 567 212 627 211 c 256,20,21
EndSplineSet
Substitution2: "Single Substitution lookup 16 subtable" ordmasculine
Substitution2: "'aalt' Access All Alternates in Latin lookup 0 subtable" ordmasculine
EndChar

StartChar: p
Encoding: 112 112 82
Width: 1292
Flags: W
LayerCount: 2
Fore
SplineSet
458 -139 m 1,0,-1
 458 -506 l 1,1,-1
 134 -506 l 1,2,-1
 134 1140 l 1,3,-1
 437 1140 l 1,4,-1
 437 1025 l 1,5,6
 456 1044 456 1044 485 1067 c 128,-1,7
 514 1090 514 1090 554.5 1110 c 128,-1,8
 595 1130 595 1130 648 1143 c 128,-1,9
 701 1156 701 1156 770 1156 c 0,10,11
 861 1156 861 1156 943 1123 c 128,-1,12
 1025 1090 1025 1090 1087.5 1022.5 c 128,-1,13
 1150 955 1150 955 1187 853 c 128,-1,14
 1224 751 1224 751 1224 612 c 0,15,16
 1224 469 1224 469 1182 353.5 c 128,-1,17
 1140 238 1140 238 1064 155.5 c 128,-1,18
 988 73 988 73 880.5 28.5 c 128,-1,19
 773 -16 773 -16 643 -16 c 0,20,21
 583 -16 583 -16 535.5 -6.5 c 128,-1,22
 488 3 488 3 454 15 c 1,23,-1
 458 -139 l 1,0,-1
458 254 m 1,24,25
 487 228 487 228 532.5 218.5 c 128,-1,26
 578 209 578 209 630 209 c 0,27,28
 684 209 684 209 730.5 234 c 128,-1,29
 777 259 777 259 811 307.5 c 128,-1,30
 845 356 845 356 864.5 426.5 c 128,-1,31
 884 497 884 497 884 588 c 0,32,33
 885 682 885 682 869.5 745 c 128,-1,34
 854 808 854 808 825.5 846 c 128,-1,35
 797 884 797 884 757 899.5 c 128,-1,36
 717 915 717 915 668 915 c 0,37,38
 636 915 636 915 606 909.5 c 128,-1,39
 576 904 576 904 549 894 c 128,-1,40
 522 884 522 884 498.5 871.5 c 128,-1,41
 475 859 475 859 458 846 c 1,42,-1
 458 254 l 1,24,25
EndSplineSet
EndChar

StartChar: q
Encoding: 113 113 83
Width: 1292
Flags: W
LayerCount: 2
Fore
SplineSet
522 -16 m 0,0,1
 431 -16 431 -16 349 17 c 128,-1,2
 267 50 267 50 204.5 117.5 c 128,-1,3
 142 185 142 185 105 287 c 128,-1,4
 68 389 68 389 68 528 c 0,5,6
 68 670 68 670 110 786 c 128,-1,7
 152 902 152 902 228.5 984.5 c 128,-1,8
 305 1067 305 1067 412 1111.5 c 128,-1,9
 519 1156 519 1156 649 1156 c 0,10,11
 688 1156 688 1156 727.5 1151.5 c 128,-1,12
 767 1147 767 1147 803 1139.5 c 128,-1,13
 839 1132 839 1132 870.5 1123.5 c 128,-1,14
 902 1115 902 1115 925 1106 c 1,15,-1
 1158 1140 l 1,16,-1
 1158 -506 l 1,17,-1
 834 -506 l 1,18,-1
 834 -139 l 1,19,-1
 840 100 l 1,20,21
 819 81 819 81 790 60.5 c 128,-1,22
 761 40 761 40 722 23 c 128,-1,23
 683 6 683 6 633.5 -5 c 128,-1,24
 584 -16 584 -16 522 -16 c 0,0,1
624 225 m 0,25,26
 687 225 687 225 743 245.5 c 128,-1,27
 799 266 799 266 834 293 c 1,28,-1
 834 881 l 1,29,30
 805 908 805 908 759.5 917 c 128,-1,31
 714 926 714 926 662 926 c 0,32,33
 608 926 608 926 561.5 901.5 c 128,-1,34
 515 877 515 877 481.5 830 c 128,-1,35
 448 783 448 783 428.5 713 c 128,-1,36
 409 643 409 643 408 552 c 0,37,38
 407 457 407 457 422.5 394 c 128,-1,39
 438 331 438 331 466.5 293.5 c 128,-1,40
 495 256 495 256 535 240.5 c 128,-1,41
 575 225 575 225 624 225 c 0,25,26
EndSplineSet
EndChar

StartChar: r
Encoding: 114 114 84
Width: 875
Flags: W
LayerCount: 2
Fore
SplineSet
136 1138 m 1,0,-1
 423 1138 l 1,1,-1
 437 978 l 1,2,3
 455 1012 455 1012 487.5 1044.5 c 128,-1,4
 520 1077 520 1077 563 1102.5 c 128,-1,5
 606 1128 606 1128 657.5 1143.5 c 128,-1,6
 709 1159 709 1159 764 1159 c 0,7,8
 792 1159 792 1159 814 1156 c 128,-1,9
 836 1153 836 1153 850 1145 c 1,10,-1
 850 831 l 1,11,12
 842 835 842 835 831 840 c 128,-1,13
 820 845 820 845 804.5 849.5 c 128,-1,14
 789 854 789 854 767.5 856.5 c 128,-1,15
 746 859 746 859 716 859 c 0,16,17
 668 859 668 859 628.5 849 c 128,-1,18
 589 839 589 839 557.5 823.5 c 128,-1,19
 526 808 526 808 502 789.5 c 128,-1,20
 478 771 478 771 460 754 c 1,21,-1
 460 0 l 1,22,-1
 136 0 l 1,23,-1
 136 1138 l 1,0,-1
EndSplineSet
EndChar

StartChar: s
Encoding: 115 115 85
Width: 994
Flags: W
LayerCount: 2
Fore
SplineSet
108 306 m 1,0,1
 120 296 120 296 152.5 280 c 128,-1,2
 185 264 185 264 230.5 249 c 128,-1,3
 276 234 276 234 330 223.5 c 128,-1,4
 384 213 384 213 440 213 c 0,5,6
 528 212 528 212 570 231.5 c 128,-1,7
 612 251 612 251 612 302 c 0,8,9
 612 327 612 327 592.5 347.5 c 128,-1,10
 573 368 573 368 539 388 c 128,-1,11
 505 408 505 408 459 429 c 128,-1,12
 413 450 413 450 361 474 c 0,13,14
 294 505 294 505 241.5 541 c 128,-1,15
 189 577 189 577 153 620 c 128,-1,16
 117 663 117 663 98.5 714.5 c 128,-1,17
 80 766 80 766 80 828 c 0,18,19
 80 909 80 909 115.5 970.5 c 128,-1,20
 151 1032 151 1032 212.5 1073.5 c 128,-1,21
 274 1115 274 1115 358.5 1135.5 c 128,-1,22
 443 1156 443 1156 541 1156 c 0,23,24
 604 1156 604 1156 657.5 1149 c 128,-1,25
 711 1142 711 1142 753 1132 c 128,-1,26
 795 1122 795 1122 824.5 1110.5 c 128,-1,27
 854 1099 854 1099 870 1090 c 1,28,-1
 837 849 l 1,29,30
 820 864 820 864 792 878 c 128,-1,31
 764 892 764 892 729 903 c 128,-1,32
 694 914 694 914 655 920.5 c 128,-1,33
 616 927 616 927 579 927 c 0,34,35
 479 927 479 927 435.5 906.5 c 128,-1,36
 392 886 392 886 391 838 c 0,37,38
 391 812 391 812 407.5 791 c 128,-1,39
 424 770 424 770 454 751.5 c 128,-1,40
 484 733 484 733 525.5 715.5 c 128,-1,41
 567 698 567 698 615 680 c 1,42,43
 681 653 681 653 739 618.5 c 128,-1,44
 797 584 797 584 839.5 541 c 128,-1,45
 882 498 882 498 906.5 446 c 128,-1,46
 931 394 931 394 931 332 c 0,47,48
 931 243 931 243 899.5 177.5 c 128,-1,49
 868 112 868 112 809 69 c 128,-1,50
 750 26 750 26 666.5 5 c 128,-1,51
 583 -16 583 -16 480 -16 c 0,52,53
 417 -16 417 -16 355 -8 c 128,-1,54
 293 0 293 0 239 12.5 c 128,-1,55
 185 25 185 25 142.5 41 c 128,-1,56
 100 57 100 57 76 73 c 1,57,-1
 108 306 l 1,0,1
EndSplineSet
EndChar

StartChar: t
Encoding: 116 116 86
Width: 874
Flags: W
LayerCount: 2
Fore
SplineSet
183 918 m 1,0,-1
 47 918 l 1,1,-1
 47 1093 l 1,2,3
 84 1104 84 1104 114 1113.5 c 128,-1,4
 144 1123 144 1123 167 1134.5 c 128,-1,5
 190 1146 190 1146 206.5 1162 c 128,-1,6
 223 1178 223 1178 233 1202 c 0,7,8
 240 1220 240 1220 249.5 1243 c 128,-1,9
 259 1266 259 1266 269 1292 c 128,-1,10
 279 1318 279 1318 289 1345.5 c 128,-1,11
 299 1373 299 1373 309 1400 c 1,12,-1
 507 1400 l 1,13,-1
 507 1140 l 1,14,-1
 813 1140 l 1,15,-1
 813 918 l 1,16,-1
 507 918 l 1,17,-1
 507 471 l 2,18,19
 507 386 507 386 513.5 337 c 128,-1,20
 520 288 520 288 535.5 263.5 c 128,-1,21
 551 239 551 239 576 233 c 128,-1,22
 601 227 601 227 637 227 c 0,23,24
 657 227 657 227 682 231 c 128,-1,25
 707 235 707 235 731.5 241.5 c 128,-1,26
 756 248 756 248 777.5 256.5 c 128,-1,27
 799 265 799 265 812 275 c 1,28,-1
 851 94 l 1,29,30
 831 75 831 75 797 55.5 c 128,-1,31
 763 36 763 36 719 20 c 128,-1,32
 675 4 675 4 622.5 -6 c 128,-1,33
 570 -16 570 -16 513 -16 c 0,34,35
 421 -16 421 -16 358 4 c 128,-1,36
 295 24 295 24 256 67.5 c 128,-1,37
 217 111 217 111 200 179 c 128,-1,38
 183 247 183 247 183 342 c 2,39,-1
 183 918 l 1,0,-1
EndSplineSet
EndChar

StartChar: u
Encoding: 117 117 87
Width: 1279
Flags: W
LayerCount: 2
Fore
SplineSet
135 1140 m 1,0,-1
 459 1140 l 1,1,-1
 459 477 l 2,2,3
 459 398 459 398 469 350 c 128,-1,4
 479 302 479 302 500 275.5 c 128,-1,5
 521 249 521 249 553 240 c 128,-1,6
 585 231 585 231 629 231 c 0,7,8
 656 231 656 231 684 237 c 128,-1,9
 712 243 712 243 736.5 252.5 c 128,-1,10
 761 262 761 262 781.5 273 c 128,-1,11
 802 284 802 284 814 294 c 1,12,-1
 814 1140 l 1,13,-1
 1138 1140 l 1,14,-1
 1138 -16 l 1,15,-1
 920 -16 l 2,16,17
 883 -16 883 -16 864 -5.5 c 128,-1,18
 845 5 845 5 845 42 c 2,19,-1
 845 93 l 1,20,21
 814 70 814 70 773.5 50 c 128,-1,22
 733 30 733 30 689 15.5 c 128,-1,23
 645 1 645 1 599.5 -7.5 c 128,-1,24
 554 -16 554 -16 512 -16 c 0,25,26
 389 -16 389 -16 315 19.5 c 128,-1,27
 241 55 241 55 201 119.5 c 128,-1,28
 161 184 161 184 148 274.5 c 128,-1,29
 135 365 135 365 135 474 c 2,30,-1
 135 1140 l 1,0,-1
EndSplineSet
EndChar

StartChar: v
Encoding: 118 118 88
Width: 1136
Flags: W
LayerCount: 2
Fore
SplineSet
-16 1139 m 1,0,-1
 334 1139 l 1,1,-1
 502 593 l 1,2,-1
 573 313 l 1,3,-1
 642 593 l 1,4,-1
 809 1139 l 1,5,-1
 1152 1139 l 1,6,-1
 718 -16 l 1,7,-1
 416 -16 l 1,8,-1
 -16 1139 l 1,0,-1
EndSplineSet
EndChar

StartChar: w
Encoding: 119 119 89
Width: 1710
Flags: W
LayerCount: 2
Fore
SplineSet
-15 1139 m 1,0,-1
 307 1139 l 1,1,-1
 444 608 l 1,2,-1
 499 362 l 1,3,-1
 558 607 l 1,4,-1
 708 1139 l 1,5,-1
 1027 1139 l 1,6,-1
 1174 608 l 1,7,-1
 1229 358 l 1,8,-1
 1282 606 l 1,9,-1
 1412 1139 l 1,10,-1
 1725 1139 l 1,11,-1
 1365 -16 l 1,12,-1
 1075 -16 l 1,13,-1
 909 562 l 1,14,-1
 859 784 l 1,15,-1
 806 562 l 1,16,-1
 636 -16 l 1,17,-1
 338 -16 l 1,18,-1
 -15 1139 l 1,0,-1
EndSplineSet
EndChar

StartChar: x
Encoding: 120 120 90
Width: 1166
Flags: W
LayerCount: 2
Fore
SplineSet
402 576 m 1,0,-1
 1 1140 l 1,1,-1
 368 1140 l 1,2,-1
 556 853 l 1,3,-1
 593 790 l 1,4,-1
 626 854 l 1,5,-1
 806 1140 l 1,6,-1
 1171 1140 l 1,7,-1
 766 582 l 1,8,-1
 1179 0 l 1,9,-1
 809 0 l 1,10,-1
 609 313 l 1,11,-1
 577 364 l 1,12,-1
 551 311 l 1,13,-1
 372 0 l 1,14,-1
 1 0 l 1,15,-1
 402 576 l 1,0,-1
EndSplineSet
EndChar

StartChar: y
Encoding: 121 121 91
Width: 1148
Flags: W
LayerCount: 2
Fore
SplineSet
122 -236 m 1,0,1
 130 -239 130 -239 143 -241 c 128,-1,2
 156 -243 156 -243 169.5 -244.5 c 128,-1,3
 183 -246 183 -246 196.5 -246.5 c 128,-1,4
 210 -247 210 -247 219 -247 c 0,5,6
 234 -247 234 -247 256 -246 c 128,-1,7
 278 -245 278 -245 304 -238 c 128,-1,8
 330 -231 330 -231 358 -216.5 c 128,-1,9
 386 -202 386 -202 412.5 -174.5 c 128,-1,10
 439 -147 439 -147 462.5 -104.5 c 128,-1,11
 486 -62 486 -62 503 0 c 1,12,-1
 406 0 l 1,13,-1
 -7 1140 l 1,14,-1
 344 1140 l 1,15,-1
 524 553 l 1,16,-1
 594 303 l 1,17,-1
 657 553 l 1,18,-1
 814 1140 l 1,19,-1
 1162 1140 l 1,20,21
 1125 1031 1125 1031 1084 907.5 c 128,-1,22
 1043 784 1043 784 1002.5 661 c 128,-1,23
 962 538 962 538 923.5 422 c 128,-1,24
 885 306 885 306 853.5 212.5 c 128,-1,25
 822 119 822 119 800.5 54.5 c 128,-1,26
 779 -10 779 -10 772 -31 c 0,27,28
 737 -133 737 -133 696.5 -210 c 128,-1,29
 656 -287 656 -287 610 -342 c 128,-1,30
 564 -397 564 -397 514 -431.5 c 128,-1,31
 464 -466 464 -466 410 -484 c 0,32,33
 395 -489 395 -489 374 -493.5 c 128,-1,34
 353 -498 353 -498 330.5 -501 c 128,-1,35
 308 -504 308 -504 287.5 -505.5 c 128,-1,36
 267 -507 267 -507 253 -507 c 0,37,38
 242 -507 242 -507 221.5 -506 c 128,-1,39
 201 -505 201 -505 180.5 -503 c 128,-1,40
 160 -501 160 -501 143 -498.5 c 128,-1,41
 126 -496 126 -496 122 -493 c 1,42,-1
 122 -236 l 1,43,-1
 122 -236 l 1,0,1
EndSplineSet
EndChar

StartChar: z
Encoding: 122 122 92
Width: 1064
Flags: W
LayerCount: 2
Fore
SplineSet
49 83 m 1,0,-1
 538 831 l 1,1,-1
 595 914 l 1,2,-1
 114 914 l 1,3,-1
 117 1140 l 1,4,-1
 991 1140 l 1,5,-1
 1026 1045 l 1,6,-1
 550 310 l 1,7,-1
 489 226 l 1,8,-1
 1002 226 l 1,9,-1
 1002 0 l 1,10,-1
 91 0 l 1,11,-1
 49 83 l 1,0,-1
EndSplineSet
EndChar

StartChar: braceleft
Encoding: 123 123 93
Width: 948
Flags: W
LayerCount: 2
Fore
SplineSet
316 543 m 2,0,1
 316 571 316 571 290 594.5 c 128,-1,2
 264 618 264 618 225.5 636 c 128,-1,3
 187 654 187 654 142.5 665.5 c 128,-1,4
 98 677 98 677 60 681 c 1,5,-1
 60 874 l 1,6,7
 98 878 98 878 142.5 887.5 c 128,-1,8
 187 897 187 897 225.5 913 c 128,-1,9
 264 929 264 929 290 951.5 c 128,-1,10
 316 974 316 974 316 1003 c 2,11,-1
 316 1486 l 2,12,13
 316 1560 316 1560 329 1611.5 c 128,-1,14
 342 1663 342 1663 369.5 1695.5 c 128,-1,15
 397 1728 397 1728 439 1743 c 128,-1,16
 481 1758 481 1758 539 1758 c 0,17,18
 621 1758 621 1758 705 1750 c 128,-1,19
 789 1742 789 1742 854 1734 c 1,20,-1
 854 1560 l 1,21,-1
 595 1560 l 1,22,-1
 595 995 l 2,23,24
 595 962 595 962 584.5 936 c 128,-1,25
 574 910 574 910 556 889 c 0,26,27
 541 871 541 871 517.5 855 c 128,-1,28
 494 839 494 839 466 825 c 128,-1,29
 438 811 438 811 407.5 798.5 c 128,-1,30
 377 786 377 786 348 776 c 1,31,32
 377 766 377 766 407 754 c 128,-1,33
 437 742 437 742 464.5 728 c 128,-1,34
 492 714 492 714 515.5 697.5 c 128,-1,35
 539 681 539 681 556 663 c 0,36,37
 575 642 575 642 585 616.5 c 128,-1,38
 595 591 595 591 595 559 c 2,39,-1
 595 -18 l 1,40,-1
 854 -18 l 1,41,-1
 854 -178 l 1,42,43
 789 -196 789 -196 705 -204.5 c 128,-1,44
 621 -213 621 -213 539 -213 c 0,45,46
 481 -213 481 -213 439 -198 c 128,-1,47
 397 -183 397 -183 369.5 -150.5 c 128,-1,48
 342 -118 342 -118 329 -66 c 128,-1,49
 316 -14 316 -14 316 60 c 2,50,-1
 316 543 l 2,0,1
EndSplineSet
EndChar

StartChar: bar
Encoding: 124 124 94
Width: 855
Flags: W
LayerCount: 2
Fore
SplineSet
297 1780 m 1,0,-1
 558 1780 l 1,1,-1
 558 -187 l 1,2,-1
 297 -187 l 1,3,-1
 297 1780 l 1,0,-1
EndSplineSet
EndChar

StartChar: asciitilde
Encoding: 126 126 96
Width: 1438
Flags: W
LayerCount: 2
Fore
SplineSet
200 831 m 1,0,1
 209 861 209 861 238 899.5 c 128,-1,2
 267 938 267 938 311 972.5 c 128,-1,3
 355 1007 355 1007 410.5 1030.5 c 128,-1,4
 466 1054 466 1054 529 1054 c 0,5,6
 581 1054 581 1054 620 1042.5 c 128,-1,7
 659 1031 659 1031 690 1013.5 c 128,-1,8
 721 996 721 996 747 975.5 c 128,-1,9
 773 955 773 955 799 937.5 c 128,-1,10
 825 920 825 920 853.5 908.5 c 128,-1,11
 882 897 882 897 919 897 c 0,12,13
 955 897 955 897 985 907 c 128,-1,14
 1015 917 1015 917 1039.5 932.5 c 128,-1,15
 1064 948 1064 948 1084 966.5 c 128,-1,16
 1104 985 1104 985 1120 1002 c 1,17,-1
 1238 859 l 1,18,19
 1228 825 1228 825 1198.5 787.5 c 128,-1,20
 1169 750 1169 750 1125.5 718.5 c 128,-1,21
 1082 687 1082 687 1025.5 666.5 c 128,-1,22
 969 646 969 646 905 646 c 0,23,24
 853 646 853 646 816 657.5 c 128,-1,25
 779 669 779 669 750 687 c 128,-1,26
 721 705 721 705 697.5 725 c 128,-1,27
 674 745 674 745 649.5 763 c 128,-1,28
 625 781 625 781 596 792.5 c 128,-1,29
 567 804 567 804 528 804 c 0,30,31
 493 804 493 804 464 794 c 128,-1,32
 435 784 435 784 411 769 c 128,-1,33
 387 754 387 754 367.5 735.5 c 128,-1,34
 348 717 348 717 332 699 c 1,35,-1
 200 831 l 1,0,1
EndSplineSet
EndChar

StartChar: exclam
Encoding: 33 33 98
Width: 635
Flags: W
LayerCount: 2
Fore
SplineSet
142 1780 m 1,0,-1
 501 1780 l 1,1,-1
 466 562 l 1,2,-1
 189 562 l 1,3,-1
 142 1780 l 1,0,-1
119 175 m 0,4,5
 118 218 118 218 134.5 257 c 128,-1,6
 151 296 151 296 179 325.5 c 128,-1,7
 207 355 207 355 245 372.5 c 128,-1,8
 283 390 283 390 326 390 c 0,9,10
 371 390 371 390 406 375 c 128,-1,11
 441 360 441 360 465.5 333.5 c 128,-1,12
 490 307 490 307 503 271 c 128,-1,13
 516 235 516 235 516 194 c 0,14,15
 516 150 516 150 500.5 111 c 128,-1,16
 485 72 485 72 457 42.5 c 128,-1,17
 429 13 429 13 391 -4.5 c 128,-1,18
 353 -22 353 -22 309 -22 c 0,19,20
 268 -22 268 -22 233 -7 c 128,-1,21
 198 8 198 8 173 34.5 c 128,-1,22
 148 61 148 61 133.5 97 c 128,-1,23
 119 133 119 133 119 175 c 0,4,5
EndSplineSet
EndChar

StartChar: sterling
Encoding: 163 163 99
Width: 1537
Flags: W
LayerCount: 2
Fore
SplineSet
101 118 m 0,0,1
 101 159 101 159 122.5 192 c 128,-1,2
 144 225 144 225 181 248 c 128,-1,3
 218 271 218 271 266 284 c 128,-1,4
 314 297 314 297 368 299 c 1,5,6
 378 313 378 313 385 342.5 c 128,-1,7
 392 372 392 372 396 407.5 c 128,-1,8
 400 443 400 443 401.5 478 c 128,-1,9
 403 513 403 513 403 538 c 2,10,-1
 403 711 l 1,11,-1
 227 711 l 1,12,-1
 227 897 l 1,13,-1
 403 897 l 1,14,-1
 403 1025 l 2,15,16
 403 1136 403 1136 436 1230.5 c 128,-1,17
 469 1325 469 1325 535 1393 c 128,-1,18
 601 1461 601 1461 700.5 1499.5 c 128,-1,19
 800 1538 800 1538 932 1538 c 0,20,21
 996 1538 996 1538 1051.5 1529.5 c 128,-1,22
 1107 1521 1107 1521 1153.5 1507.5 c 128,-1,23
 1200 1494 1200 1494 1237 1476 c 128,-1,24
 1274 1458 1274 1458 1303 1440 c 1,25,-1
 1173 1204 l 1,26,27
 1157 1217 1157 1217 1134.5 1231.5 c 128,-1,28
 1112 1246 1112 1246 1085 1258 c 128,-1,29
 1058 1270 1058 1270 1026 1278 c 128,-1,30
 994 1286 994 1286 959 1286 c 0,31,32
 932 1286 932 1286 904.5 1283 c 128,-1,33
 877 1280 877 1280 852 1269.5 c 128,-1,34
 827 1259 827 1259 805.5 1238.5 c 128,-1,35
 784 1218 784 1218 768 1182 c 128,-1,36
 752 1146 752 1146 743 1093 c 128,-1,37
 734 1040 734 1040 734 965 c 2,38,-1
 734 897 l 1,39,-1
 1040 897 l 1,40,-1
 1040 711 l 1,41,-1
 734 711 l 1,42,-1
 734 558 l 2,43,44
 734 495 734 495 726.5 447.5 c 128,-1,45
 719 400 719 400 704.5 363.5 c 128,-1,46
 690 327 690 327 670 299.5 c 128,-1,47
 650 272 650 272 626 251 c 1,48,49
 665 243 665 243 699 234 c 128,-1,50
 733 225 733 225 768.5 217 c 128,-1,51
 804 209 804 209 843.5 203.5 c 128,-1,52
 883 198 883 198 933 198 c 0,53,54
 992 198 992 198 1034 209 c 128,-1,55
 1076 220 1076 220 1102.5 240.5 c 128,-1,56
 1129 261 1129 261 1141.5 289 c 128,-1,57
 1154 317 1154 317 1154 352 c 0,58,59
 1154 404 1154 404 1134 442 c 128,-1,60
 1114 480 1114 480 1090 496 c 1,61,-1
 1311 611 l 1,62,63
 1329 600 1329 600 1353.5 582 c 128,-1,64
 1378 564 1378 564 1400.5 533.5 c 128,-1,65
 1423 503 1423 503 1439 458 c 128,-1,66
 1455 413 1455 413 1455 349 c 0,67,68
 1455 266 1455 266 1426.5 198 c 128,-1,69
 1398 130 1398 130 1340.5 82 c 128,-1,70
 1283 34 1283 34 1196 8 c 128,-1,71
 1109 -18 1109 -18 992 -18 c 0,72,73
 882 -18 882 -18 801.5 -1 c 128,-1,74
 721 16 721 16 659.5 36 c 128,-1,75
 598 56 598 56 549.5 73 c 128,-1,76
 501 90 501 90 455 89 c 1,77,78
 440 72 440 72 417 55 c 128,-1,79
 394 38 394 38 366 24 c 128,-1,80
 338 10 338 10 307.5 1 c 128,-1,81
 277 -8 277 -8 247 -8 c 0,82,83
 223 -8 223 -8 197 -1.5 c 128,-1,84
 171 5 171 5 150 20 c 128,-1,85
 129 35 129 35 115 59 c 128,-1,86
 101 83 101 83 101 118 c 0,0,1
EndSplineSet
EndChar

StartChar: brokenbar
Encoding: 166 166 100
Width: 855
Flags: W
LayerCount: 2
Fore
SplineSet
297 1780 m 1,0,-1
 558 1780 l 1,1,-1
 558 966 l 1,2,-1
 297 966 l 1,3,-1
 297 1780 l 1,0,-1
297 617 m 1,4,-1
 558 617 l 1,5,-1
 558 -186 l 1,6,-1
 297 -186 l 1,7,-1
 297 617 l 1,4,-1
EndSplineSet
EndChar

StartChar: dieresis
Encoding: 168 168 101
Width: 977
Flags: W
LayerCount: 2
Fore
SplineSet
726 1304 m 0,0,1
 687 1304 687 1304 655.5 1317 c 128,-1,2
 624 1330 624 1330 601.5 1353 c 128,-1,3
 579 1376 579 1376 567 1407.5 c 128,-1,4
 555 1439 555 1439 555 1477 c 256,5,6
 555 1515 555 1515 570 1549.5 c 128,-1,7
 585 1584 585 1584 610.5 1609.5 c 128,-1,8
 636 1635 636 1635 671 1650 c 128,-1,9
 706 1665 706 1665 745 1665 c 0,10,11
 787 1665 787 1665 818.5 1652 c 128,-1,12
 850 1639 850 1639 871 1616 c 128,-1,13
 892 1593 892 1593 902.5 1561.5 c 128,-1,14
 913 1530 913 1530 913 1493 c 0,15,16
 913 1454 913 1454 898.5 1419.5 c 128,-1,17
 884 1385 884 1385 859 1359.5 c 128,-1,18
 834 1334 834 1334 800 1319 c 128,-1,19
 766 1304 766 1304 726 1304 c 0,0,1
234 1304 m 0,20,21
 195 1304 195 1304 164 1317 c 128,-1,22
 133 1330 133 1330 110.5 1353 c 128,-1,23
 88 1376 88 1376 76 1407.5 c 128,-1,24
 64 1439 64 1439 64 1477 c 256,25,26
 64 1515 64 1515 79 1549.5 c 128,-1,27
 94 1584 94 1584 119.5 1609.5 c 128,-1,28
 145 1635 145 1635 179.5 1650 c 128,-1,29
 214 1665 214 1665 253 1665 c 0,30,31
 295 1665 295 1665 326.5 1652 c 128,-1,32
 358 1639 358 1639 379 1616 c 128,-1,33
 400 1593 400 1593 411 1561.5 c 128,-1,34
 422 1530 422 1530 422 1493 c 0,35,36
 422 1454 422 1454 407.5 1419.5 c 128,-1,37
 393 1385 393 1385 368 1359.5 c 128,-1,38
 343 1334 343 1334 308.5 1319 c 128,-1,39
 274 1304 274 1304 234 1304 c 0,20,21
EndSplineSet
EndChar

StartChar: copyright
Encoding: 169 169 102
Width: 2083
Flags: W
LayerCount: 2
Fore
SplineSet
1041 242 m 256,0,1
 920 242 920 242 808 273.5 c 128,-1,2
 696 305 696 305 599.5 362 c 128,-1,3
 503 419 503 419 424 499.5 c 128,-1,4
 345 580 345 580 288.5 678 c 128,-1,5
 232 776 232 776 201.5 888.5 c 128,-1,6
 171 1001 171 1001 171 1123 c 0,7,8
 171 1244 171 1244 201.5 1356.5 c 128,-1,9
 232 1469 232 1469 288.5 1566.5 c 128,-1,10
 345 1664 345 1664 424 1744 c 128,-1,11
 503 1824 503 1824 599.5 1881 c 128,-1,12
 696 1938 696 1938 807.5 1969 c 128,-1,13
 919 2000 919 2000 1041 2000 c 0,14,15
 1162 2000 1162 2000 1274 1969 c 128,-1,16
 1386 1938 1386 1938 1483 1881 c 128,-1,17
 1580 1824 1580 1824 1659 1744 c 128,-1,18
 1738 1664 1738 1664 1794 1566.5 c 128,-1,19
 1850 1469 1850 1469 1881 1356.5 c 128,-1,20
 1912 1244 1912 1244 1912 1123 c 0,21,22
 1912 1001 1912 1001 1881 888.5 c 128,-1,23
 1850 776 1850 776 1794 678 c 128,-1,24
 1738 580 1738 580 1659 499.5 c 128,-1,25
 1580 419 1580 419 1483 362 c 128,-1,26
 1386 305 1386 305 1274 273.5 c 128,-1,27
 1162 242 1162 242 1041 242 c 256,0,1
1041 371 m 256,28,29
 1146 371 1146 371 1240.5 398 c 128,-1,30
 1335 425 1335 425 1416 474 c 128,-1,31
 1497 523 1497 523 1562 591.5 c 128,-1,32
 1627 660 1627 660 1673 744 c 128,-1,33
 1719 828 1719 828 1744 923.5 c 128,-1,34
 1769 1019 1769 1019 1769 1123 c 0,35,36
 1769 1226 1769 1226 1744 1322 c 128,-1,37
 1719 1418 1719 1418 1673 1501.5 c 128,-1,38
 1627 1585 1627 1585 1562 1653.5 c 128,-1,39
 1497 1722 1497 1722 1416 1771 c 128,-1,40
 1335 1820 1335 1820 1240.5 1847 c 128,-1,41
 1146 1874 1146 1874 1041 1874 c 256,42,43
 936 1874 936 1874 841.5 1847 c 128,-1,44
 747 1820 747 1820 666 1771 c 128,-1,45
 585 1722 585 1722 520 1653.5 c 128,-1,46
 455 1585 455 1585 409 1501.5 c 128,-1,47
 363 1418 363 1418 338 1322 c 128,-1,48
 313 1226 313 1226 313 1123 c 0,49,50
 313 1019 313 1019 338 923.5 c 128,-1,51
 363 828 363 828 409 744 c 128,-1,52
 455 660 455 660 520 591.5 c 128,-1,53
 585 523 585 523 666 474 c 128,-1,54
 747 425 747 425 841.5 398 c 128,-1,55
 936 371 936 371 1041 371 c 256,28,29
1044 634 m 0,56,57
 942 634 942 634 859.5 672 c 128,-1,58
 777 710 777 710 719 775.5 c 128,-1,59
 661 841 661 841 629.5 927.5 c 128,-1,60
 598 1014 598 1014 598 1111 c 0,61,62
 597 1217 597 1217 629 1308.5 c 128,-1,63
 661 1400 661 1400 724 1467 c 128,-1,64
 787 1534 787 1534 879.5 1572 c 128,-1,65
 972 1610 972 1610 1093 1610 c 0,66,67
 1135 1610 1135 1610 1174 1605.5 c 128,-1,68
 1213 1601 1213 1601 1245.5 1594.5 c 128,-1,69
 1278 1588 1278 1588 1303.5 1579.5 c 128,-1,70
 1329 1571 1329 1571 1344 1562 c 1,71,-1
 1301 1356 l 1,72,73
 1285 1368 1285 1368 1261.5 1378 c 128,-1,74
 1238 1388 1238 1388 1209.5 1396 c 128,-1,75
 1181 1404 1181 1404 1149.5 1408.5 c 128,-1,76
 1118 1413 1118 1413 1088 1413 c 0,77,78
 1033 1413 1033 1413 987 1395 c 128,-1,79
 941 1377 941 1377 907.5 1343.5 c 128,-1,80
 874 1310 874 1310 855 1262 c 128,-1,81
 836 1214 836 1214 836 1154 c 0,82,83
 835 1068 835 1068 854.5 1007.5 c 128,-1,84
 874 947 874 947 908.5 909 c 128,-1,85
 943 871 943 871 991.5 853.5 c 128,-1,86
 1040 836 1040 836 1098 836 c 0,87,88
 1174 836 1174 836 1231.5 857.5 c 128,-1,89
 1289 879 1289 879 1323 900 c 1,90,-1
 1370 738 l 1,91,92
 1346 718 1346 718 1311 699.5 c 128,-1,93
 1276 681 1276 681 1233 666.5 c 128,-1,94
 1190 652 1190 652 1142 643 c 128,-1,95
 1094 634 1094 634 1044 634 c 0,56,57
EndSplineSet
EndChar

StartChar: guilsinglleft
Encoding: 8249 8249 104
Width: 1204
Flags: W
LayerCount: 2
Fore
SplineSet
227 739 m 1,0,-1
 885 1160 l 1,1,-1
 962 937 l 1,2,-1
 538 614 l 1,3,-1
 962 294 l 1,4,-1
 885 72 l 1,5,-1
 227 488 l 1,6,-1
 227 739 l 1,0,-1
EndSplineSet
EndChar

StartChar: registered
Encoding: 174 174 105
Width: 2083
Flags: W
LayerCount: 2
Fore
SplineSet
1041 241 m 256,0,1
 920 241 920 241 808 272.5 c 128,-1,2
 696 304 696 304 598.5 361 c 128,-1,3
 501 418 501 418 421.5 498.5 c 128,-1,4
 342 579 342 579 285.5 677 c 128,-1,5
 229 775 229 775 198 887.5 c 128,-1,6
 167 1000 167 1000 167 1122 c 0,7,8
 167 1243 167 1243 198 1355.5 c 128,-1,9
 229 1468 229 1468 285.5 1565.5 c 128,-1,10
 342 1663 342 1663 421.5 1743 c 128,-1,11
 501 1823 501 1823 598.5 1880 c 128,-1,12
 696 1937 696 1937 807.5 1968.5 c 128,-1,13
 919 2000 919 2000 1041 2000 c 0,14,15
 1162 2000 1162 2000 1274.5 1968.5 c 128,-1,16
 1387 1937 1387 1937 1484 1880 c 128,-1,17
 1581 1823 1581 1823 1660.5 1743 c 128,-1,18
 1740 1663 1740 1663 1797 1565.5 c 128,-1,19
 1854 1468 1854 1468 1885 1355.5 c 128,-1,20
 1916 1243 1916 1243 1916 1122 c 0,21,22
 1916 1000 1916 1000 1885 887.5 c 128,-1,23
 1854 775 1854 775 1797 677 c 128,-1,24
 1740 579 1740 579 1660.5 498.5 c 128,-1,25
 1581 418 1581 418 1484 361 c 128,-1,26
 1387 304 1387 304 1274.5 272.5 c 128,-1,27
 1162 241 1162 241 1041 241 c 256,0,1
1041 371 m 256,28,29
 1145 371 1145 371 1239.5 398 c 128,-1,30
 1334 425 1334 425 1415.5 474 c 128,-1,31
 1497 523 1497 523 1563 591.5 c 128,-1,32
 1629 660 1629 660 1675.5 743.5 c 128,-1,33
 1722 827 1722 827 1747.5 922.5 c 128,-1,34
 1773 1018 1773 1018 1773 1122 c 0,35,36
 1773 1277 1773 1277 1717 1413.5 c 128,-1,37
 1661 1550 1661 1550 1562.5 1652 c 128,-1,38
 1464 1754 1464 1754 1330.5 1813 c 128,-1,39
 1197 1872 1197 1872 1041 1872 c 256,40,41
 885 1872 885 1872 751.5 1813 c 128,-1,42
 618 1754 618 1754 519.5 1652 c 128,-1,43
 421 1550 421 1550 365 1413.5 c 128,-1,44
 309 1277 309 1277 309 1122 c 0,45,46
 309 1019 309 1019 334.5 923 c 128,-1,47
 360 827 360 827 406.5 743.5 c 128,-1,48
 453 660 453 660 519 591.5 c 128,-1,49
 585 523 585 523 666.5 474 c 128,-1,50
 748 425 748 425 842.5 398 c 128,-1,51
 937 371 937 371 1041 371 c 256,28,29
702 1605 m 1,52,-1
 793 1605 l 2,53,54
 822 1605 822 1605 848 1605.5 c 128,-1,55
 874 1606 874 1606 903.5 1607 c 128,-1,56
 933 1608 933 1608 969 1609 c 128,-1,57
 1005 1610 1005 1610 1055 1610 c 0,58,59
 1145 1610 1145 1610 1212.5 1589.5 c 128,-1,60
 1280 1569 1280 1569 1324 1532 c 128,-1,61
 1368 1495 1368 1495 1390 1445 c 128,-1,62
 1412 1395 1412 1395 1412 1335 c 0,63,64
 1412 1281 1412 1281 1402.5 1230.5 c 128,-1,65
 1393 1180 1393 1180 1371 1138.5 c 128,-1,66
 1349 1097 1349 1097 1312.5 1065.5 c 128,-1,67
 1276 1034 1276 1034 1221 1018 c 1,68,69
 1258 998 1258 998 1285 966 c 128,-1,70
 1312 934 1312 934 1333.5 896.5 c 128,-1,71
 1355 859 1355 859 1373.5 818.5 c 128,-1,72
 1392 778 1392 778 1413 742 c 0,73,74
 1426 719 1426 719 1439 698 c 128,-1,75
 1452 677 1452 677 1479 643 c 1,76,-1
 1231 643 l 1,77,78
 1215 660 1215 660 1205 681 c 128,-1,79
 1195 702 1195 702 1181 729 c 0,80,81
 1166 759 1166 759 1151 798.5 c 128,-1,82
 1136 838 1136 838 1116.5 876.5 c 128,-1,83
 1097 915 1097 915 1071 946.5 c 128,-1,84
 1045 978 1045 978 1007 993 c 1,85,86
 1002 993 1002 993 990.5 992.5 c 128,-1,87
 979 992 979 992 965.5 992 c 128,-1,88
 952 992 952 992 939 992 c 128,-1,89
 926 992 926 992 917 992 c 1,90,-1
 917 642 l 1,91,-1
 702 642 l 1,92,-1
 702 1605 l 1,52,-1
917 1149 m 1,93,94
 939 1144 939 1144 973.5 1143 c 128,-1,95
 1008 1142 1008 1142 1036 1142 c 0,96,97
 1113 1142 1113 1142 1152.5 1183.5 c 128,-1,98
 1192 1225 1192 1225 1192 1306 c 0,99,100
 1192 1341 1192 1341 1183 1368 c 128,-1,101
 1174 1395 1174 1395 1153.5 1413 c 128,-1,102
 1133 1431 1133 1431 1099.5 1440.5 c 128,-1,103
 1066 1450 1066 1450 1017 1449 c 0,104,105
 989 1449 989 1449 966.5 1448 c 128,-1,106
 944 1447 944 1447 917 1438 c 1,107,-1
 917 1149 l 1,93,94
EndSplineSet
EndChar

StartChar: macron
Encoding: 175 175 106
Width: 697
Flags: W
LayerCount: 2
Fore
SplineSet
50 1631 m 1,0,-1
 647 1631 l 1,1,-1
 647 1417 l 1,2,-1
 50 1417 l 1,3,-1
 50 1631 l 1,0,-1
EndSplineSet
EndChar

StartChar: degree
Encoding: 176 176 107
Width: 951
Flags: W
LayerCount: 2
Fore
SplineSet
475 918 m 0,0,1
 399 918 399 918 333 946 c 128,-1,2
 267 974 267 974 218 1022.5 c 128,-1,3
 169 1071 169 1071 140.5 1137 c 128,-1,4
 112 1203 112 1203 112 1278 c 0,5,6
 112 1355 112 1355 139.5 1420.5 c 128,-1,7
 167 1486 167 1486 215.5 1534 c 128,-1,8
 264 1582 264 1582 330.5 1609.5 c 128,-1,9
 397 1637 397 1637 475 1637 c 0,10,11
 552 1637 552 1637 618.5 1609 c 128,-1,12
 685 1581 685 1581 734 1532.5 c 128,-1,13
 783 1484 783 1484 811 1418.5 c 128,-1,14
 839 1353 839 1353 839 1278 c 0,15,16
 839 1200 839 1200 811.5 1134 c 128,-1,17
 784 1068 784 1068 735.5 1020 c 128,-1,18
 687 972 687 972 620.5 945 c 128,-1,19
 554 918 554 918 475 918 c 0,0,1
475 1099 m 0,20,21
 511 1099 511 1099 542.5 1112.5 c 128,-1,22
 574 1126 574 1126 597.5 1149.5 c 128,-1,23
 621 1173 621 1173 634 1206 c 128,-1,24
 647 1239 647 1239 647 1278 c 0,25,26
 647 1316 647 1316 633.5 1348.5 c 128,-1,27
 620 1381 620 1381 596.5 1405 c 128,-1,28
 573 1429 573 1429 542 1442.5 c 128,-1,29
 511 1456 511 1456 475 1456 c 256,30,31
 439 1456 439 1456 408 1443 c 128,-1,32
 377 1430 377 1430 354 1406 c 128,-1,33
 331 1382 331 1382 318 1349.5 c 128,-1,34
 305 1317 305 1317 305 1278 c 0,35,36
 305 1240 305 1240 318.5 1207 c 128,-1,37
 332 1174 332 1174 355 1150 c 128,-1,38
 378 1126 378 1126 409 1112.5 c 128,-1,39
 440 1099 440 1099 475 1099 c 0,20,21
EndSplineSet
EndChar

StartChar: plusminus
Encoding: 177 177 108
Width: 1393
Flags: W
LayerCount: 2
Fore
SplineSet
236 205 m 1,0,-1
 1148 205 l 1,1,-1
 1148 0 l 1,2,-1
 236 0 l 1,3,-1
 236 205 l 1,0,-1
570 467 m 1,4,-1
 576 659 l 1,5,-1
 414 653 l 1,6,-1
 203 653 l 1,7,-1
 203 897 l 1,8,-1
 414 897 l 1,9,-1
 576 890 l 1,10,-1
 570 1080 l 1,11,-1
 570 1294 l 1,12,-1
 822 1294 l 1,13,-1
 822 1080 l 1,14,-1
 816 890 l 1,15,-1
 968 897 l 1,16,-1
 1190 897 l 1,17,-1
 1190 653 l 1,18,-1
 968 653 l 1,19,-1
 816 659 l 1,20,-1
 822 467 l 1,21,-1
 822 257 l 1,22,-1
 570 257 l 1,23,-1
 570 467 l 1,4,-1
EndSplineSet
EndChar

StartChar: acute
Encoding: 180 180 109
Width: 663
Flags: W
LayerCount: 2
Fore
SplineSet
47 1390 m 1,0,1
 88 1429 88 1429 132 1476.5 c 128,-1,2
 176 1524 176 1524 220.5 1578 c 128,-1,3
 265 1632 265 1632 307 1691 c 128,-1,4
 349 1750 349 1750 387 1811 c 1,5,-1
 607 1634 l 1,6,7
 592 1599 592 1599 562 1559.5 c 128,-1,8
 532 1520 532 1520 493.5 1480.5 c 128,-1,9
 455 1441 455 1441 412 1403.5 c 128,-1,10
 369 1366 369 1366 329 1334.5 c 128,-1,11
 289 1303 289 1303 255 1280.5 c 128,-1,12
 221 1258 221 1258 201 1249 c 1,13,-1
 47 1390 l 1,0,1
EndSplineSet
EndChar

StartChar: paragraph
Encoding: 182 182 110
Width: 1357
Flags: W
LayerCount: 2
Fore
SplineSet
483 777 m 1,0,1
 382 777 382 777 301.5 804 c 128,-1,2
 221 831 221 831 165 888 c 128,-1,3
 109 945 109 945 79 1034 c 128,-1,4
 49 1123 49 1123 49 1248 c 0,5,6
 49 1471 49 1471 197 1591 c 128,-1,7
 345 1711 345 1711 648 1711 c 0,8,9
 676 1711 676 1711 718.5 1709.5 c 128,-1,10
 761 1708 761 1708 811 1706.5 c 128,-1,11
 861 1705 861 1705 915 1702.5 c 128,-1,12
 969 1700 969 1700 1021 1697.5 c 128,-1,13
 1073 1695 1073 1695 1119.5 1693.5 c 128,-1,14
 1166 1692 1166 1692 1201 1691 c 1,15,-1
 1201 0 l 1,16,-1
 943 0 l 1,17,-1
 943 1517 l 1,18,-1
 741 1517 l 1,19,-1
 741 0 l 1,20,-1
 483 0 l 1,21,-1
 483 777 l 1,0,1
EndSplineSet
EndChar

StartChar: cedilla
Encoding: 184 184 112
Width: 511
Flags: W
LayerCount: 2
Fore
SplineSet
354 34 m 1,0,-1
 404 30 l 1,1,2
 421 14 421 14 433.5 -13.5 c 128,-1,3
 446 -41 446 -41 454 -75 c 128,-1,4
 462 -109 462 -109 465 -146.5 c 128,-1,5
 468 -184 468 -184 467 -220 c 0,6,7
 465 -284 465 -284 444 -330 c 128,-1,8
 423 -376 423 -376 388 -406 c 128,-1,9
 353 -436 353 -436 307 -450 c 128,-1,10
 261 -464 261 -464 210 -464 c 0,11,12
 188 -464 188 -464 160 -462 c 128,-1,13
 132 -460 132 -460 106 -456 c 128,-1,14
 80 -452 80 -452 58.5 -447 c 128,-1,15
 37 -442 37 -442 28 -436 c 1,16,-1
 48 -268 l 1,17,18
 61 -276 61 -276 81.5 -279 c 128,-1,19
 102 -282 102 -282 125 -282 c 0,20,21
 174 -282 174 -282 208 -245.5 c 128,-1,22
 242 -209 242 -209 245 -132 c 0,23,24
 247 -100 247 -100 245 -75.5 c 128,-1,25
 243 -51 243 -51 238.5 -31.5 c 128,-1,26
 234 -12 234 -12 227 2.5 c 128,-1,27
 220 17 220 17 213 30 c 1,28,-1
 354 34 l 1,0,-1
EndSplineSet
EndChar

StartChar: multiply
Encoding: 215 215 115
Width: 1375
Flags: W
LayerCount: 2
Fore
SplineSet
158 386 m 1,0,-1
 549 774 l 1,1,-1
 158 1172 l 1,2,-1
 316 1328 l 1,3,-1
 688 918 l 1,4,-1
 1061 1328 l 1,5,-1
 1218 1172 l 1,6,-1
 828 777 l 1,7,-1
 1218 386 l 1,8,-1
 1061 229 l 1,9,-1
 688 627 l 1,10,-1
 316 229 l 1,11,-1
 158 386 l 1,0,-1
EndSplineSet
EndChar

StartChar: germandbls
Encoding: 223 223 116
Width: 1346
Flags: W
LayerCount: 2
Fore
SplineSet
169 919 m 1,0,-1
 31 919 l 1,1,-1
 31 1110 l 1,2,-1
 186 1147 l 1,3,4
 210 1262 210 1262 266 1343.5 c 128,-1,5
 322 1425 322 1425 401.5 1477.5 c 128,-1,6
 481 1530 481 1530 579.5 1554.5 c 128,-1,7
 678 1579 678 1579 788 1579 c 0,8,9
 891 1579 891 1579 973.5 1556.5 c 128,-1,10
 1056 1534 1056 1534 1113.5 1493.5 c 128,-1,11
 1171 1453 1171 1453 1202 1395.5 c 128,-1,12
 1233 1338 1233 1338 1233 1269 c 0,13,14
 1233 1210 1233 1210 1215 1168 c 128,-1,15
 1197 1126 1197 1126 1170 1094 c 128,-1,16
 1143 1062 1143 1062 1111 1038 c 128,-1,17
 1079 1014 1079 1014 1052 991.5 c 128,-1,18
 1025 969 1025 969 1007 945 c 128,-1,19
 989 921 989 921 989 891 c 0,20,21
 989 854 989 854 1014 822.5 c 128,-1,22
 1039 791 1039 791 1076.5 758 c 128,-1,23
 1114 725 1114 725 1158 688 c 128,-1,24
 1202 651 1202 651 1239.5 602.5 c 128,-1,25
 1277 554 1277 554 1302 490.5 c 128,-1,26
 1327 427 1327 427 1327 343 c 0,27,28
 1327 238 1327 238 1290 169 c 128,-1,29
 1253 100 1253 100 1192.5 58.5 c 128,-1,30
 1132 17 1132 17 1055 0.5 c 128,-1,31
 978 -16 978 -16 898 -16 c 0,32,33
 856 -16 856 -16 818.5 -13 c 128,-1,34
 781 -10 781 -10 750 -5.5 c 128,-1,35
 719 -1 719 -1 696 5.5 c 128,-1,36
 673 12 673 12 661 18 c 1,37,-1
 661 245 l 1,38,39
 670 239 670 239 687 232 c 128,-1,40
 704 225 704 225 726.5 219 c 128,-1,41
 749 213 749 213 776.5 208.5 c 128,-1,42
 804 204 804 204 835 204 c 0,43,44
 860 204 860 204 885.5 209.5 c 128,-1,45
 911 215 911 215 931.5 229.5 c 128,-1,46
 952 244 952 244 965 268 c 128,-1,47
 978 292 978 292 978 329 c 0,48,49
 978 379 978 379 958 418.5 c 128,-1,50
 938 458 938 458 908 492.5 c 128,-1,51
 878 527 878 527 843 560.5 c 128,-1,52
 808 594 808 594 778 634 c 128,-1,53
 748 674 748 674 728 723 c 128,-1,54
 708 772 708 772 708 838 c 0,55,56
 708 885 708 885 722 920 c 128,-1,57
 736 955 736 955 757.5 984 c 128,-1,58
 779 1013 779 1013 804 1038 c 128,-1,59
 829 1063 829 1063 850.5 1090 c 128,-1,60
 872 1117 872 1117 886 1148.5 c 128,-1,61
 900 1180 900 1180 900 1221 c 0,62,63
 900 1291 900 1291 859.5 1329 c 128,-1,64
 819 1367 819 1367 742 1367 c 0,65,66
 686 1367 686 1367 641 1346.5 c 128,-1,67
 596 1326 596 1326 564 1277.5 c 128,-1,68
 532 1229 532 1229 514.5 1149 c 128,-1,69
 497 1069 497 1069 497 951 c 2,70,-1
 497 0 l 1,71,-1
 169 0 l 1,72,-1
 169 919 l 1,0,-1
EndSplineSet
EndChar

StartChar: eth
Encoding: 240 240 117
Width: 1266
Flags: W
LayerCount: 2
Fore
SplineSet
68 552 m 0,0,1
 68 687 68 687 103 797 c 128,-1,2
 138 907 138 907 205.5 985 c 128,-1,3
 273 1063 273 1063 371 1106 c 128,-1,4
 469 1149 469 1149 596 1149 c 0,5,6
 656 1149 656 1149 704.5 1134.5 c 128,-1,7
 753 1120 753 1120 791 1096 c 1,8,9
 759 1190 759 1190 694.5 1272 c 128,-1,10
 630 1354 630 1354 545 1417 c 1,11,-1
 429 1259 l 1,12,-1
 276 1360 l 1,13,-1
 397 1517 l 1,14,15
 349 1546 349 1546 298.5 1570.5 c 128,-1,16
 248 1595 248 1595 194 1611 c 1,17,-1
 249 1791 l 1,18,19
 333 1767 333 1767 398.5 1741 c 128,-1,20
 464 1715 464 1715 524 1681 c 1,21,22
 545 1710 545 1710 567 1741 c 128,-1,23
 589 1772 589 1772 608 1798 c 1,24,25
 629 1829 629 1829 650 1858 c 1,26,-1
 806 1755 l 1,27,28
 786 1729 786 1729 765 1702 c 0,29,30
 747 1679 747 1679 725 1650 c 128,-1,31
 703 1621 703 1621 682 1595 c 1,32,33
 938 1424 938 1424 1067.5 1187 c 128,-1,34
 1197 950 1197 950 1197 656 c 0,35,36
 1197 485 1197 485 1152 357.5 c 128,-1,37
 1107 230 1107 230 1030 144.5 c 128,-1,38
 953 59 953 59 849 16.5 c 128,-1,39
 745 -26 745 -26 628 -27 c 0,40,41
 499 -28 499 -28 395.5 14 c 128,-1,42
 292 56 292 56 219.5 132.5 c 128,-1,43
 147 209 147 209 107.5 316 c 128,-1,44
 68 423 68 423 68 552 c 0,0,1
637 208 m 0,45,46
 684 208 684 208 725.5 232 c 128,-1,47
 767 256 767 256 797.5 303 c 128,-1,48
 828 350 828 350 846 419 c 128,-1,49
 864 488 864 488 864 578 c 0,50,51
 864 604 864 604 864 638 c 128,-1,52
 864 672 864 672 863.5 706.5 c 128,-1,53
 863 741 863 741 862 773 c 128,-1,54
 861 805 861 805 859 828 c 1,55,56
 844 847 844 847 825.5 865 c 128,-1,57
 807 883 807 883 781.5 896.5 c 128,-1,58
 756 910 756 910 721.5 918 c 128,-1,59
 687 926 687 926 639 926 c 0,60,61
 530 926 530 926 468 828 c 128,-1,62
 406 730 406 730 406 545 c 0,63,64
 406 376 406 376 468.5 292 c 128,-1,65
 531 208 531 208 637 208 c 0,45,46
EndSplineSet
EndChar

StartChar: endash
Encoding: 8211 8211 118
Width: 1692
Flags: W
LayerCount: 2
Fore
SplineSet
240 892 m 1,0,-1
 1452 892 l 1,1,-1
 1452 640 l 1,2,-1
 240 640 l 1,3,-1
 240 892 l 1,0,-1
EndSplineSet
EndChar

StartChar: emdash
Encoding: 8212 8212 119
Width: 2403
Flags: W
LayerCount: 2
Fore
SplineSet
240 892 m 1,0,-1
 2163 892 l 1,1,-1
 2163 640 l 1,2,-1
 240 640 l 1,3,-1
 240 892 l 1,0,-1
EndSplineSet
EndChar

StartChar: quoteleft
Encoding: 8216 8216 120
Width: 579
Flags: W
LayerCount: 2
Fore
SplineSet
288 935 m 1,0,1
 250 948 250 948 215 978.5 c 128,-1,2
 180 1009 180 1009 152.5 1054 c 128,-1,3
 125 1099 125 1099 108.5 1157.5 c 128,-1,4
 92 1216 92 1216 92 1287 c 0,5,6
 92 1381 92 1381 116 1456.5 c 128,-1,7
 140 1532 140 1532 173.5 1589 c 128,-1,8
 207 1646 207 1646 243.5 1684 c 128,-1,9
 280 1722 280 1722 305 1740 c 1,10,-1
 446 1655 l 1,11,-1
 446 1626 l 1,12,13
 429 1608 429 1608 416 1578 c 128,-1,14
 403 1548 403 1548 393.5 1512 c 128,-1,15
 384 1476 384 1476 379 1437 c 128,-1,16
 374 1398 374 1398 374 1363 c 0,17,18
 374 1319 374 1319 383 1281.5 c 128,-1,19
 392 1244 392 1244 406 1214.5 c 128,-1,20
 420 1185 420 1185 436.5 1165 c 128,-1,21
 453 1145 453 1145 468 1137 c 1,22,-1
 468 1065 l 1,23,-1
 288 935 l 1,24,-1
 288 935 l 1,0,1
EndSplineSet
EndChar

StartChar: quoteright
Encoding: 8217 8217 121
Width: 579
Flags: W
LayerCount: 2
Fore
SplineSet
115 1021 m 1,0,-1
 115 1049 l 1,1,2
 131 1067 131 1067 144 1097 c 128,-1,3
 157 1127 157 1127 166.5 1163 c 128,-1,4
 176 1199 176 1199 181 1238 c 128,-1,5
 186 1277 186 1277 186 1313 c 0,6,7
 186 1356 186 1356 177 1393.5 c 128,-1,8
 168 1431 168 1431 154.5 1460.5 c 128,-1,9
 141 1490 141 1490 124 1510 c 128,-1,10
 107 1530 107 1530 92 1538 c 1,11,-1
 92 1610 l 1,12,-1
 274 1740 l 1,13,14
 311 1727 311 1727 346 1697.5 c 128,-1,15
 381 1668 381 1668 408 1623 c 128,-1,16
 435 1578 435 1578 451.5 1519 c 128,-1,17
 468 1460 468 1460 468 1389 c 0,18,19
 468 1296 468 1296 444 1220.5 c 128,-1,20
 420 1145 420 1145 386 1087.5 c 128,-1,21
 352 1030 352 1030 316 991.5 c 128,-1,22
 280 953 280 953 255 935 c 1,23,-1
 115 1021 l 1,0,-1
EndSplineSet
EndChar

StartChar: dagger
Encoding: 8224 8224 126
Width: 1026
Flags: W
LayerCount: 2
Fore
SplineSet
381 1070 m 1,0,-1
 99 1069 l 1,1,-1
 100 1288 l 1,2,-1
 381 1286 l 1,3,-1
 381 1658 l 1,4,-1
 645 1658 l 1,5,-1
 645 1286 l 1,6,-1
 927 1288 l 1,7,-1
 927 1069 l 1,8,-1
 645 1070 l 1,9,-1
 632 200 l 1,10,-1
 397 200 l 1,11,-1
 381 1070 l 1,0,-1
EndSplineSet
EndChar

StartChar: bullet
Encoding: 8226 8226 127
Width: 895
Flags: W
LayerCount: 2
Fore
SplineSet
438 462 m 256,0,1
 381 462 381 462 333 482 c 128,-1,2
 285 502 285 502 249.5 537.5 c 128,-1,3
 214 573 214 573 194.5 620.5 c 128,-1,4
 175 668 175 668 176 724 c 256,5,6
 177 780 177 780 200.5 830 c 128,-1,7
 224 880 224 880 262.5 918 c 128,-1,8
 301 956 301 956 352 978 c 128,-1,9
 403 1000 403 1000 459 1000 c 0,10,11
 516 1000 516 1000 564 980.5 c 128,-1,12
 612 961 612 961 646.5 926 c 128,-1,13
 681 891 681 891 700.5 843.5 c 128,-1,14
 720 796 720 796 719 739 c 0,15,16
 718 683 718 683 695.5 633 c 128,-1,17
 673 583 673 583 634.5 545 c 128,-1,18
 596 507 596 507 545.5 484.5 c 128,-1,19
 495 462 495 462 438 462 c 256,0,1
EndSplineSet
EndChar

StartChar: logicalnot
Encoding: 172 172 130
Width: 1470
Flags: W
LayerCount: 2
Fore
SplineSet
240 852 m 1,0,-1
 1230 852 l 1,1,-1
 1230 318 l 1,2,-1
 980 318 l 1,3,-1
 980 632 l 1,4,-1
 240 632 l 1,5,-1
 240 852 l 1,0,-1
EndSplineSet
EndChar

StartChar: yen
Encoding: 165 165 131
Width: 1532
Flags: W
LayerCount: 2
Fore
SplineSet
259 461 m 1,0,-1
 616 461 l 1,1,-1
 616 656 l 1,2,-1
 259 656 l 1,3,-1
 259 851 l 1,4,-1
 550 851 l 1,5,-1
 130 1522 l 1,6,-1
 468 1522 l 1,7,-1
 700 1131 l 1,8,-1
 769 985 l 1,9,-1
 838 1133 l 1,10,-1
 1083 1522 l 1,11,-1
 1421 1522 l 1,12,-1
 999 851 l 1,13,-1
 1264 851 l 1,14,-1
 1264 656 l 1,15,-1
 917 656 l 1,16,-1
 917 461 l 1,17,-1
 1264 461 l 1,18,-1
 1264 265 l 1,19,-1
 917 265 l 1,20,-1
 917 0 l 1,21,-1
 616 0 l 1,22,-1
 616 265 l 1,23,-1
 259 265 l 1,24,-1
 259 461 l 1,0,-1
EndSplineSet
EndChar

StartChar: divide
Encoding: 247 247 132
Width: 1396
Flags: W
LayerCount: 2
Fore
SplineSet
710 1026 m 0,0,1
 669 1026 669 1026 634 1040.5 c 128,-1,2
 599 1055 599 1055 574 1080.5 c 128,-1,3
 549 1106 549 1106 535 1141 c 128,-1,4
 521 1176 521 1176 521 1218 c 256,5,6
 521 1260 521 1260 537.5 1298 c 128,-1,7
 554 1336 554 1336 582.5 1364.5 c 128,-1,8
 611 1393 611 1393 649 1410 c 128,-1,9
 687 1427 687 1427 730 1427 c 0,10,11
 774 1427 774 1427 809 1412.5 c 128,-1,12
 844 1398 844 1398 868 1372.5 c 128,-1,13
 892 1347 892 1347 904.5 1312 c 128,-1,14
 917 1277 917 1277 917 1236 c 0,15,16
 917 1193 917 1193 901 1155 c 128,-1,17
 885 1117 885 1117 857 1088.5 c 128,-1,18
 829 1060 829 1060 791 1043 c 128,-1,19
 753 1026 753 1026 710 1026 c 0,0,1
196 893 m 1,20,-1
 1201 893 l 1,21,-1
 1201 652 l 1,22,-1
 196 652 l 1,23,-1
 196 893 l 1,20,-1
517 321 m 256,24,25
 517 363 517 363 534 401 c 128,-1,26
 551 439 551 439 579.5 467.5 c 128,-1,27
 608 496 608 496 646 513 c 128,-1,28
 684 530 684 530 727 530 c 0,29,30
 771 530 771 530 806 515.5 c 128,-1,31
 841 501 841 501 865 475.5 c 128,-1,32
 889 450 889 450 901.5 415 c 128,-1,33
 914 380 914 380 914 339 c 0,34,35
 914 296 914 296 898 258 c 128,-1,36
 882 220 882 220 853.5 191.5 c 128,-1,37
 825 163 825 163 787 146 c 128,-1,38
 749 129 749 129 706 129 c 0,39,40
 665 129 665 129 630 143.5 c 128,-1,41
 595 158 595 158 570 183.5 c 128,-1,42
 545 209 545 209 531 244 c 128,-1,43
 517 279 517 279 517 321 c 256,24,25
EndSplineSet
EndChar

StartChar: daggerdbl
Encoding: 8225 8225 133
Width: 1027
Flags: W
LayerCount: 2
Fore
SplineSet
99 639 m 1,0,-1
 381 639 l 1,1,-1
 381 1070 l 1,2,-1
 99 1069 l 1,3,-1
 100 1288 l 1,4,-1
 381 1287 l 1,5,-1
 381 1658 l 1,6,-1
 644 1658 l 1,7,-1
 644 1287 l 1,8,-1
 928 1288 l 1,9,-1
 928 1069 l 1,10,-1
 644 1070 l 1,11,-1
 644 639 l 1,12,-1
 927 639 l 1,13,-1
 927 420 l 1,14,-1
 644 421 l 1,15,-1
 623 -356 l 1,16,-1
 397 -356 l 1,17,-1
 381 421 l 1,18,-1
 99 420 l 1,19,-1
 99 639 l 1,0,-1
EndSplineSet
EndChar

StartChar: cent
Encoding: 162 162 134
Width: 1176
Flags: W
LayerCount: 2
Fore
SplineSet
522 -7 m 1,0,1
 416 11 416 11 336.5 60 c 128,-1,2
 257 109 257 109 204.5 183.5 c 128,-1,3
 152 258 152 258 125.5 353 c 128,-1,4
 99 448 99 448 99 557 c 0,5,6
 99 669 99 669 126.5 768 c 128,-1,7
 154 867 154 867 210 945 c 128,-1,8
 266 1023 266 1023 351 1076 c 128,-1,9
 436 1129 436 1129 551 1147 c 1,10,-1
 557 1377 l 1,11,-1
 731 1377 l 1,12,-1
 726 1154 l 1,13,14
 815 1149 815 1149 880 1132.5 c 128,-1,15
 945 1116 945 1116 970 1098 c 1,16,-1
 930 850 l 1,17,18
 891 871 891 871 838.5 882.5 c 128,-1,19
 786 894 786 894 706 894 c 0,20,21
 658 894 658 894 608 878.5 c 128,-1,22
 558 863 558 863 517.5 828 c 128,-1,23
 477 793 477 793 450.5 735.5 c 128,-1,24
 424 678 424 678 422 593 c 0,25,26
 420 501 420 501 440 435 c 128,-1,27
 460 369 460 369 497.5 326 c 128,-1,28
 535 283 535 283 586 262.5 c 128,-1,29
 637 242 637 242 697 242 c 0,30,31
 735 242 735 242 771.5 245.5 c 128,-1,32
 808 249 808 249 840 255.5 c 128,-1,33
 872 262 872 262 898 270 c 128,-1,34
 924 278 924 278 942 287 c 1,35,-1
 987 98 l 1,36,37
 942 53 942 53 865 24 c 128,-1,38
 788 -5 788 -5 696 -13 c 1,39,-1
 693 -216 l 1,40,-1
 518 -216 l 1,41,-1
 522 -7 l 1,42,-1
 522 -7 l 1,0,1
EndSplineSet
EndChar

StartChar: circumflex
Encoding: 710 710 135
Width: 872
Flags: W
LayerCount: 2
Fore
SplineSet
36 1333 m 1,0,-1
 326 1706 l 1,1,-1
 549 1706 l 1,2,-1
 836 1334 l 1,3,-1
 672 1239 l 1,4,-1
 438 1482 l 1,5,-1
 196 1239 l 1,6,-1
 36 1333 l 1,0,-1
EndSplineSet
EndChar

StartChar: caron
Encoding: 711 711 136
Width: 824
Flags: W
LayerCount: 2
Fore
SplineSet
36 1612 m 1,0,-1
 196 1706 l 1,1,-1
 438 1463 l 1,2,-1
 672 1706 l 1,3,-1
 836 1611 l 1,4,-1
 549 1239 l 1,5,-1
 326 1239 l 1,6,-1
 36 1612 l 1,0,-1
EndSplineSet
EndChar

StartChar: breve
Encoding: 728 728 137
Width: 808
Flags: W
LayerCount: 2
Fore
SplineSet
405 1305 m 0,0,1
 315 1305 315 1305 245 1339 c 128,-1,2
 175 1373 175 1373 128 1427 c 128,-1,3
 81 1481 81 1481 57 1549 c 128,-1,4
 33 1617 33 1617 36 1686 c 1,5,-1
 238 1686 l 1,6,7
 240 1675 240 1675 244.5 1649 c 128,-1,8
 249 1623 249 1623 265.5 1596 c 128,-1,9
 282 1569 282 1569 314.5 1548.5 c 128,-1,10
 347 1528 347 1528 405 1528 c 0,11,12
 442 1528 442 1528 469 1537.5 c 128,-1,13
 496 1547 496 1547 514 1562 c 128,-1,14
 532 1577 532 1577 543 1595.5 c 128,-1,15
 554 1614 554 1614 560.5 1631.5 c 128,-1,16
 567 1649 567 1649 569.5 1663.5 c 128,-1,17
 572 1678 572 1678 573 1686 c 1,18,-1
 773 1686 l 1,19,20
 775 1617 775 1617 750 1549 c 128,-1,21
 725 1481 725 1481 677 1427 c 128,-1,22
 629 1373 629 1373 559.5 1339 c 128,-1,23
 490 1305 490 1305 405 1305 c 0,0,1
EndSplineSet
EndChar

StartChar: ring
Encoding: 730 730 138
Width: 760
Flags: W
LayerCount: 2
Fore
SplineSet
377 1310 m 0,0,1
 295 1310 295 1310 231 1331 c 128,-1,2
 167 1352 167 1352 122.5 1390.5 c 128,-1,3
 78 1429 78 1429 55.5 1484 c 128,-1,4
 33 1539 33 1539 34 1608 c 0,5,6
 35 1686 35 1686 66.5 1740 c 128,-1,7
 98 1794 98 1794 148 1827.5 c 128,-1,8
 198 1861 198 1861 260.5 1876.5 c 128,-1,9
 323 1892 323 1892 386 1892 c 0,10,11
 465 1892 465 1892 528 1873 c 128,-1,12
 591 1854 591 1854 635 1817.5 c 128,-1,13
 679 1781 679 1781 702.5 1727.5 c 128,-1,14
 726 1674 726 1674 726 1604 c 0,15,16
 725 1526 725 1526 695.5 1470.5 c 128,-1,17
 666 1415 666 1415 617.5 1379.5 c 128,-1,18
 569 1344 569 1344 506.5 1327 c 128,-1,19
 444 1310 444 1310 377 1310 c 0,0,1
380 1466 m 0,20,21
 416 1466 416 1466 445 1472 c 128,-1,22
 474 1478 474 1478 495 1493.5 c 128,-1,23
 516 1509 516 1509 527.5 1535 c 128,-1,24
 539 1561 539 1561 539 1600 c 0,25,26
 539 1633 539 1633 527 1659.5 c 128,-1,27
 515 1686 515 1686 493.5 1704 c 128,-1,28
 472 1722 472 1722 443 1732 c 128,-1,29
 414 1742 414 1742 380 1742 c 0,30,31
 349 1742 349 1742 320.5 1735.5 c 128,-1,32
 292 1729 292 1729 270 1713.5 c 128,-1,33
 248 1698 248 1698 235 1672 c 128,-1,34
 222 1646 222 1646 222 1607 c 0,35,36
 222 1575 222 1575 233.5 1549.5 c 128,-1,37
 245 1524 245 1524 266 1505 c 128,-1,38
 287 1486 287 1486 316 1476 c 128,-1,39
 345 1466 345 1466 380 1466 c 0,20,21
EndSplineSet
EndChar

StartChar: tilde
Encoding: 732 732 139
Width: 927
Flags: W
LayerCount: 2
Fore
SplineSet
23 1472 m 1,0,1
 38 1518 38 1518 65.5 1559.5 c 128,-1,2
 93 1601 93 1601 131.5 1632 c 128,-1,3
 170 1663 170 1663 218.5 1681 c 128,-1,4
 267 1699 267 1699 326 1699 c 0,5,6
 370 1699 370 1699 402 1689.5 c 128,-1,7
 434 1680 434 1680 458.5 1666 c 128,-1,8
 483 1652 483 1652 502 1636 c 128,-1,9
 521 1620 521 1620 539.5 1606 c 128,-1,10
 558 1592 558 1592 578 1582.5 c 128,-1,11
 598 1573 598 1573 624 1573 c 0,12,13
 649 1573 649 1573 672 1582.5 c 128,-1,14
 695 1592 695 1592 714.5 1607 c 128,-1,15
 734 1622 734 1622 750.5 1640.5 c 128,-1,16
 767 1659 767 1659 781 1678 c 1,17,-1
 907 1565 l 1,18,19
 891 1517 891 1517 864.5 1475 c 128,-1,20
 838 1433 838 1433 800.5 1402 c 128,-1,21
 763 1371 763 1371 714.5 1353 c 128,-1,22
 666 1335 666 1335 608 1335 c 0,23,24
 567 1335 567 1335 536.5 1344.5 c 128,-1,25
 506 1354 506 1354 482 1368.5 c 128,-1,26
 458 1383 458 1383 438 1399.5 c 128,-1,27
 418 1416 418 1416 398 1430.5 c 128,-1,28
 378 1445 378 1445 356 1454.5 c 128,-1,29
 334 1464 334 1464 305 1464 c 0,30,31
 282 1464 282 1464 260.5 1455 c 128,-1,32
 239 1446 239 1446 218.5 1432 c 128,-1,33
 198 1418 198 1418 180.5 1401 c 128,-1,34
 163 1384 163 1384 149 1367 c 1,35,-1
 23 1472 l 1,0,1
EndSplineSet
EndChar

StartChar: hungarumlaut
Encoding: 733 733 140
Width: 1035
Flags: W
LayerCount: 2
Fore
SplineSet
45 1406 m 1,0,1
 49 1411 49 1411 70.5 1444 c 128,-1,2
 92 1477 92 1477 122.5 1523 c 128,-1,3
 153 1569 153 1569 188 1621 c 128,-1,4
 223 1673 223 1673 252.5 1718 c 128,-1,5
 282 1763 282 1763 301.5 1793 c 128,-1,6
 321 1823 321 1823 322 1824 c 1,7,-1
 521 1685 l 1,8,9
 505 1658 505 1658 479.5 1623.5 c 128,-1,10
 454 1589 454 1589 423.5 1552 c 128,-1,11
 393 1515 393 1515 359 1478 c 128,-1,12
 325 1441 325 1441 292 1408 c 128,-1,13
 259 1375 259 1375 228.5 1349.5 c 128,-1,14
 198 1324 198 1324 175 1311 c 1,15,-1
 45 1406 l 1,0,1
564 1406 m 1,16,17
 566 1409 566 1409 579 1428 c 128,-1,18
 592 1447 592 1447 612 1476.5 c 128,-1,19
 632 1506 632 1506 656.5 1542.5 c 128,-1,20
 681 1579 681 1579 706.5 1617 c 128,-1,21
 732 1655 732 1655 756.5 1691 c 128,-1,22
 781 1727 781 1727 800 1755 c 128,-1,23
 819 1783 819 1783 831 1801 c 128,-1,24
 843 1819 843 1819 844 1820 c 1,25,-1
 1044 1682 l 1,26,27
 1028 1656 1028 1656 1002 1621.5 c 128,-1,28
 976 1587 976 1587 945 1549.5 c 128,-1,29
 914 1512 914 1512 879 1474 c 128,-1,30
 844 1436 844 1436 810 1403.5 c 128,-1,31
 776 1371 776 1371 745 1346.5 c 128,-1,32
 714 1322 714 1322 690 1311 c 1,33,-1
 564 1406 l 1,16,17
EndSplineSet
EndChar

StartChar: ogonek
Encoding: 731 731 141
Width: 642
Flags: W
LayerCount: 2
Fore
SplineSet
409 9 m 1,0,-1
 531 21 l 1,1,2
 487 -3 487 -3 444 -33.5 c 128,-1,3
 401 -64 401 -64 367.5 -99 c 128,-1,4
 334 -134 334 -134 314.5 -172.5 c 128,-1,5
 295 -211 295 -211 298 -253 c 1,6,7
 300 -296 300 -296 331.5 -315 c 128,-1,8
 363 -334 363 -334 418 -334 c 0,9,10
 456 -334 456 -334 494.5 -325 c 128,-1,11
 533 -316 533 -316 562 -309 c 1,12,-1
 569 -446 l 1,13,14
 527 -475 527 -475 462.5 -495.5 c 128,-1,15
 398 -516 398 -516 318 -516 c 0,16,17
 270 -516 270 -516 224 -505 c 128,-1,18
 178 -494 178 -494 142 -470.5 c 128,-1,19
 106 -447 106 -447 83 -412.5 c 128,-1,20
 60 -378 60 -378 58 -331 c 1,21,22
 54 -273 54 -273 74 -223.5 c 128,-1,23
 94 -174 94 -174 128 -133.5 c 128,-1,24
 162 -93 162 -93 204.5 -61.5 c 128,-1,25
 247 -30 247 -30 288 -8 c 1,26,-1
 409 9 l 1,0,-1
EndSplineSet
EndChar

StartChar: twosuperior
Encoding: 178 178 143
Width: 1194
Flags: W
LayerCount: 2
Fore
SplineSet
162 838 m 1,0,1
 199 857 199 857 252 891 c 128,-1,2
 305 925 305 925 362 967.5 c 128,-1,3
 419 1010 419 1010 475 1060 c 128,-1,4
 531 1110 531 1110 575.5 1162.5 c 128,-1,5
 620 1215 620 1215 647.5 1267 c 128,-1,6
 675 1319 675 1319 675 1367 c 0,7,8
 675 1447 675 1447 631.5 1482.5 c 128,-1,9
 588 1518 588 1518 513 1518 c 0,10,11
 431 1518 431 1518 366 1479 c 128,-1,12
 301 1440 301 1440 243 1367 c 1,13,-1
 131 1521 l 1,14,15
 154 1557 154 1557 197.5 1593.5 c 128,-1,16
 241 1630 241 1630 299.5 1660 c 128,-1,17
 358 1690 358 1690 430 1709 c 128,-1,18
 502 1728 502 1728 582 1728 c 0,19,20
 691 1728 691 1728 766.5 1699 c 128,-1,21
 842 1670 842 1670 888.5 1625.5 c 128,-1,22
 935 1581 935 1581 956 1527.5 c 128,-1,23
 977 1474 977 1474 977 1425 c 0,24,25
 977 1348 977 1348 948.5 1278 c 128,-1,26
 920 1208 920 1208 868 1143.5 c 128,-1,27
 816 1079 816 1079 743 1019.5 c 128,-1,28
 670 960 670 960 580 905 c 1,29,-1
 1030 926 l 1,30,-1
 1030 682 l 1,31,-1
 204 682 l 1,32,-1
 162 838 l 1,0,1
EndSplineSet
EndChar

StartChar: onesuperior
Encoding: 185 185 144
Width: 1026
Flags: W
LayerCount: 2
Fore
SplineSet
410 1397 m 1,0,1
 362 1383 362 1383 318 1371.5 c 128,-1,2
 274 1360 274 1360 220 1351 c 1,3,-1
 180 1519 l 1,4,5
 210 1528 210 1528 246.5 1542.5 c 128,-1,6
 283 1557 283 1557 320.5 1574.5 c 128,-1,7
 358 1592 358 1592 394.5 1611 c 128,-1,8
 431 1630 431 1630 462.5 1648 c 128,-1,9
 494 1666 494 1666 517.5 1681 c 128,-1,10
 541 1696 541 1696 553 1706 c 1,11,-1
 703 1681 l 1,12,-1
 703 674 l 1,13,-1
 410 674 l 1,14,-1
 410 1397 l 1,0,1
EndSplineSet
EndChar

StartChar: fraction
Encoding: 8260 8260 145
Width: 1026
Flags: W
LayerCount: 2
Fore
SplineSet
657 1530 m 1,0,-1
 908 1530 l 1,1,-1
 366 0 l 1,2,-1
 118 0 l 1,3,-1
 657 1530 l 1,0,-1
EndSplineSet
EndChar

StartChar: onequarter
Encoding: 188 188 146
Width: 2524
Flags: W
LayerCount: 2
Fore
SplineSet
1819 1181 m 1,0,-1
 1887 1181 l 1,1,-1
 2084 1087 l 1,2,-1
 1688 459 l 1,3,-1
 1646 390 l 1,4,-1
 1923 390 l 1,5,-1
 1947 653 l 1,6,-1
 2181 653 l 1,7,-1
 2181 390 l 1,8,-1
 2351 390 l 1,9,-1
 2351 194 l 1,10,-1
 2181 194 l 1,11,-1
 2181 -77 l 1,12,-1
 1920 -77 l 1,13,-1
 1920 194 l 1,14,-1
 1380 194 l 1,15,-1
 1328 288 l 1,16,-1
 1819 1181 l 1,0,-1
1288 1530 m 1,17,-1
 1539 1530 l 1,18,-1
 997 0 l 1,19,-1
 749 0 l 1,20,-1
 1288 1530 l 1,17,-1
443 1397 m 1,21,22
 395 1383 395 1383 351 1371.5 c 128,-1,23
 307 1360 307 1360 253 1351 c 1,24,-1
 213 1519 l 1,25,26
 243 1528 243 1528 279.5 1542.5 c 128,-1,27
 316 1557 316 1557 353.5 1574.5 c 128,-1,28
 391 1592 391 1592 427.5 1611 c 128,-1,29
 464 1630 464 1630 495.5 1648 c 128,-1,30
 527 1666 527 1666 550.5 1681 c 128,-1,31
 574 1696 574 1696 586 1706 c 1,32,-1
 736 1681 l 1,33,-1
 736 674 l 1,34,-1
 443 674 l 1,35,-1
 443 1397 l 1,21,22
EndSplineSet
Ligature2: "'frac' Diagonal Fractions in Latin lookup 10 subtable" one slash four
EndChar

StartChar: threequarters
Encoding: 190 190 147
Width: 2524
Flags: W
LayerCount: 2
Fore
SplineSet
1819 1181 m 1,0,-1
 1887 1181 l 1,1,-1
 2084 1087 l 1,2,-1
 1688 459 l 1,3,-1
 1646 390 l 1,4,-1
 1923 390 l 1,5,-1
 1947 653 l 1,6,-1
 2181 653 l 1,7,-1
 2181 390 l 1,8,-1
 2351 390 l 1,9,-1
 2351 194 l 1,10,-1
 2181 194 l 1,11,-1
 2181 -77 l 1,12,-1
 1920 -77 l 1,13,-1
 1920 194 l 1,14,-1
 1380 194 l 1,15,-1
 1328 288 l 1,16,-1
 1819 1181 l 1,0,-1
124 827 m 1,17,18
 149 821 149 821 174.5 815.5 c 128,-1,19
 200 810 200 810 230.5 805.5 c 128,-1,20
 261 801 261 801 298.5 797.5 c 128,-1,21
 336 794 336 794 384 794 c 0,22,23
 511 795 511 795 566 835 c 128,-1,24
 621 875 621 875 621 946 c 0,25,26
 621 968 621 968 612.5 989 c 128,-1,27
 604 1010 604 1010 584 1028 c 128,-1,28
 564 1046 564 1046 532 1060.5 c 128,-1,29
 500 1075 500 1075 452 1083 c 1,30,-1
 290 1051 l 1,31,-1
 287 1241 l 1,32,33
 326 1246 326 1246 358 1251.5 c 128,-1,34
 390 1257 390 1257 420 1265 c 0,35,36
 454 1275 454 1275 482.5 1290.5 c 128,-1,37
 511 1306 511 1306 532 1326 c 128,-1,38
 553 1346 553 1346 564.5 1370 c 128,-1,39
 576 1394 576 1394 575 1421 c 0,40,41
 574 1469 574 1469 533.5 1493.5 c 128,-1,42
 493 1518 493 1518 417 1518 c 0,43,44
 391 1518 391 1518 359 1513 c 128,-1,45
 327 1508 327 1508 293 1498.5 c 128,-1,46
 259 1489 259 1489 224 1474 c 128,-1,47
 189 1459 189 1459 156 1439 c 1,48,-1
 89 1603 l 1,49,50
 117 1627 117 1627 162 1647.5 c 128,-1,51
 207 1668 207 1668 258 1683 c 128,-1,52
 309 1698 309 1698 361.5 1707 c 128,-1,53
 414 1716 414 1716 458 1716 c 0,54,55
 557 1716 557 1716 628 1696.5 c 128,-1,56
 699 1677 699 1677 744.5 1644 c 128,-1,57
 790 1611 790 1611 811.5 1566 c 128,-1,58
 833 1521 833 1521 833 1470 c 0,59,60
 833 1432 833 1432 824.5 1396 c 128,-1,61
 816 1360 816 1360 794.5 1325.5 c 128,-1,62
 773 1291 773 1291 737 1259 c 128,-1,63
 701 1227 701 1227 646 1197 c 1,64,65
 706 1193 706 1193 752 1171.5 c 128,-1,66
 798 1150 798 1150 829.5 1117 c 128,-1,67
 861 1084 861 1084 877 1042.5 c 128,-1,68
 893 1001 893 1001 893 956 c 0,69,70
 893 879 893 879 865 812.5 c 128,-1,71
 837 746 837 746 778.5 696.5 c 128,-1,72
 720 647 720 647 630.5 618.5 c 128,-1,73
 541 590 541 590 418 590 c 0,74,75
 365 590 365 590 322.5 595.5 c 128,-1,76
 280 601 280 601 244.5 608.5 c 128,-1,77
 209 616 209 616 181 624 c 128,-1,78
 153 632 153 632 129 638 c 1,79,-1
 124 827 l 1,17,18
1288 1530 m 1,80,-1
 1539 1530 l 1,81,-1
 997 0 l 1,82,-1
 749 0 l 1,83,-1
 1288 1530 l 1,80,-1
EndSplineSet
Ligature2: "'frac' Diagonal Fractions in Latin lookup 10 subtable" three slash four
EndChar

StartChar: threesuperior
Encoding: 179 179 148
Width: 1194
Flags: W
LayerCount: 2
Fore
SplineSet
256 827 m 1,0,1
 281 821 281 821 306.5 815.5 c 128,-1,2
 332 810 332 810 362.5 805.5 c 128,-1,3
 393 801 393 801 430.5 797.5 c 128,-1,4
 468 794 468 794 516 794 c 0,5,6
 643 795 643 795 698 835 c 128,-1,7
 753 875 753 875 753 946 c 0,8,9
 753 968 753 968 744.5 989 c 128,-1,10
 736 1010 736 1010 716 1028 c 128,-1,11
 696 1046 696 1046 664 1060.5 c 128,-1,12
 632 1075 632 1075 584 1083 c 1,13,-1
 422 1051 l 1,14,-1
 419 1241 l 1,15,16
 458 1246 458 1246 490 1251.5 c 128,-1,17
 522 1257 522 1257 552 1265 c 0,18,19
 586 1275 586 1275 614.5 1290.5 c 128,-1,20
 643 1306 643 1306 664 1326 c 128,-1,21
 685 1346 685 1346 696.5 1370 c 128,-1,22
 708 1394 708 1394 707 1421 c 0,23,24
 706 1469 706 1469 665.5 1493.5 c 128,-1,25
 625 1518 625 1518 549 1518 c 0,26,27
 523 1518 523 1518 491 1513 c 128,-1,28
 459 1508 459 1508 425 1498.5 c 128,-1,29
 391 1489 391 1489 356 1474 c 128,-1,30
 321 1459 321 1459 288 1439 c 1,31,-1
 221 1603 l 1,32,33
 249 1627 249 1627 294 1647.5 c 128,-1,34
 339 1668 339 1668 390 1683 c 128,-1,35
 441 1698 441 1698 493.5 1707 c 128,-1,36
 546 1716 546 1716 590 1716 c 0,37,38
 689 1716 689 1716 760 1696.5 c 128,-1,39
 831 1677 831 1677 876.5 1644 c 128,-1,40
 922 1611 922 1611 943.5 1566 c 128,-1,41
 965 1521 965 1521 965 1470 c 0,42,43
 965 1432 965 1432 956.5 1396 c 128,-1,44
 948 1360 948 1360 926.5 1325.5 c 128,-1,45
 905 1291 905 1291 869 1259 c 128,-1,46
 833 1227 833 1227 778 1197 c 1,47,48
 838 1193 838 1193 884 1171.5 c 128,-1,49
 930 1150 930 1150 961.5 1117 c 128,-1,50
 993 1084 993 1084 1009 1042.5 c 128,-1,51
 1025 1001 1025 1001 1025 956 c 0,52,53
 1025 879 1025 879 997 812.5 c 128,-1,54
 969 746 969 746 910.5 696.5 c 128,-1,55
 852 647 852 647 762.5 618.5 c 128,-1,56
 673 590 673 590 550 590 c 0,57,58
 497 590 497 590 454.5 595.5 c 128,-1,59
 412 601 412 601 376.5 608.5 c 128,-1,60
 341 616 341 616 313 624 c 128,-1,61
 285 632 285 632 261 638 c 1,62,-1
 256 827 l 1,0,1
EndSplineSet
EndChar

StartChar: grave.cap
Encoding: 65537 -1 149
Width: 648
Flags: W
LayerCount: 2
Fore
SplineSet
415 1560 m 1,0,1
 382 1571 382 1571 332 1605 c 128,-1,2
 282 1639 282 1639 229.5 1684 c 128,-1,3
 177 1729 177 1729 129.5 1778 c 128,-1,4
 82 1827 82 1827 52 1869 c 1,5,-1
 278 2000 l 1,6,7
 283 1986 283 1986 304 1959 c 128,-1,8
 325 1932 325 1932 354.5 1899.5 c 128,-1,9
 384 1867 384 1867 418 1832.5 c 128,-1,10
 452 1798 452 1798 482.5 1767.5 c 128,-1,11
 513 1737 513 1737 535.5 1715 c 128,-1,12
 558 1693 558 1693 566 1686 c 1,13,-1
 415 1560 l 1,14,-1
 415 1560 l 1,0,1
EndSplineSet
EndChar

StartChar: dieresis.cap
Encoding: 65538 -1 150
Width: 989
Flags: W
LayerCount: 2
Fore
SplineSet
750 1637 m 0,0,1
 711 1637 711 1637 679 1649 c 128,-1,2
 647 1661 647 1661 624.5 1683 c 128,-1,3
 602 1705 602 1705 589.5 1736 c 128,-1,4
 577 1767 577 1767 577 1805 c 0,5,6
 577 1844 577 1844 592 1878 c 128,-1,7
 607 1912 607 1912 633 1937 c 128,-1,8
 659 1962 659 1962 694 1976.5 c 128,-1,9
 729 1991 729 1991 769 1991 c 0,10,11
 854 1991 854 1991 897 1944.5 c 128,-1,12
 940 1898 940 1898 940 1823 c 0,13,14
 940 1784 940 1784 925.5 1750 c 128,-1,15
 911 1716 911 1716 885.5 1691 c 128,-1,16
 860 1666 860 1666 825.5 1651.5 c 128,-1,17
 791 1637 791 1637 750 1637 c 0,0,1
223 1637 m 0,18,19
 184 1637 184 1637 152 1649 c 128,-1,20
 120 1661 120 1661 97.5 1683 c 128,-1,21
 75 1705 75 1705 62.5 1736 c 128,-1,22
 50 1767 50 1767 50 1805 c 0,23,24
 50 1844 50 1844 65 1878 c 128,-1,25
 80 1912 80 1912 106 1937 c 128,-1,26
 132 1962 132 1962 166.5 1976.5 c 128,-1,27
 201 1991 201 1991 241 1991 c 0,28,29
 326 1991 326 1991 369.5 1944.5 c 128,-1,30
 413 1898 413 1898 413 1823 c 0,31,32
 413 1784 413 1784 398.5 1750 c 128,-1,33
 384 1716 384 1716 358.5 1691 c 128,-1,34
 333 1666 333 1666 298 1651.5 c 128,-1,35
 263 1637 263 1637 223 1637 c 0,18,19
EndSplineSet
EndChar

StartChar: commaaccent
Encoding: 63171 63171 151
Width: 411
Flags: W
LayerCount: 2
Fore
SplineSet
240 -86 m 1,0,1
 255 -90 255 -90 273.5 -104.5 c 128,-1,2
 292 -119 292 -119 308.5 -144 c 128,-1,3
 325 -169 325 -169 336 -203 c 128,-1,4
 347 -237 347 -237 347 -279 c 0,5,6
 347 -340 347 -340 330 -389 c 128,-1,7
 313 -438 313 -438 289 -474 c 128,-1,8
 265 -510 265 -510 240 -532 c 128,-1,9
 215 -554 215 -554 200 -560 c 1,10,-1
 78 -516 l 1,11,-1
 78 -490 l 1,12,13
 92 -473 92 -473 99.5 -440.5 c 128,-1,14
 107 -408 107 -408 107 -353 c 0,15,16
 107 -333 107 -333 101.5 -313.5 c 128,-1,17
 96 -294 96 -294 87 -278 c 128,-1,18
 78 -262 78 -262 67.5 -250 c 128,-1,19
 57 -238 57 -238 47 -233 c 1,20,-1
 47 -183 l 1,21,-1
 240 -86 l 1,0,1
EndSplineSet
EndChar

StartChar: circumflex.cap
Encoding: 65539 -1 152
Width: 863
Flags: W
LayerCount: 2
Fore
SplineSet
43 1682 m 1,0,-1
 319 1992 l 1,1,-1
 542 1992 l 1,2,-1
 820 1684 l 1,3,-1
 652 1587 l 1,4,-1
 431 1785 l 1,5,-1
 209 1587 l 1,6,-1
 43 1682 l 1,0,-1
EndSplineSet
EndChar

StartChar: caron.cap
Encoding: 65540 -1 153
Width: 759
Flags: W
LayerCount: 2
Fore
SplineSet
43 1903 m 1,0,-1
 204 2000 l 1,1,-1
 425 1822 l 1,2,-1
 648 2000 l 1,3,-1
 806 1904 l 1,4,-1
 536 1611 l 1,5,-1
 314 1611 l 1,6,-1
 43 1903 l 1,0,-1
EndSplineSet
EndChar

StartChar: breve.cap
Encoding: 65541 -1 154
Width: 808
Flags: W
LayerCount: 2
Fore
SplineSet
405 1632 m 0,0,1
 311 1632 311 1632 240.5 1664.5 c 128,-1,2
 170 1697 170 1697 123.5 1749 c 128,-1,3
 77 1801 77 1801 55 1867 c 128,-1,4
 33 1933 33 1933 36 2000 c 1,5,-1
 234 2000 l 1,6,7
 235 1989 235 1989 240.5 1964.5 c 128,-1,8
 246 1940 246 1940 263.5 1914.5 c 128,-1,9
 281 1889 281 1889 314.5 1869.5 c 128,-1,10
 348 1850 348 1850 405 1850 c 0,11,12
 461 1850 461 1850 494 1869.5 c 128,-1,13
 527 1889 527 1889 545 1914.5 c 128,-1,14
 563 1940 563 1940 569.5 1964.5 c 128,-1,15
 576 1989 576 1989 578 2000 c 1,16,-1
 772 2000 l 1,17,18
 774 1933 774 1933 750.5 1867 c 128,-1,19
 727 1801 727 1801 680 1749 c 128,-1,20
 633 1697 633 1697 563.5 1664.5 c 128,-1,21
 494 1632 494 1632 405 1632 c 0,0,1
EndSplineSet
EndChar

StartChar: ring.cap
Encoding: 65542 -1 155
Width: 760
Flags: W
LayerCount: 2
Fore
SplineSet
377 1420 m 0,0,1
 295 1420 295 1420 231 1440.5 c 128,-1,2
 167 1461 167 1461 122.5 1500 c 128,-1,3
 78 1539 78 1539 55.5 1594 c 128,-1,4
 33 1649 33 1649 34 1718 c 0,5,6
 35 1795 35 1795 66.5 1849 c 128,-1,7
 98 1903 98 1903 148 1936.5 c 128,-1,8
 198 1970 198 1970 260.5 1985 c 128,-1,9
 323 2000 323 2000 386 2000 c 0,10,11
 465 2000 465 2000 528 1981.5 c 128,-1,12
 591 1963 591 1963 635 1926.5 c 128,-1,13
 679 1890 679 1890 702.5 1836.5 c 128,-1,14
 726 1783 726 1783 726 1713 c 0,15,16
 725 1635 725 1635 695.5 1579.5 c 128,-1,17
 666 1524 666 1524 617.5 1488.5 c 128,-1,18
 569 1453 569 1453 506.5 1436.5 c 128,-1,19
 444 1420 444 1420 377 1420 c 0,0,1
380 1576 m 0,20,21
 416 1576 416 1576 445 1582 c 128,-1,22
 474 1588 474 1588 495 1603 c 128,-1,23
 516 1618 516 1618 527.5 1644 c 128,-1,24
 539 1670 539 1670 539 1709 c 0,25,26
 539 1742 539 1742 527 1768.5 c 128,-1,27
 515 1795 515 1795 493.5 1813 c 128,-1,28
 472 1831 472 1831 443 1841 c 128,-1,29
 414 1851 414 1851 380 1851 c 0,30,31
 349 1851 349 1851 320.5 1844.5 c 128,-1,32
 292 1838 292 1838 270 1822.5 c 128,-1,33
 248 1807 248 1807 235 1781 c 128,-1,34
 222 1755 222 1755 222 1716 c 0,35,36
 222 1684 222 1684 233.5 1658.5 c 128,-1,37
 245 1633 245 1633 266 1614.5 c 128,-1,38
 287 1596 287 1596 316 1586 c 128,-1,39
 345 1576 345 1576 380 1576 c 0,20,21
EndSplineSet
EndChar

StartChar: tilde.cap
Encoding: 65543 -1 156
Width: 927
Flags: W
LayerCount: 2
Fore
SplineSet
24 1760 m 1,0,1
 40 1806 40 1806 67 1847.5 c 128,-1,2
 94 1889 94 1889 132.5 1920 c 128,-1,3
 171 1951 171 1951 219.5 1969 c 128,-1,4
 268 1987 268 1987 327 1987 c 0,5,6
 371 1987 371 1987 403 1977.5 c 128,-1,7
 435 1968 435 1968 459 1954 c 128,-1,8
 483 1940 483 1940 502 1924 c 128,-1,9
 521 1908 521 1908 539 1894 c 128,-1,10
 557 1880 557 1880 577 1870.5 c 128,-1,11
 597 1861 597 1861 623 1861 c 0,12,13
 648 1861 648 1861 671 1870.5 c 128,-1,14
 694 1880 694 1880 713.5 1895 c 128,-1,15
 733 1910 733 1910 749.5 1929 c 128,-1,16
 766 1948 766 1948 780 1967 c 1,17,-1
 906 1853 l 1,18,19
 890 1805 890 1805 863.5 1763 c 128,-1,20
 837 1721 837 1721 799.5 1690.5 c 128,-1,21
 762 1660 762 1660 713.5 1642 c 128,-1,22
 665 1624 665 1624 607 1624 c 0,23,24
 566 1624 566 1624 535.5 1633.5 c 128,-1,25
 505 1643 505 1643 481 1657 c 128,-1,26
 457 1671 457 1671 437.5 1688 c 128,-1,27
 418 1705 418 1705 398 1719 c 128,-1,28
 378 1733 378 1733 356 1742.5 c 128,-1,29
 334 1752 334 1752 306 1752 c 0,30,31
 283 1752 283 1752 261.5 1743.5 c 128,-1,32
 240 1735 240 1735 219.5 1721 c 128,-1,33
 199 1707 199 1707 181.5 1689.5 c 128,-1,34
 164 1672 164 1672 151 1655 c 1,35,-1
 24 1760 l 1,0,1
EndSplineSet
EndChar

StartChar: hungarumlaut.cap
Encoding: 65544 -1 157
Width: 962
Flags: W
LayerCount: 2
Fore
SplineSet
41 1695 m 1,0,1
 49 1702 49 1702 66.5 1723.5 c 128,-1,2
 84 1745 84 1745 107 1774 c 128,-1,3
 130 1803 130 1803 155 1837 c 128,-1,4
 180 1871 180 1871 201.5 1902.5 c 128,-1,5
 223 1934 223 1934 239.5 1960 c 128,-1,6
 256 1986 256 1986 261 2000 c 1,7,-1
 497 1887 l 1,8,9
 466 1842 466 1842 427.5 1793 c 128,-1,10
 389 1744 389 1744 349.5 1700.5 c 128,-1,11
 310 1657 310 1657 272.5 1624 c 128,-1,12
 235 1591 235 1591 207 1578 c 1,13,-1
 41 1695 l 1,0,1
555 1695 m 1,14,15
 563 1702 563 1702 581 1723.5 c 128,-1,16
 599 1745 599 1745 622 1774 c 128,-1,17
 645 1803 645 1803 670.5 1836 c 128,-1,18
 696 1869 696 1869 718 1900 c 128,-1,19
 740 1931 740 1931 756.5 1957 c 128,-1,20
 773 1983 773 1983 779 1997 c 1,21,-1
 1011 1883 l 1,22,23
 982 1839 982 1839 944 1791 c 128,-1,24
 906 1743 906 1743 866 1700 c 128,-1,25
 826 1657 826 1657 788 1624 c 128,-1,26
 750 1591 750 1591 720 1578 c 1,27,-1
 555 1695 l 1,14,15
EndSplineSet
EndChar

StartChar: percent
Encoding: 37 37 158
Width: 2198
Flags: W
LayerCount: 2
Fore
SplineSet
1265 1530 m 1,0,-1
 1520 1530 l 1,1,-1
 934 0 l 1,2,-1
 681 0 l 1,3,-1
 1265 1530 l 1,0,-1
498 619 m 0,4,5
 397 618 397 618 321.5 653.5 c 128,-1,6
 246 689 246 689 196.5 750 c 128,-1,7
 147 811 147 811 122.5 893 c 128,-1,8
 98 975 98 975 98 1068 c 0,9,10
 98 1177 98 1177 134 1262 c 128,-1,11
 170 1347 170 1347 230 1405 c 128,-1,12
 290 1463 290 1463 368 1493.5 c 128,-1,13
 446 1524 446 1524 531 1525 c 0,14,15
 636 1526 636 1526 712 1491 c 128,-1,16
 788 1456 788 1456 836.5 1395 c 128,-1,17
 885 1334 885 1334 908.5 1251.5 c 128,-1,18
 932 1169 932 1169 932 1075 c 0,19,20
 932 965 932 965 896 880.5 c 128,-1,21
 860 796 860 796 800 738 c 128,-1,22
 740 680 740 680 661.5 650 c 128,-1,23
 583 620 583 620 498 619 c 0,4,5
512 824 m 0,24,25
 591 824 591 824 633.5 888.5 c 128,-1,26
 676 953 676 953 676 1067 c 0,27,28
 676 1125 676 1125 665 1172 c 128,-1,29
 654 1219 654 1219 633.5 1252.5 c 128,-1,30
 613 1286 613 1286 583.5 1304 c 128,-1,31
 554 1322 554 1322 516 1322 c 0,32,33
 437 1322 437 1322 395 1257 c 128,-1,34
 353 1192 353 1192 353 1077 c 0,35,36
 353 1021 353 1021 363.5 974.5 c 128,-1,37
 374 928 374 928 394.5 894.5 c 128,-1,38
 415 861 415 861 444.5 842.5 c 128,-1,39
 474 824 474 824 512 824 c 0,24,25
1266 458 m 0,40,41
 1266 568 1266 568 1302 653 c 128,-1,42
 1338 738 1338 738 1398.5 796 c 128,-1,43
 1459 854 1459 854 1537.5 884 c 128,-1,44
 1616 914 1616 914 1701 915 c 0,45,46
 1805 916 1805 916 1880.5 881 c 128,-1,47
 1956 846 1956 846 2005 785 c 128,-1,48
 2054 724 2054 724 2077.5 641.5 c 128,-1,49
 2101 559 2101 559 2101 465 c 0,50,51
 2101 355 2101 355 2065 270.5 c 128,-1,52
 2029 186 2029 186 1968.5 128 c 128,-1,53
 1908 70 1908 70 1829.5 40 c 128,-1,54
 1751 10 1751 10 1666 9 c 1,55,56
 1565 9 1565 9 1489.5 44 c 128,-1,57
 1414 79 1414 79 1364.5 140 c 128,-1,58
 1315 201 1315 201 1290.5 283 c 128,-1,59
 1266 365 1266 365 1266 458 c 0,40,41
1522 468 m 0,60,61
 1522 411 1522 411 1532.5 364.5 c 128,-1,62
 1543 318 1543 318 1563.5 284.5 c 128,-1,63
 1584 251 1584 251 1613.5 232.5 c 128,-1,64
 1643 214 1643 214 1681 214 c 0,65,66
 1760 214 1760 214 1802 278.5 c 128,-1,67
 1844 343 1844 343 1844 457 c 0,68,69
 1844 514 1844 514 1833.5 561 c 128,-1,70
 1823 608 1823 608 1802.5 641.5 c 128,-1,71
 1782 675 1782 675 1752.5 693.5 c 128,-1,72
 1723 712 1723 712 1685 712 c 0,73,74
 1606 712 1606 712 1564 647 c 128,-1,75
 1522 582 1522 582 1522 468 c 0,60,61
EndSplineSet
Ligature2: "'frac' Diagonal Fractions in Latin lookup 10 subtable" zero slash zero
EndChar

StartChar: oslash
Encoding: 248 248 159
Width: 1259
Flags: W
LayerCount: 2
Fore
SplineSet
368 30 m 1,0,1
 286 65 286 65 229 123 c 128,-1,2
 172 181 172 181 136 254.5 c 128,-1,3
 100 328 100 328 84 414.5 c 128,-1,4
 68 501 68 501 69 594 c 0,5,6
 71 731 71 731 114.5 836 c 128,-1,7
 158 941 158 941 234 1012 c 128,-1,8
 310 1083 310 1083 413.5 1119.5 c 128,-1,9
 517 1156 517 1156 640 1156 c 0,10,11
 674 1156 674 1156 705 1153 c 128,-1,12
 736 1150 736 1150 765 1145 c 1,13,-1
 845 1370 l 1,14,-1
 972 1339 l 1,15,-1
 890 1110 l 1,16,17
 972 1075 972 1075 1030 1017 c 128,-1,18
 1088 959 1088 959 1124 885 c 128,-1,19
 1160 811 1160 811 1175.5 724.5 c 128,-1,20
 1191 638 1191 638 1190 546 c 0,21,22
 1188 409 1188 409 1144.5 304 c 128,-1,23
 1101 199 1101 199 1025 128 c 128,-1,24
 949 57 949 57 845.5 20.5 c 128,-1,25
 742 -16 742 -16 619 -16 c 0,26,27
 554 -16 554 -16 493 -5 c 1,28,-1
 416 -223 l 1,29,-1
 289 -192 l 1,30,-1
 368 30 l 1,0,1
684 920 m 1,31,32
 673 923 673 923 660.5 925 c 128,-1,33
 648 927 648 927 634 927 c 0,34,35
 573 927 573 927 529.5 904.5 c 128,-1,36
 486 882 486 882 458 838 c 128,-1,37
 430 794 430 794 416.5 730 c 128,-1,38
 403 666 403 666 403 585 c 256,39,40
 403 504 403 504 418 431.5 c 128,-1,41
 433 359 433 359 466 306 c 1,42,-1
 684 920 l 1,31,32
573 219 m 1,43,44
 600 211 600 211 626 211 c 0,45,46
 686 210 686 210 729.5 233 c 128,-1,47
 773 256 773 256 801 301 c 128,-1,48
 829 346 829 346 842.5 411.5 c 128,-1,49
 856 477 856 477 856 562 c 0,50,51
 856 640 856 640 840.5 711.5 c 128,-1,52
 825 783 825 783 792 835 c 1,53,-1
 573 219 l 1,43,44
EndSplineSet
EndChar

StartChar: aogonek
Encoding: 261 261 160
Width: 1170
Flags: W
LayerCount: 2
Fore
SplineSet
65 330 m 0,0,1
 65 437 65 437 121 514 c 128,-1,2
 177 591 177 591 277 635 c 1,3,4
 326 655 326 655 381 668.5 c 128,-1,5
 436 682 436 682 493 690 c 128,-1,6
 550 698 550 698 607 701.5 c 128,-1,7
 664 705 664 705 718 705 c 1,8,-1
 718 764 l 2,9,10
 718 806 718 806 707 835 c 128,-1,11
 696 864 696 864 672 882 c 128,-1,12
 648 900 648 900 610 908 c 128,-1,13
 572 916 572 916 518 916 c 0,14,15
 473 916 473 916 424 908 c 128,-1,16
 375 900 375 900 330 887.5 c 128,-1,17
 285 875 285 875 249 861 c 128,-1,18
 213 847 213 847 194 835 c 1,19,-1
 122 1041 l 1,20,21
 138 1051 138 1051 182.5 1071 c 128,-1,22
 227 1091 227 1091 291.5 1111 c 128,-1,23
 356 1131 356 1131 436.5 1146.5 c 128,-1,24
 517 1162 517 1162 606 1162 c 0,25,26
 714 1162 714 1162 795.5 1143 c 128,-1,27
 877 1124 877 1124 931.5 1076 c 128,-1,28
 986 1028 986 1028 1013.5 946 c 128,-1,29
 1041 864 1041 864 1041 738 c 2,30,-1
 1041 -16 l 1,31,-1
 973 -16 l 1,32,33
 939 -38 939 -38 910 -61 c 128,-1,34
 881 -84 881 -84 860 -108.5 c 128,-1,35
 839 -133 839 -133 828 -161 c 128,-1,36
 817 -189 817 -189 819 -221 c 0,37,38
 822 -270 822 -270 856 -289.5 c 128,-1,39
 890 -309 890 -309 941 -309 c 0,40,41
 970 -309 970 -309 1001 -303.5 c 128,-1,42
 1032 -298 1032 -298 1063 -289 c 1,43,-1
 1063 -448 l 1,44,45
 1018 -480 1018 -480 956.5 -498 c 128,-1,46
 895 -516 895 -516 827 -516 c 0,47,48
 778 -516 778 -516 731.5 -502.5 c 128,-1,49
 685 -489 685 -489 648 -463 c 128,-1,50
 611 -437 611 -437 587.5 -399.5 c 128,-1,51
 564 -362 564 -362 562 -314 c 0,52,53
 559 -260 559 -260 576.5 -213.5 c 128,-1,54
 594 -167 594 -167 624 -128 c 128,-1,55
 654 -89 654 -89 693 -58.5 c 128,-1,56
 732 -28 732 -28 771 -6 c 1,57,58
 751 3 751 3 741.5 24 c 128,-1,59
 732 45 732 45 732 88 c 2,60,-1
 732 96 l 1,61,62
 709 75 709 75 675.5 55 c 128,-1,63
 642 35 642 35 601 19 c 128,-1,64
 560 3 560 3 512.5 -6.5 c 128,-1,65
 465 -16 465 -16 415 -16 c 0,66,67
 338 -16 338 -16 274 6 c 128,-1,68
 210 28 210 28 163.5 71.5 c 128,-1,69
 117 115 117 115 91 179.5 c 128,-1,70
 65 244 65 244 65 330 c 0,0,1
392 348 m 0,71,72
 392 310 392 310 404.5 282 c 128,-1,73
 417 254 417 254 438 235.5 c 128,-1,74
 459 217 459 217 487 208 c 128,-1,75
 515 199 515 199 547 199 c 0,76,77
 572 199 572 199 599 205 c 128,-1,78
 626 211 626 211 650 220 c 128,-1,79
 674 229 674 229 692 239.5 c 128,-1,80
 710 250 710 250 718 260 c 1,81,-1
 718 528 l 1,82,83
 691 528 691 528 659.5 525 c 128,-1,84
 628 522 628 522 597.5 516.5 c 128,-1,85
 567 511 567 511 540.5 504 c 128,-1,86
 514 497 514 497 497 489 c 0,87,88
 479 481 479 481 460.5 471 c 128,-1,89
 442 461 442 461 426.5 444.5 c 128,-1,90
 411 428 411 428 401.5 404.5 c 128,-1,91
 392 381 392 381 392 348 c 0,71,72
EndSplineSet
EndChar

StartChar: Thorn
Encoding: 222 222 161
Width: 1317
Flags: W
LayerCount: 2
Fore
SplineSet
164 1522 m 1,0,-1
 499 1522 l 1,1,-1
 499 1276 l 1,2,3
 553 1280 553 1280 613.5 1284.5 c 128,-1,4
 674 1289 674 1289 738 1289 c 0,5,6
 861 1289 861 1289 959.5 1259.5 c 128,-1,7
 1058 1230 1058 1230 1127.5 1170 c 128,-1,8
 1197 1110 1197 1110 1234 1018.5 c 128,-1,9
 1271 927 1271 927 1271 803 c 0,10,11
 1271 674 1271 674 1233.5 572 c 128,-1,12
 1196 470 1196 470 1123.5 399 c 128,-1,13
 1051 328 1051 328 943.5 290.5 c 128,-1,14
 836 253 836 253 696 253 c 0,15,16
 624 253 624 253 576.5 256.5 c 128,-1,17
 529 260 529 260 499 263 c 1,18,-1
 499 0 l 1,19,-1
 164 0 l 1,20,-1
 164 1522 l 1,0,-1
499 513 m 1,21,22
 538 505 538 505 576.5 503.5 c 128,-1,23
 615 502 615 502 649 502 c 0,24,25
 709 502 709 502 763 513 c 128,-1,26
 817 524 817 524 857.5 556.5 c 128,-1,27
 898 589 898 589 922 647 c 128,-1,28
 946 705 946 705 946 800 c 0,29,30
 946 923 946 923 870 985 c 128,-1,31
 794 1047 794 1047 646 1042 c 0,32,33
 611 1040 611 1040 572 1036 c 128,-1,34
 533 1032 533 1032 499 1024 c 1,35,-1
 499 513 l 1,21,22
EndSplineSet
EndChar

StartChar: ordfeminine
Encoding: 170 170 162
Width: 1060
Flags: W
LayerCount: 2
Fore
SplineSet
408 666 m 0,0,1
 339 666 339 666 284.5 686 c 128,-1,2
 230 706 230 706 192 742 c 128,-1,3
 154 778 154 778 134 828.5 c 128,-1,4
 114 879 114 879 114 941 c 0,5,6
 114 993 114 993 128.5 1035.5 c 128,-1,7
 143 1078 143 1078 169 1112 c 128,-1,8
 195 1146 195 1146 230.5 1170.5 c 128,-1,9
 266 1195 266 1195 307 1212 c 1,10,11
 395 1244 395 1244 487 1255.5 c 128,-1,12
 579 1267 579 1267 667 1267 c 1,13,-1
 667 1303 l 2,14,15
 667 1342 667 1342 657.5 1366 c 128,-1,16
 648 1390 648 1390 627 1403 c 128,-1,17
 606 1416 606 1416 573 1420.5 c 128,-1,18
 540 1425 540 1425 494 1425 c 0,19,20
 459 1425 459 1425 415 1417.5 c 128,-1,21
 371 1410 371 1410 328 1398.5 c 128,-1,22
 285 1387 285 1387 249.5 1374 c 128,-1,23
 214 1361 214 1361 197 1349 c 1,24,-1
 141 1508 l 1,25,26
 155 1521 155 1521 197 1540 c 128,-1,27
 239 1559 239 1559 296 1576.5 c 128,-1,28
 353 1594 353 1594 417.5 1606.5 c 128,-1,29
 482 1619 482 1619 542 1619 c 0,30,31
 639 1619 639 1619 712.5 1603 c 128,-1,32
 786 1587 786 1587 835.5 1550.5 c 128,-1,33
 885 1514 885 1514 910 1454.5 c 128,-1,34
 935 1395 935 1395 935 1308 c 2,35,-1
 935 676 l 1,36,-1
 797 676 l 2,37,38
 769 676 769 676 747 676.5 c 128,-1,39
 725 677 725 677 710 683.5 c 128,-1,40
 695 690 695 690 687 705.5 c 128,-1,41
 679 721 679 721 679 751 c 2,42,-1
 679 764 l 1,43,44
 665 749 665 749 637 732 c 128,-1,45
 609 715 609 715 573 700 c 128,-1,46
 537 685 537 685 494.5 675.5 c 128,-1,47
 452 666 452 666 408 666 c 0,0,1
497 860 m 0,48,49
 527 860 527 860 555 865 c 128,-1,50
 583 870 583 870 605.5 877.5 c 128,-1,51
 628 885 628 885 644 893 c 128,-1,52
 660 901 660 901 667 907 c 1,53,-1
 667 1121 l 1,54,55
 604 1121 604 1121 549 1115.5 c 128,-1,56
 494 1110 494 1110 450 1087 c 1,57,58
 406 1061 406 1061 391 1029.5 c 128,-1,59
 376 998 376 998 376 960 c 0,60,61
 376 935 376 935 386 916.5 c 128,-1,62
 396 898 396 898 413 885.5 c 128,-1,63
 430 873 430 873 451.5 866.5 c 128,-1,64
 473 860 473 860 497 860 c 0,48,49
EndSplineSet
EndChar

StartChar: ordmasculine
Encoding: 186 186 163
Width: 1058
Flags: W
LayerCount: 2
Fore
SplineSet
525 668 m 0,0,1
 414 668 414 668 329.5 703 c 128,-1,2
 245 738 245 738 188 802 c 128,-1,3
 131 866 131 866 102.5 956 c 128,-1,4
 74 1046 74 1046 75 1157 c 0,5,6
 77 1283 77 1283 119.5 1371.5 c 128,-1,7
 162 1460 162 1460 229 1515.5 c 128,-1,8
 296 1571 296 1571 379.5 1596 c 128,-1,9
 463 1621 463 1621 548 1621 c 0,10,11
 656 1621 656 1621 737.5 1585.5 c 128,-1,12
 819 1550 819 1550 874 1486 c 128,-1,13
 929 1422 929 1422 955.5 1333 c 128,-1,14
 982 1244 982 1244 981 1137 c 0,15,16
 979 1011 979 1011 940 921.5 c 128,-1,17
 901 832 901 832 837.5 776 c 128,-1,18
 774 720 774 720 693 694 c 128,-1,19
 612 668 612 668 525 668 c 0,0,1
537 865 m 0,20,21
 624 866 624 866 665 929 c 128,-1,22
 706 992 706 992 706 1135 c 0,23,24
 706 1202 706 1202 696 1256 c 128,-1,25
 686 1310 686 1310 665 1347.5 c 128,-1,26
 644 1385 644 1385 612 1404.5 c 128,-1,27
 580 1424 580 1424 537 1423 c 0,28,29
 493 1422 493 1422 458 1407.5 c 128,-1,30
 423 1393 423 1393 399 1361.5 c 128,-1,31
 375 1330 375 1330 362 1279.5 c 128,-1,32
 349 1229 349 1229 349 1157 c 0,33,34
 349 1091 349 1091 360.5 1036.5 c 128,-1,35
 372 982 372 982 395.5 944 c 128,-1,36
 419 906 419 906 454.5 885 c 128,-1,37
 490 864 490 864 537 865 c 0,20,21
EndSplineSet
EndChar

StartChar: section
Encoding: 167 167 164
Width: 1358
Flags: W
LayerCount: 2
Fore
SplineSet
294 133 m 1,0,1
 313 118 313 118 345.5 101.5 c 128,-1,2
 378 85 378 85 421.5 70.5 c 128,-1,3
 465 56 465 56 520 47 c 128,-1,4
 575 38 575 38 639 38 c 0,5,6
 682 38 682 38 722.5 45 c 128,-1,7
 763 52 763 52 794 67.5 c 128,-1,8
 825 83 825 83 843.5 107.5 c 128,-1,9
 862 132 862 132 862 168 c 0,10,11
 862 203 862 203 832.5 230 c 128,-1,12
 803 257 803 257 754.5 280.5 c 128,-1,13
 706 304 706 304 644.5 326.5 c 128,-1,14
 583 349 583 349 518.5 376 c 128,-1,15
 454 403 454 403 392.5 437 c 128,-1,16
 331 471 331 471 282.5 517 c 128,-1,17
 234 563 234 563 204.5 623.5 c 128,-1,18
 175 684 175 684 175 764 c 0,19,20
 175 851 175 851 222 927 c 128,-1,21
 269 1003 269 1003 345 1064 c 1,22,23
 293 1112 293 1112 261 1174 c 128,-1,24
 229 1236 229 1236 229 1323 c 0,25,26
 229 1386 229 1386 249 1437 c 128,-1,27
 269 1488 269 1488 304 1527 c 128,-1,28
 339 1566 339 1566 385.5 1593.5 c 128,-1,29
 432 1621 432 1621 485 1638.5 c 128,-1,30
 538 1656 538 1656 593.5 1664.5 c 128,-1,31
 649 1673 649 1673 703 1673 c 0,32,33
 773 1673 773 1673 831.5 1666.5 c 128,-1,34
 890 1660 890 1660 936 1649.5 c 128,-1,35
 982 1639 982 1639 1016 1626 c 128,-1,36
 1050 1613 1050 1613 1072 1600 c 1,37,-1
 1028 1367 l 1,38,39
 1012 1379 1012 1379 986 1392.5 c 128,-1,40
 960 1406 960 1406 923 1417 c 128,-1,41
 886 1428 886 1428 836.5 1435.5 c 128,-1,42
 787 1443 787 1443 724 1443 c 0,43,44
 684 1443 684 1443 646.5 1436 c 128,-1,45
 609 1429 609 1429 580.5 1414.5 c 128,-1,46
 552 1400 552 1400 535 1377 c 128,-1,47
 518 1354 518 1354 518 1320 c 0,48,49
 518 1282 518 1282 547 1251.5 c 128,-1,50
 576 1221 576 1221 623.5 1194 c 128,-1,51
 671 1167 671 1167 732 1141 c 128,-1,52
 793 1115 793 1115 856 1085 c 128,-1,53
 919 1055 919 1055 980 1018.5 c 128,-1,54
 1041 982 1041 982 1088.5 934 c 128,-1,55
 1136 886 1136 886 1165 825 c 128,-1,56
 1194 764 1194 764 1194 684 c 0,57,58
 1194 602 1194 602 1158 531.5 c 128,-1,59
 1122 461 1122 461 1062 401 c 1,60,61
 1103 357 1103 357 1127 299.5 c 128,-1,62
 1151 242 1151 242 1151 164 c 0,63,64
 1151 68 1151 68 1106 0 c 128,-1,65
 1061 -68 1061 -68 989.5 -111 c 128,-1,66
 918 -154 918 -154 831 -173.5 c 128,-1,67
 744 -193 744 -193 660 -193 c 0,68,69
 589 -193 589 -193 525 -184.5 c 128,-1,70
 461 -176 461 -176 408 -162.5 c 128,-1,71
 355 -149 355 -149 314.5 -132.5 c 128,-1,72
 274 -116 274 -116 251 -100 c 1,73,-1
 294 133 l 1,0,1
450 820 m 0,74,75
 450 777 450 777 469 744.5 c 128,-1,76
 488 712 488 712 521.5 686 c 128,-1,77
 555 660 555 660 599 639.5 c 128,-1,78
 643 619 643 619 692.5 599.5 c 128,-1,79
 742 580 742 580 795 560 c 128,-1,80
 848 540 848 540 898 516 c 1,81,82
 911 546 911 546 918.5 575 c 128,-1,83
 926 604 926 604 926 628 c 0,84,85
 926 672 926 672 908 707 c 128,-1,86
 890 742 890 742 859 770.5 c 128,-1,87
 828 799 828 799 786.5 823 c 128,-1,88
 745 847 745 847 697.5 869.5 c 128,-1,89
 650 892 650 892 599.5 914 c 128,-1,90
 549 936 549 936 500 961 c 1,91,92
 479 927 479 927 464.5 890.5 c 128,-1,93
 450 854 450 854 450 820 c 0,74,75
EndSplineSet
EndChar

StartChar: acute.cap
Encoding: 65545 -1 165
Width: 648
Flags: W
LayerCount: 2
Fore
SplineSet
84 1686 m 1,0,1
 92 1693 92 1693 114.5 1715 c 128,-1,2
 137 1737 137 1737 167.5 1767.5 c 128,-1,3
 198 1798 198 1798 232 1832.5 c 128,-1,4
 266 1867 266 1867 295.5 1899.5 c 128,-1,5
 325 1932 325 1932 346 1959 c 128,-1,6
 367 1986 367 1986 372 2000 c 1,7,-1
 598 1869 l 1,8,9
 566 1826 566 1826 519 1777 c 128,-1,10
 472 1728 472 1728 421 1683.5 c 128,-1,11
 370 1639 370 1639 320.5 1605.5 c 128,-1,12
 271 1572 271 1572 235 1560 c 1,13,-1
 84 1686 l 1,0,1
EndSplineSet
EndChar

StartChar: AE
Encoding: 198 198 166
Width: 1900
Flags: W
LayerCount: 2
Fore
SplineSet
623 1522 m 1,0,-1
 1772 1522 l 1,1,-1
 1772 1268 l 1,2,-1
 1173 1268 l 1,3,-1
 1173 907 l 1,4,-1
 1632 907 l 1,5,-1
 1632 658 l 1,6,-1
 1173 658 l 1,7,-1
 1173 262 l 1,8,-1
 1836 262 l 1,9,-1
 1836 0 l 1,10,-1
 838 0 l 1,11,-1
 838 368 l 1,12,-1
 395 368 l 1,13,-1
 223 0 l 1,14,-1
 -135 0 l 1,15,-1
 623 1522 l 1,0,-1
838 598 m 1,16,-1
 838 1317 l 1,17,-1
 502 598 l 1,18,-1
 838 598 l 1,16,-1
EndSplineSet
EndChar

StartChar: dollar
Encoding: 36 36 167
Width: 1365
Flags: W
LayerCount: 2
Fore
SplineSet
199 338 m 1,0,1
 227 321 227 321 268.5 304 c 128,-1,2
 310 287 310 287 358.5 273.5 c 128,-1,3
 407 260 407 260 460.5 251.5 c 128,-1,4
 514 243 514 243 565 243 c 0,5,6
 622 243 622 243 669 251.5 c 128,-1,7
 716 260 716 260 750 279 c 128,-1,8
 784 298 784 298 803 326.5 c 128,-1,9
 822 355 822 355 822 396 c 0,10,11
 822 439 822 439 800 472 c 128,-1,12
 778 505 778 505 736 535 c 128,-1,13
 694 565 694 565 633 595 c 128,-1,14
 572 625 572 625 494 663 c 0,15,16
 324 744 324 744 238 856 c 128,-1,17
 152 968 152 968 152 1126 c 0,18,19
 152 1221 152 1221 185.5 1292.5 c 128,-1,20
 219 1364 219 1364 276.5 1414 c 128,-1,21
 334 1464 334 1464 411.5 1493 c 128,-1,22
 489 1522 489 1522 576 1532 c 1,23,-1
 583 1763 l 1,24,-1
 770 1763 l 1,25,-1
 764 1535 l 1,26,27
 830 1530 830 1530 882 1520.5 c 128,-1,28
 934 1511 934 1511 974.5 1499 c 128,-1,29
 1015 1487 1015 1487 1044 1474 c 128,-1,30
 1073 1461 1073 1461 1091 1450 c 1,31,-1
 1038 1194 l 1,32,33
 984 1230 984 1230 902 1258 c 128,-1,34
 820 1286 820 1286 711 1286 c 0,35,36
 662 1286 662 1286 620.5 1277 c 128,-1,37
 579 1268 579 1268 549 1250 c 128,-1,38
 519 1232 519 1232 502 1204 c 128,-1,39
 485 1176 485 1176 485 1139 c 0,40,41
 485 1101 485 1101 498 1071.5 c 128,-1,42
 511 1042 511 1042 542 1014.5 c 128,-1,43
 573 987 573 987 624 958.5 c 128,-1,44
 675 930 675 930 751 894 c 0,45,46
 834 855 834 855 907.5 809.5 c 128,-1,47
 981 764 981 764 1035.5 708 c 128,-1,48
 1090 652 1090 652 1122 584.5 c 128,-1,49
 1154 517 1154 517 1154 436 c 0,50,51
 1154 332 1154 332 1123.5 253 c 128,-1,52
 1093 174 1093 174 1036.5 119 c 128,-1,53
 980 64 980 64 899 31.5 c 128,-1,54
 818 -1 818 -1 717 -11 c 1,55,-1
 711 -225 l 1,56,-1
 523 -225 l 1,57,-1
 529 -13 l 1,58,59
 462 -9 462 -9 401.5 1 c 128,-1,60
 341 11 341 11 292 23.5 c 128,-1,61
 243 36 243 36 207 49.5 c 128,-1,62
 171 63 171 63 153 75 c 1,63,-1
 199 338 l 1,0,1
EndSplineSet
EndChar

StartChar: Oslash
Encoding: 216 216 168
Width: 1581
Flags: W
LayerCount: 2
Fore
SplineSet
456 51 m 1,0,1
 366 95 366 95 296.5 165 c 128,-1,2
 227 235 227 235 179.5 327 c 128,-1,3
 132 419 132 419 108.5 530.5 c 128,-1,4
 85 642 85 642 88 769 c 0,5,6
 92 968 92 968 147.5 1111 c 128,-1,7
 203 1254 203 1254 299 1347.5 c 128,-1,8
 395 1441 395 1441 526.5 1487 c 128,-1,9
 658 1533 658 1533 813 1538 c 0,10,11
 860 1540 860 1540 904 1535.5 c 128,-1,12
 948 1531 948 1531 990 1522 c 1,13,-1
 1086 1787 l 1,14,-1
 1214 1756 l 1,15,-1
 1114 1481 l 1,16,17
 1205 1440 1205 1440 1276 1371 c 128,-1,18
 1347 1302 1347 1302 1395.5 1210.5 c 128,-1,19
 1444 1119 1444 1119 1468.5 1006 c 128,-1,20
 1493 893 1493 893 1491 763 c 0,21,22
 1487 565 1487 565 1433.5 419.5 c 128,-1,23
 1380 274 1380 274 1286.5 178 c 128,-1,24
 1193 82 1193 82 1064.5 34.5 c 128,-1,25
 936 -13 936 -13 783 -16 c 0,26,27
 727 -17 727 -17 676 -11 c 128,-1,28
 625 -5 625 -5 577 6 c 1,29,-1
 494 -223 l 1,30,-1
 368 -192 l 1,31,-1
 456 51 l 1,0,1
899 1272 m 1,32,33
 855 1286 855 1286 806 1286 c 0,34,35
 729 1286 729 1286 660.5 1258 c 128,-1,36
 592 1230 592 1230 541 1167 c 128,-1,37
 490 1104 490 1104 460 1003.5 c 128,-1,38
 430 903 430 903 430 758 c 0,39,40
 430 623 430 623 461.5 513 c 128,-1,41
 493 403 493 403 558 331 c 1,42,-1
 899 1272 l 1,32,33
667 254 m 1,43,44
 724 231 724 231 790 231 c 0,45,46
 872 231 872 231 939 262.5 c 128,-1,47
 1006 294 1006 294 1052.5 360 c 128,-1,48
 1099 426 1099 426 1124.5 528.5 c 128,-1,49
 1150 631 1150 631 1150 773 c 0,50,51
 1150 914 1150 914 1116 1025.5 c 128,-1,52
 1082 1137 1082 1137 1013 1204 c 1,53,-1
 667 254 l 1,43,44
EndSplineSet
EndChar

StartChar: Lslash
Encoding: 321 321 169
Width: 1100
Flags: W
LayerCount: 2
Fore
SplineSet
164 602 m 1,0,-1
 70 568 l 1,1,-1
 3 743 l 1,2,-1
 164 802 l 1,3,-1
 164 1522 l 1,4,-1
 507 1522 l 1,5,-1
 507 929 l 1,6,-1
 797 1036 l 1,7,-1
 864 859 l 1,8,-1
 507 728 l 1,9,-1
 507 250 l 1,10,-1
 1035 250 l 1,11,-1
 1035 0 l 1,12,-1
 164 0 l 1,13,-1
 164 602 l 1,0,-1
EndSplineSet
EndChar

StartChar: Euro
Encoding: 8364 8364 170
Width: 1454
Flags: W
LayerCount: 2
Fore
SplineSet
75 667 m 1,0,-1
 262 667 l 1,1,2
 261 680 261 680 261 693 c 128,-1,3
 261 706 261 706 261 720 c 0,4,5
 261 789 261 789 267 854 c 1,6,-1
 111 854 l 1,7,-1
 111 1049 l 1,8,-1
 304 1049 l 1,9,10
 338 1166 338 1166 398.5 1255.5 c 128,-1,11
 459 1345 459 1345 541.5 1406 c 128,-1,12
 624 1467 624 1467 727.5 1500 c 128,-1,13
 831 1533 831 1533 952 1538 c 0,14,15
 1036 1541 1036 1541 1095 1534.5 c 128,-1,16
 1154 1528 1154 1528 1197.5 1517.5 c 128,-1,17
 1241 1507 1241 1507 1274 1495.5 c 128,-1,18
 1307 1484 1307 1484 1339 1477 c 1,19,-1
 1286 1225 l 1,20,21
 1259 1241 1259 1241 1232 1253.5 c 128,-1,22
 1205 1266 1205 1266 1170.5 1274.5 c 128,-1,23
 1136 1283 1136 1283 1091.5 1288 c 128,-1,24
 1047 1293 1047 1293 986 1293 c 0,25,26
 927 1293 927 1293 874 1278.5 c 128,-1,27
 821 1264 821 1264 777 1234 c 128,-1,28
 733 1204 733 1204 698.5 1158 c 128,-1,29
 664 1112 664 1112 642 1049 c 1,30,-1
 1136 1049 l 1,31,-1
 1136 854 l 1,32,-1
 606 854 l 1,33,34
 605 838 605 838 604.5 822.5 c 128,-1,35
 604 807 604 807 604 790 c 0,36,37
 604 758 604 758 605 727 c 128,-1,38
 606 696 606 696 608 667 c 1,39,-1
 1087 667 l 1,40,-1
 1087 472 l 1,41,-1
 639 472 l 1,42,43
 656 411 656 411 684.5 362.5 c 128,-1,44
 713 314 713 314 754.5 280 c 128,-1,45
 796 246 796 246 853 228 c 128,-1,46
 910 210 910 210 984 210 c 0,47,48
 1033 210 1033 210 1080 216.5 c 128,-1,49
 1127 223 1127 223 1169 234 c 128,-1,50
 1211 245 1211 245 1245.5 260 c 128,-1,51
 1280 275 1280 275 1305 292 c 1,52,-1
 1365 49 l 1,53,54
 1344 46 1344 46 1323.5 39 c 128,-1,55
 1303 32 1303 32 1279 23.5 c 128,-1,56
 1255 15 1255 15 1225 6 c 128,-1,57
 1195 -3 1195 -3 1154 -10.5 c 128,-1,58
 1113 -18 1113 -18 1059.5 -23 c 128,-1,59
 1006 -28 1006 -28 935 -28 c 0,60,61
 800 -28 800 -28 691.5 5.5 c 128,-1,62
 583 39 583 39 502 103.5 c 128,-1,63
 421 168 421 168 367 260.5 c 128,-1,64
 313 353 313 353 286 472 c 1,65,-1
 75 472 l 1,66,-1
 75 667 l 1,0,-1
EndSplineSet
EndChar

StartChar: mu
Encoding: 181 181 171
Width: 1360
Flags: W
LayerCount: 2
Fore
SplineSet
152 1140 m 1,0,-1
 476 1140 l 1,1,-1
 476 485 l 2,2,3
 476 418 476 418 486.5 371.5 c 128,-1,4
 497 325 497 325 520.5 295.5 c 128,-1,5
 544 266 544 266 581.5 253 c 128,-1,6
 619 240 619 240 673 240 c 0,7,8
 716 240 716 240 762.5 258.5 c 128,-1,9
 809 277 809 277 841 306 c 1,10,-1
 841 1140 l 1,11,-1
 1165 1140 l 1,12,-1
 1165 288 l 2,13,14
 1165 265 1165 265 1169 250 c 128,-1,15
 1173 235 1173 235 1179 226.5 c 128,-1,16
 1185 218 1185 218 1193 215 c 128,-1,17
 1201 212 1201 212 1209 212 c 0,18,19
 1219 212 1219 212 1241.5 217 c 128,-1,20
 1264 222 1264 222 1292 239 c 1,21,-1
 1323 87 l 1,22,23
 1318 79 1318 79 1297.5 61.5 c 128,-1,24
 1277 44 1277 44 1243 26.5 c 128,-1,25
 1209 9 1209 9 1163.5 -4.5 c 128,-1,26
 1118 -18 1118 -18 1063 -18 c 0,27,28
 994 -18 994 -18 952 14.5 c 128,-1,29
 910 47 910 47 906 120 c 1,30,31
 892 98 892 98 869.5 74 c 128,-1,32
 847 50 847 50 815.5 30 c 128,-1,33
 784 10 784 10 741.5 -3 c 128,-1,34
 699 -16 699 -16 645 -16 c 0,35,36
 570 -16 570 -16 513.5 -2 c 128,-1,37
 457 12 457 12 415 50 c 1,38,-1
 445 -371 l 1,39,-1
 152 -371 l 1,40,-1
 152 1140 l 1,0,-1
EndSplineSet
EndChar

StartChar: eogonek
Encoding: 281 281 172
Width: 1155
Flags: W
LayerCount: 2
Fore
SplineSet
73 574 m 0,0,1
 73 698 73 698 109.5 804.5 c 128,-1,2
 146 911 146 911 216 989 c 128,-1,3
 286 1067 286 1067 388.5 1111 c 128,-1,4
 491 1155 491 1155 623 1156 c 0,5,6
 712 1157 712 1157 794 1134.5 c 128,-1,7
 876 1112 876 1112 939 1059 c 128,-1,8
 1002 1006 1002 1006 1040 919.5 c 128,-1,9
 1078 833 1078 833 1080 706 c 1,10,11
 1080 641 1080 641 1077.5 586 c 128,-1,12
 1075 531 1075 531 1069 493 c 1,13,-1
 397 493 l 1,14,15
 402 422 402 422 425.5 371 c 128,-1,16
 449 320 449 320 487.5 287 c 128,-1,17
 526 254 526 254 579 238.5 c 128,-1,18
 632 223 632 223 697 223 c 0,19,20
 730 223 730 223 771.5 227.5 c 128,-1,21
 813 232 813 232 855 240 c 128,-1,22
 897 248 897 248 933.5 259 c 128,-1,23
 970 270 970 270 992 282 c 1,24,-1
 1044 100 l 1,25,26
 1036 93 1036 93 1026.5 87 c 128,-1,27
 1017 81 1017 81 1006 74 c 1,28,29
 973 48 973 48 938 16 c 128,-1,30
 903 -16 903 -16 875 -52.5 c 128,-1,31
 847 -89 847 -89 829 -131 c 128,-1,32
 811 -173 811 -173 811 -220 c 1,33,34
 814 -269 814 -269 849 -289 c 128,-1,35
 884 -309 884 -309 935 -309 c 0,36,37
 964 -309 964 -309 995 -303.5 c 128,-1,38
 1026 -298 1026 -298 1057 -289 c 1,39,-1
 1057 -448 l 1,40,41
 1012 -480 1012 -480 949.5 -498 c 128,-1,42
 887 -516 887 -516 821 -516 c 0,43,44
 772 -516 772 -516 725.5 -502.5 c 128,-1,45
 679 -489 679 -489 642 -463 c 128,-1,46
 605 -437 605 -437 581.5 -399.5 c 128,-1,47
 558 -362 558 -362 556 -314 c 0,48,49
 553 -264 553 -264 566 -219 c 128,-1,50
 579 -174 579 -174 602 -135.5 c 128,-1,51
 625 -97 625 -97 656.5 -65.5 c 128,-1,52
 688 -34 688 -34 723 -10 c 1,53,54
 670 -16 670 -16 616 -16 c 0,55,56
 484 -16 484 -16 383 24 c 128,-1,57
 282 64 282 64 213 140 c 128,-1,58
 144 216 144 216 108.5 325.5 c 128,-1,59
 73 435 73 435 73 574 c 0,0,1
780 668 m 1,60,61
 784 731 784 731 777 779.5 c 128,-1,62
 770 828 770 828 750.5 861 c 128,-1,63
 731 894 731 894 697.5 911 c 128,-1,64
 664 928 664 928 613 928 c 0,65,66
 570 928 570 928 534.5 915 c 128,-1,67
 499 902 499 902 472 872 c 128,-1,68
 445 842 445 842 427 792 c 128,-1,69
 409 742 409 742 401 668 c 1,70,-1
 780 668 l 1,60,61
EndSplineSet
EndChar

StartChar: thorn
Encoding: 254 254 173
Width: 1294
Flags: W
LayerCount: 2
Fore
SplineSet
135 1661 m 1,0,-1
 459 1661 l 1,1,-1
 459 1229 l 1,2,-1
 451 1037 l 1,3,4
 472 1056 472 1056 500.5 1077.5 c 128,-1,5
 529 1099 529 1099 568 1116 c 128,-1,6
 607 1133 607 1133 657.5 1144.5 c 128,-1,7
 708 1156 708 1156 771 1156 c 0,8,9
 862 1156 862 1156 944 1123 c 128,-1,10
 1026 1090 1026 1090 1088.5 1022.5 c 128,-1,11
 1151 955 1151 955 1188 853 c 128,-1,12
 1225 751 1225 751 1225 612 c 0,13,14
 1225 469 1225 469 1181.5 352 c 128,-1,15
 1138 235 1138 235 1059.5 152 c 128,-1,16
 981 69 981 69 870.5 23 c 128,-1,17
 760 -23 760 -23 627 -23 c 0,18,19
 585 -23 585 -23 544 -20 c 128,-1,20
 503 -17 503 -17 461 -12 c 1,21,-1
 466 -169 l 1,22,-1
 466 -507 l 1,23,-1
 136 -507 l 1,24,-1
 136 63 l 1,25,26
 135 63 135 63 135 64 c 2,27,-1
 135 1661 l 1,0,-1
459 238 m 1,28,29
 479 218 479 218 522 209 c 128,-1,30
 565 200 565 200 631 200 c 0,31,32
 685 200 685 200 731.5 225.5 c 128,-1,33
 778 251 778 251 812 300.5 c 128,-1,34
 846 350 846 350 865.5 422.5 c 128,-1,35
 885 495 885 495 885 588 c 0,36,37
 886 683 886 683 870.5 746 c 128,-1,38
 855 809 855 809 826.5 846.5 c 128,-1,39
 798 884 798 884 758 899.5 c 128,-1,40
 718 915 718 915 669 915 c 0,41,42
 604 915 604 915 548.5 894 c 128,-1,43
 493 873 493 873 459 846 c 1,44,-1
 459 238 l 1,28,29
EndSplineSet
EndChar

StartChar: lslash
Encoding: 322 322 174
Width: 641
Flags: W
LayerCount: 2
Fore
SplineSet
158 709 m 1,0,-1
 10 655 l 1,1,-1
 10 856 l 1,2,-1
 158 913 l 1,3,-1
 158 1662 l 1,4,-1
 482 1662 l 1,5,-1
 482 1037 l 1,6,-1
 671 1110 l 1,7,-1
 671 898 l 1,8,-1
 482 828 l 1,9,-1
 482 0 l 1,10,-1
 158 0 l 1,11,-1
 158 709 l 1,0,-1
EndSplineSet
EndChar

StartChar: oe
Encoding: 339 339 175
Width: 1916
Flags: W
LayerCount: 2
Fore
SplineSet
69 594 m 0,0,1
 71 731 71 731 113.5 836 c 128,-1,2
 156 941 156 941 230.5 1012 c 128,-1,3
 305 1083 305 1083 408 1119.5 c 128,-1,4
 511 1156 511 1156 633 1156 c 0,5,6
 764 1156 764 1156 856.5 1119 c 128,-1,7
 949 1082 949 1082 1012 1017 c 1,8,9
 1080 1083 1080 1083 1173.5 1119 c 128,-1,10
 1267 1155 1267 1155 1387 1156 c 0,11,12
 1475 1157 1475 1157 1557.5 1134.5 c 128,-1,13
 1640 1112 1640 1112 1703.5 1059.5 c 128,-1,14
 1767 1007 1767 1007 1805 920.5 c 128,-1,15
 1843 834 1843 834 1843 707 c 0,16,17
 1843 643 1843 643 1840.5 587 c 128,-1,18
 1838 531 1838 531 1832 493 c 1,19,-1
 1162 493 l 1,20,21
 1167 422 1167 422 1190 371 c 128,-1,22
 1213 320 1213 320 1251.5 287 c 128,-1,23
 1290 254 1290 254 1342.5 238.5 c 128,-1,24
 1395 223 1395 223 1460 223 c 0,25,26
 1493 223 1493 223 1534.5 227.5 c 128,-1,27
 1576 232 1576 232 1618 240 c 128,-1,28
 1660 248 1660 248 1696.5 259 c 128,-1,29
 1733 270 1733 270 1755 282 c 1,30,-1
 1807 100 l 1,31,32
 1779 77 1779 77 1734.5 56 c 128,-1,33
 1690 35 1690 35 1633.5 19 c 128,-1,34
 1577 3 1577 3 1512.5 -6.5 c 128,-1,35
 1448 -16 1448 -16 1379 -16 c 0,36,37
 1255 -16 1255 -16 1160.5 19 c 128,-1,38
 1066 54 1066 54 999 121 c 1,39,40
 927 53 927 53 829.5 18.5 c 128,-1,41
 732 -16 732 -16 612 -16 c 0,42,43
 460 -16 460 -16 355.5 33.5 c 128,-1,44
 251 83 251 83 186.5 167 c 128,-1,45
 122 251 122 251 94.5 361.5 c 128,-1,46
 67 472 67 472 69 594 c 0,0,1
1544 668 m 1,47,48
 1548 731 1548 731 1541 779.5 c 128,-1,49
 1534 828 1534 828 1514.5 861 c 128,-1,50
 1495 894 1495 894 1461 911 c 128,-1,51
 1427 928 1427 928 1377 928 c 0,52,53
 1335 928 1335 928 1299.5 915 c 128,-1,54
 1264 902 1264 902 1237 872 c 128,-1,55
 1210 842 1210 842 1192 792 c 128,-1,56
 1174 742 1174 742 1166 668 c 1,57,-1
 1544 668 l 1,47,48
620 211 m 0,58,59
 680 210 680 210 722.5 233 c 128,-1,60
 765 256 765 256 792 301 c 128,-1,61
 819 346 819 346 831 411.5 c 128,-1,62
 843 477 843 477 843 562 c 0,63,64
 843 632 843 632 831.5 698 c 128,-1,65
 820 764 820 764 794.5 814.5 c 128,-1,66
 769 865 769 865 727.5 895.5 c 128,-1,67
 686 926 686 926 626 927 c 0,68,69
 566 927 566 927 524 904.5 c 128,-1,70
 482 882 482 882 455.5 838 c 128,-1,71
 429 794 429 794 417 730 c 128,-1,72
 405 666 405 666 405 585 c 0,73,74
 405 513 405 513 416.5 445.5 c 128,-1,75
 428 378 428 378 453.5 326.5 c 128,-1,76
 479 275 479 275 520 243.5 c 128,-1,77
 561 212 561 212 620 211 c 0,58,59
EndSplineSet
EndChar

StartChar: OE
Encoding: 338 338 177
Width: 2099
Flags: W
LayerCount: 2
Fore
SplineSet
773 -16 m 0,0,1
 609 -17 609 -17 480.5 41.5 c 128,-1,2
 352 100 352 100 263.5 205 c 128,-1,3
 175 310 175 310 130 454 c 128,-1,4
 85 598 85 598 88 769 c 0,5,6
 92 957 92 957 148 1100.5 c 128,-1,7
 204 1244 204 1244 299.5 1340.5 c 128,-1,8
 395 1437 395 1437 524 1487 c 128,-1,9
 653 1537 653 1537 803 1538 c 0,10,11
 872 1538 872 1538 931 1527 c 128,-1,12
 990 1516 990 1516 1038 1490 c 1,13,-1
 1038 1522 l 1,14,-1
 1971 1522 l 1,15,-1
 1971 1268 l 1,16,-1
 1372 1268 l 1,17,-1
 1372 907 l 1,18,-1
 1814 907 l 1,19,-1
 1814 658 l 1,20,-1
 1372 658 l 1,21,-1
 1372 262 l 1,22,-1
 2035 262 l 1,23,-1
 2035 0 l 1,24,-1
 1038 0 l 1,25,-1
 1038 42 l 1,26,27
 985 13 985 13 917 -1 c 128,-1,28
 849 -15 849 -15 773 -16 c 0,0,1
789 231 m 0,29,30
 871 231 871 231 932.5 253 c 128,-1,31
 994 275 994 275 1038 330 c 1,32,-1
 1038 1180 l 1,33,34
 1020 1201 1020 1201 997.5 1220 c 128,-1,35
 975 1239 975 1239 946.5 1254 c 128,-1,36
 918 1269 918 1269 883.5 1277.5 c 128,-1,37
 849 1286 849 1286 807 1286 c 0,38,39
 739 1286 739 1286 671.5 1263.5 c 128,-1,40
 604 1241 604 1241 549 1181.5 c 128,-1,41
 494 1122 494 1122 460 1019.5 c 128,-1,42
 426 917 426 917 426 758 c 0,43,44
 426 638 426 638 450 540.5 c 128,-1,45
 474 443 474 443 520 374 c 128,-1,46
 566 305 566 305 634 268 c 128,-1,47
 702 231 702 231 789 231 c 0,29,30
EndSplineSet
EndChar

StartChar: hbar
Encoding: 295 295 191
Width: 1306
Flags: W
LayerCount: 2
Fore
SplineSet
139 1294 m 1,0,-1
 8 1294 l 1,1,-1
 8 1478 l 1,2,-1
 139 1478 l 1,3,-1
 139 1662 l 1,4,-1
 463 1662 l 1,5,-1
 463 1478 l 1,6,-1
 684 1478 l 1,7,-1
 684 1294 l 1,8,-1
 463 1294 l 1,9,-1
 463 1226 l 1,10,-1
 446 1021 l 1,11,12
 476 1045 476 1045 516 1069 c 128,-1,13
 556 1093 556 1093 601.5 1112.5 c 128,-1,14
 647 1132 647 1132 695.5 1144.5 c 128,-1,15
 744 1157 744 1157 791 1159 c 0,16,17
 885 1162 885 1162 956 1139 c 128,-1,18
 1027 1116 1027 1116 1074.5 1062.5 c 128,-1,19
 1122 1009 1122 1009 1146 922 c 128,-1,20
 1170 835 1170 835 1170 711 c 2,21,-1
 1170 0 l 1,22,-1
 846 0 l 1,23,-1
 846 646 l 2,24,25
 846 715 846 715 837.5 761.5 c 128,-1,26
 829 808 829 808 809.5 836 c 128,-1,27
 790 864 790 864 758 875.5 c 128,-1,28
 726 887 726 887 680 886 c 0,29,30
 660 886 660 886 632.5 881 c 128,-1,31
 605 876 605 876 576 866 c 128,-1,32
 547 856 547 856 517.5 840 c 128,-1,33
 488 824 488 824 463 802 c 1,34,-1
 463 0 l 1,35,-1
 139 0 l 1,36,-1
 139 1294 l 1,0,-1
EndSplineSet
EndChar

StartChar: trademark
Encoding: 8482 8482 192
Width: 2218
Flags: W
LayerCount: 2
Fore
SplineSet
1010 1543 m 1,0,-1
 1370 1543 l 1,1,-1
 1480 1208 l 1,2,-1
 1513 1069 l 1,3,-1
 1540 1208 l 1,4,-1
 1644 1543 l 1,5,-1
 1988 1543 l 1,6,-1
 2062 767 l 1,7,-1
 1841 767 l 1,8,-1
 1805 1247 l 1,9,-1
 1799 1369 l 1,10,-1
 1753 1212 l 1,11,-1
 1590 765 l 1,12,-1
 1437 765 l 1,13,-1
 1260 1212 l 1,14,-1
 1207 1370 l 1,15,-1
 1204 1247 l 1,16,-1
 1188 767 l 1,17,-1
 966 767 l 1,18,-1
 1010 1543 l 1,0,-1
387 1348 m 1,19,-1
 139 1347 l 1,20,-1
 138 1543 l 1,21,-1
 865 1543 l 1,22,-1
 865 1347 l 1,23,-1
 610 1348 l 1,24,-1
 610 767 l 1,25,-1
 387 767 l 1,26,-1
 387 1348 l 1,19,-1
EndSplineSet
EndChar

StartChar: perthousand
Encoding: 8240 8240 193
Width: 3130
Flags: W
LayerCount: 2
Fore
SplineSet
2197 458 m 0,0,1
 2197 568 2197 568 2233 653 c 128,-1,2
 2269 738 2269 738 2329.5 796 c 128,-1,3
 2390 854 2390 854 2468.5 884 c 128,-1,4
 2547 914 2547 914 2632 915 c 0,5,6
 2737 916 2737 916 2812.5 881 c 128,-1,7
 2888 846 2888 846 2936.5 785 c 128,-1,8
 2985 724 2985 724 3008.5 641.5 c 128,-1,9
 3032 559 3032 559 3032 465 c 0,10,11
 3032 355 3032 355 2996 270.5 c 128,-1,12
 2960 186 2960 186 2899.5 128 c 128,-1,13
 2839 70 2839 70 2760.5 40 c 128,-1,14
 2682 10 2682 10 2597 9 c 1,15,16
 2496 9 2496 9 2420.5 44 c 128,-1,17
 2345 79 2345 79 2295.5 140 c 128,-1,18
 2246 201 2246 201 2221.5 283 c 128,-1,19
 2197 365 2197 365 2197 458 c 0,0,1
2453 468 m 0,20,21
 2453 411 2453 411 2463.5 364.5 c 128,-1,22
 2474 318 2474 318 2494.5 284.5 c 128,-1,23
 2515 251 2515 251 2545 232.5 c 128,-1,24
 2575 214 2575 214 2613 214 c 0,25,26
 2692 214 2692 214 2733.5 278.5 c 128,-1,27
 2775 343 2775 343 2775 457 c 0,28,29
 2775 514 2775 514 2764.5 561 c 128,-1,30
 2754 608 2754 608 2734 641.5 c 128,-1,31
 2714 675 2714 675 2684.5 693.5 c 128,-1,32
 2655 712 2655 712 2617 712 c 0,33,34
 2537 712 2537 712 2495 647 c 128,-1,35
 2453 582 2453 582 2453 468 c 0,20,21
1265 1530 m 1,36,-1
 1520 1530 l 1,37,-1
 934 0 l 1,38,-1
 681 0 l 1,39,-1
 1265 1530 l 1,36,-1
498 619 m 0,40,41
 397 618 397 618 321.5 653.5 c 128,-1,42
 246 689 246 689 196.5 750 c 128,-1,43
 147 811 147 811 122.5 893 c 128,-1,44
 98 975 98 975 98 1068 c 0,45,46
 98 1177 98 1177 134 1262 c 128,-1,47
 170 1347 170 1347 230 1405 c 128,-1,48
 290 1463 290 1463 368 1493.5 c 128,-1,49
 446 1524 446 1524 531 1525 c 0,50,51
 636 1526 636 1526 712 1491 c 128,-1,52
 788 1456 788 1456 836.5 1395 c 128,-1,53
 885 1334 885 1334 908.5 1251.5 c 128,-1,54
 932 1169 932 1169 932 1075 c 0,55,56
 932 965 932 965 896 880.5 c 128,-1,57
 860 796 860 796 800 738 c 128,-1,58
 740 680 740 680 661.5 650 c 128,-1,59
 583 620 583 620 498 619 c 0,40,41
512 824 m 0,60,61
 591 824 591 824 633.5 888.5 c 128,-1,62
 676 953 676 953 676 1067 c 0,63,64
 676 1125 676 1125 665 1172 c 128,-1,65
 654 1219 654 1219 633.5 1252.5 c 128,-1,66
 613 1286 613 1286 583.5 1304 c 128,-1,67
 554 1322 554 1322 516 1322 c 0,68,69
 437 1322 437 1322 395 1257 c 128,-1,70
 353 1192 353 1192 353 1077 c 0,71,72
 353 1021 353 1021 363.5 974.5 c 128,-1,73
 374 928 374 928 394.5 894.5 c 128,-1,74
 415 861 415 861 444.5 842.5 c 128,-1,75
 474 824 474 824 512 824 c 0,60,61
1266 458 m 0,76,77
 1266 568 1266 568 1302 653 c 128,-1,78
 1338 738 1338 738 1398.5 796 c 128,-1,79
 1459 854 1459 854 1537.5 884 c 128,-1,80
 1616 914 1616 914 1701 915 c 0,81,82
 1805 916 1805 916 1880.5 881 c 128,-1,83
 1956 846 1956 846 2005 785 c 128,-1,84
 2054 724 2054 724 2077.5 641.5 c 128,-1,85
 2101 559 2101 559 2101 465 c 0,86,87
 2101 355 2101 355 2065 270.5 c 128,-1,88
 2029 186 2029 186 1968.5 128 c 128,-1,89
 1908 70 1908 70 1829.5 40 c 128,-1,90
 1751 10 1751 10 1666 9 c 1,91,92
 1565 9 1565 9 1489.5 44 c 128,-1,93
 1414 79 1414 79 1364.5 140 c 128,-1,94
 1315 201 1315 201 1290.5 283 c 128,-1,95
 1266 365 1266 365 1266 458 c 0,76,77
1522 468 m 0,96,97
 1522 411 1522 411 1532.5 364.5 c 128,-1,98
 1543 318 1543 318 1563.5 284.5 c 128,-1,99
 1584 251 1584 251 1613.5 232.5 c 128,-1,100
 1643 214 1643 214 1681 214 c 0,101,102
 1760 214 1760 214 1802 278.5 c 128,-1,103
 1844 343 1844 343 1844 457 c 0,104,105
 1844 514 1844 514 1833.5 561 c 128,-1,106
 1823 608 1823 608 1802.5 641.5 c 128,-1,107
 1782 675 1782 675 1752.5 693.5 c 128,-1,108
 1723 712 1723 712 1685 712 c 0,109,110
 1606 712 1606 712 1564 647 c 128,-1,111
 1522 582 1522 582 1522 468 c 0,96,97
EndSplineSet
Ligature2: "'frac' Diagonal Fractions in Latin lookup 10 subtable" zero slash zero zero
EndChar

StartChar: Eth
Encoding: 208 208 194
Width: 1524
Flags: W
LayerCount: 2
Fore
SplineSet
164 690 m 1,0,-1
 47 690 l 1,1,-1
 47 899 l 1,2,-1
 164 899 l 1,3,-1
 164 1522 l 1,4,-1
 321 1522 l 2,5,6
 353 1522 353 1522 391 1524.5 c 128,-1,7
 429 1527 429 1527 474 1530 c 128,-1,8
 519 1533 519 1533 572.5 1535.5 c 128,-1,9
 626 1538 626 1538 691 1538 c 0,10,11
 883 1538 883 1538 1023.5 1488.5 c 128,-1,12
 1164 1439 1164 1439 1256 1344.5 c 128,-1,13
 1348 1250 1348 1250 1392.5 1113 c 128,-1,14
 1437 976 1437 976 1437 801 c 0,15,16
 1437 606 1437 606 1383 453.5 c 128,-1,17
 1329 301 1329 301 1229 196 c 128,-1,18
 1129 91 1129 91 986.5 36.5 c 128,-1,19
 844 -18 844 -18 667 -16 c 0,20,21
 556 -15 556 -15 473.5 -7.5 c 128,-1,22
 391 0 391 0 324 0 c 2,23,-1
 164 0 l 1,24,-1
 164 690 l 1,0,-1
501 254 m 1,25,26
 539 244 539 244 590 240.5 c 128,-1,27
 641 237 641 237 695 237 c 0,28,29
 783 238 783 238 855.5 268.5 c 128,-1,30
 928 299 928 299 980 363 c 128,-1,31
 1032 427 1032 427 1060 527 c 128,-1,32
 1088 627 1088 627 1088 767 c 0,33,34
 1088 913 1088 913 1062 1013 c 128,-1,35
 1036 1113 1036 1113 983.5 1174.5 c 128,-1,36
 931 1236 931 1236 851.5 1262.5 c 128,-1,37
 772 1289 772 1289 664 1289 c 0,38,39
 619 1289 619 1289 574 1283.5 c 128,-1,40
 529 1278 529 1278 501 1276 c 1,41,-1
 501 899 l 1,42,-1
 827 899 l 1,43,-1
 827 690 l 1,44,-1
 501 690 l 1,45,-1
 501 254 l 1,25,26
EndSplineSet
EndChar

StartChar: florin
Encoding: 402 402 195
Width: 1169
Flags: W
LayerCount: 2
Fore
SplineSet
354 918 m 1,0,-1
 182 918 l 1,1,-1
 197 1103 l 1,2,-1
 372 1140 l 1,3,-1
 381 1226 l 2,4,5
 394 1356 394 1356 442 1444 c 128,-1,6
 490 1532 490 1532 559.5 1585 c 128,-1,7
 629 1638 629 1638 714.5 1661 c 128,-1,8
 800 1684 800 1684 889 1684 c 0,9,10
 957 1684 957 1684 1009 1677 c 128,-1,11
 1061 1670 1061 1670 1077 1663 c 1,12,-1
 1058 1426 l 1,13,14
 1023 1450 1023 1450 902 1450 c 0,15,16
 864 1450 864 1450 831 1437 c 128,-1,17
 798 1424 798 1424 772.5 1397 c 128,-1,18
 747 1370 747 1370 730.5 1327 c 128,-1,19
 714 1284 714 1284 708 1224 c 1,20,-1
 698 1140 l 1,21,-1
 969 1140 l 1,22,-1
 952 918 l 1,23,-1
 680 918 l 1,24,-1
 570 -356 l 1,25,-1
 243 -356 l 1,26,-1
 354 918 l 1,0,-1
EndSplineSet
EndChar

StartChar: Delta
Encoding: 8710 8710 197
Width: 1578
Flags: W
LayerCount: 2
Fore
SplineSet
743 1508 m 1,0,-1
 777 1508 l 1,1,-1
 1522 27 l 1,2,-1
 1506 0 l 1,3,-1
 70 0 l 1,4,-1
 56 22 l 1,5,-1
 743 1508 l 1,0,-1
1102 260 m 1,6,-1
 762 967 l 1,7,-1
 443 260 l 1,8,-1
 1102 260 l 1,6,-1
EndSplineSet
EndChar

StartChar: lessequal
Encoding: 8804 8804 198
Width: 1368
Flags: W
LayerCount: 2
Fore
SplineSet
169 859 m 1,0,-1
 1138 1279 l 1,1,-1
 1138 1009 l 1,2,-1
 522 779 l 1,3,-1
 1138 554 l 1,4,-1
 1138 285 l 1,5,-1
 169 702 l 1,6,-1
 169 859 l 1,0,-1
169 210 m 1,7,-1
 1138 210 l 1,8,-1
 1138 -1 l 1,9,-1
 169 -1 l 1,10,-1
 169 210 l 1,7,-1
EndSplineSet
EndChar

StartChar: notequal
Encoding: 8800 8800 200
Width: 1415
Flags: W
LayerCount: 2
Fore
SplineSet
475 408 m 1,0,-1
 247 408 l 1,1,-1
 247 631 l 1,2,-1
 554 631 l 1,3,-1
 654 919 l 1,4,-1
 247 919 l 1,5,-1
 247 1142 l 1,6,-1
 733 1142 l 1,7,-1
 797 1324 l 1,8,-1
 995 1324 l 1,9,-1
 929 1142 l 1,10,-1
 1168 1142 l 1,11,-1
 1168 919 l 1,12,-1
 849 919 l 1,13,-1
 750 631 l 1,14,-1
 1168 631 l 1,15,-1
 1168 408 l 1,16,-1
 670 408 l 1,17,-1
 597 198 l 1,18,-1
 402 198 l 1,19,-1
 475 408 l 1,0,-1
EndSplineSet
EndChar

StartChar: lozenge
Encoding: 9674 9674 201
Width: 1287
Flags: W
LayerCount: 2
Fore
SplineSet
50 763 m 1,0,-1
 50 776 l 1,1,-1
 642 1539 l 1,2,-1
 646 1539 l 1,3,-1
 1237 776 l 1,4,-1
 1237 763 l 1,5,-1
 646 0 l 1,6,-1
 641 0 l 1,7,-1
 50 763 l 1,0,-1
645 373 m 1,8,-1
 939 770 l 1,9,-1
 939 773 l 1,10,-1
 645 1148 l 1,11,-1
 642 1148 l 1,12,-1
 348 773 l 1,13,-1
 348 767 l 1,14,-1
 642 373 l 1,15,-1
 645 373 l 1,8,-1
EndSplineSet
EndChar

StartChar: Omega
Encoding: 8486 8486 202
Width: 1788
Flags: W
LayerCount: 2
Fore
SplineSet
144 225 m 1,0,-1
 449 225 l 1,1,2
 393 272 393 272 340.5 339.5 c 128,-1,3
 288 407 288 407 247 488 c 128,-1,4
 206 569 206 569 182 660 c 128,-1,5
 158 751 158 751 160 846 c 0,6,7
 162 972 162 972 191 1073 c 128,-1,8
 220 1174 220 1174 270 1251.5 c 128,-1,9
 320 1329 320 1329 388.5 1384.5 c 128,-1,10
 457 1440 457 1440 538 1476 c 128,-1,11
 619 1512 619 1512 709.5 1528.5 c 128,-1,12
 800 1545 800 1545 896 1545 c 0,13,14
 1057 1545 1057 1545 1190.5 1503.5 c 128,-1,15
 1324 1462 1324 1462 1419 1376 c 128,-1,16
 1514 1290 1514 1290 1565.5 1158 c 128,-1,17
 1617 1026 1617 1026 1614 845 c 0,18,19
 1612 751 1612 751 1590 660.5 c 128,-1,20
 1568 570 1568 570 1530 489.5 c 128,-1,21
 1492 409 1492 409 1441 341.5 c 128,-1,22
 1390 274 1390 274 1331 225 c 1,23,-1
 1645 225 l 1,24,-1
 1645 0 l 1,25,-1
 1033 0 l 1,26,-1
 1033 186 l 1,27,28
 1076 211 1076 211 1119 266 c 128,-1,29
 1162 321 1162 321 1196.5 402 c 128,-1,30
 1231 483 1231 483 1252.5 587.5 c 128,-1,31
 1274 692 1274 692 1274 817 c 0,32,33
 1274 950 1274 950 1243 1044.5 c 128,-1,34
 1212 1139 1212 1139 1159.5 1199.5 c 128,-1,35
 1107 1260 1107 1260 1038.5 1288 c 128,-1,36
 970 1316 970 1316 896 1316 c 0,37,38
 816 1316 816 1316 744.5 1288 c 128,-1,39
 673 1260 673 1260 618.5 1200 c 128,-1,40
 564 1140 564 1140 532 1045.5 c 128,-1,41
 500 951 500 951 500 818 c 0,42,43
 500 693 500 693 526 588 c 128,-1,44
 552 483 552 483 592 402 c 128,-1,45
 632 321 632 321 679.5 266 c 128,-1,46
 727 211 727 211 771 186 c 1,47,-1
 771 0 l 1,48,-1
 144 0 l 1,49,-1
 144 225 l 1,0,-1
EndSplineSet
EndChar

StartChar: radical
Encoding: 8730 8730 203
Width: 1602
Flags: W
LayerCount: 2
Fore
SplineSet
87 574 m 1,0,-1
 363 716 l 1,1,-1
 579 716 l 1,2,-1
 821 30 l 1,3,-1
 1350 1870 l 1,4,-1
 1670 1870 l 1,5,-1
 960 -354 l 1,6,-1
 687 -354 l 1,7,-1
 357 423 l 1,8,-1
 197 341 l 1,9,-1
 87 574 l 1,0,-1
EndSplineSet
EndChar

StartChar: summation
Encoding: 8721 8721 204
Width: 1426
Flags: W
LayerCount: 2
Fore
SplineSet
679 681 m 1,0,-1
 129 1442 l 1,1,-1
 159 1522 l 1,2,-1
 1237 1522 l 1,3,-1
 1237 1283 l 1,4,-1
 574 1283 l 1,5,-1
 998 687 l 1,6,-1
 579 58 l 1,7,-1
 1281 58 l 1,8,-1
 1281 -170 l 1,9,-1
 155 -170 l 1,10,-1
 129 -105 l 1,11,-1
 679 681 l 1,0,-1
EndSplineSet
EndChar

StartChar: integral
Encoding: 8747 8747 205
Width: 1042
Flags: W
LayerCount: 2
Fore
SplineSet
175 -189 m 1,0,1
 185 -205 185 -205 209 -224 c 128,-1,2
 233 -243 233 -243 263.5 -260 c 128,-1,3
 294 -277 294 -277 328 -288.5 c 128,-1,4
 362 -300 362 -300 394 -300 c 0,5,6
 451 -300 451 -300 488.5 -281 c 128,-1,7
 526 -262 526 -262 548 -227.5 c 128,-1,8
 570 -193 570 -193 578.5 -143.5 c 128,-1,9
 587 -94 587 -94 586 -33 c 0,10,11
 583 66 583 66 552.5 167.5 c 128,-1,12
 522 269 522 269 477.5 371.5 c 128,-1,13
 433 474 433 474 381.5 577 c 128,-1,14
 330 680 330 680 285.5 782.5 c 128,-1,15
 241 885 241 885 210.5 987 c 128,-1,16
 180 1089 180 1089 178 1190 c 256,17,18
 176 1291 176 1291 201.5 1381 c 128,-1,19
 227 1471 227 1471 284.5 1538.5 c 128,-1,20
 342 1606 342 1606 433 1645.5 c 128,-1,21
 524 1685 524 1685 653 1685 c 0,22,23
 717 1685 717 1685 769 1674 c 128,-1,24
 821 1663 821 1663 860.5 1644 c 128,-1,25
 900 1625 900 1625 927 1600 c 128,-1,26
 954 1575 954 1575 968 1548 c 1,27,-1
 843 1381 l 1,28,29
 837 1394 837 1394 821.5 1409 c 128,-1,30
 806 1424 806 1424 783.5 1437 c 128,-1,31
 761 1450 761 1450 731 1459 c 128,-1,32
 701 1468 701 1468 667 1468 c 0,33,34
 611 1468 611 1468 571.5 1449.5 c 128,-1,35
 532 1431 532 1431 507.5 1396.5 c 128,-1,36
 483 1362 483 1362 471.5 1312.5 c 128,-1,37
 460 1263 460 1263 462 1201 c 0,38,39
 464 1102 464 1102 494.5 1001.5 c 128,-1,40
 525 901 525 901 569.5 799 c 128,-1,41
 614 697 614 697 665 595 c 128,-1,42
 716 493 716 493 760.5 390.5 c 128,-1,43
 805 288 805 288 835.5 186 c 128,-1,44
 866 84 866 84 869 -17 c 0,45,46
 871 -75 871 -75 861 -135 c 128,-1,47
 851 -195 851 -195 828.5 -251 c 128,-1,48
 806 -307 806 -307 769 -355.5 c 128,-1,49
 732 -404 732 -404 680 -440 c 128,-1,50
 628 -476 628 -476 559 -497 c 128,-1,51
 490 -518 490 -518 404 -518 c 0,52,53
 364 -518 364 -518 314.5 -508 c 128,-1,54
 265 -498 265 -498 218 -480 c 128,-1,55
 171 -462 171 -462 134 -438 c 128,-1,56
 97 -414 97 -414 82 -386 c 1,57,-1
 175 -189 l 1,58,-1
 175 -189 l 1,0,1
EndSplineSet
EndChar

StartChar: pi
Encoding: 960 960 206
Width: 1556
Flags: W
LayerCount: 2
Fore
SplineSet
131 117 m 1,0,1
 144 120 144 120 171 133 c 128,-1,2
 198 146 198 146 227 167 c 0,3,4
 265 196 265 196 289.5 230.5 c 128,-1,5
 314 265 314 265 330 305 c 128,-1,6
 346 345 346 345 354.5 390.5 c 128,-1,7
 363 436 363 436 368 487 c 2,8,-1
 410 880 l 1,9,-1
 344 880 l 2,10,11
 305 880 305 880 276.5 872 c 128,-1,12
 248 864 248 864 226 851.5 c 128,-1,13
 204 839 204 839 187.5 824.5 c 128,-1,14
 171 810 171 810 157 797 c 1,15,-1
 35 878 l 1,16,17
 36 890 36 890 39.5 908 c 128,-1,18
 43 926 43 926 50 946 c 128,-1,19
 57 966 57 966 66.5 986.5 c 128,-1,20
 76 1007 76 1007 88 1025 c 1,21,22
 108 1052 108 1052 133 1073 c 128,-1,23
 158 1094 158 1094 192 1109 c 128,-1,24
 226 1124 226 1124 271.5 1132 c 128,-1,25
 317 1140 317 1140 379 1140 c 2,26,-1
 1202 1140 l 2,27,28
 1233 1140 1233 1140 1254.5 1144 c 128,-1,29
 1276 1148 1276 1148 1290.5 1157 c 128,-1,30
 1305 1166 1305 1166 1314.5 1180.5 c 128,-1,31
 1324 1195 1324 1195 1331 1215 c 1,32,-1
 1525 1215 l 1,33,34
 1521 1125 1521 1125 1500.5 1061 c 128,-1,35
 1480 997 1480 997 1441 957 c 128,-1,36
 1402 917 1402 917 1343.5 898.5 c 128,-1,37
 1285 880 1285 880 1206 880 c 2,38,-1
 1188 880 l 1,39,-1
 1166 333 l 2,40,41
 1163 268 1163 268 1179.5 237.5 c 128,-1,42
 1196 207 1196 207 1225 207 c 256,43,44
 1254 207 1254 207 1280 221.5 c 128,-1,45
 1306 236 1306 236 1328 257 c 128,-1,46
 1350 278 1350 278 1368.5 301.5 c 128,-1,47
 1387 325 1387 325 1401 343 c 1,48,-1
 1515 219 l 1,49,50
 1498 175 1498 175 1462.5 131.5 c 128,-1,51
 1427 88 1427 88 1375 53.5 c 128,-1,52
 1323 19 1323 19 1256 -2.5 c 128,-1,53
 1189 -24 1189 -24 1108 -24 c 0,54,55
 1042 -24 1042 -24 997 -1.5 c 128,-1,56
 952 21 952 21 925 61.5 c 128,-1,57
 898 102 898 102 888.5 158 c 128,-1,58
 879 214 879 214 885 280 c 2,59,-1
 939 880 l 1,60,-1
 673 880 l 1,61,-1
 649 422 l 2,62,63
 644 338 644 338 632.5 281 c 128,-1,64
 621 224 621 224 602.5 183 c 128,-1,65
 584 142 584 142 558 111.5 c 128,-1,66
 532 81 532 81 498 50 c 1,67,68
 467 24 467 24 420.5 2.5 c 128,-1,69
 374 -19 374 -19 312 -24 c 1,70,-1
 131 117 l 1,71,-1
 131 117 l 1,0,1
EndSplineSet
EndChar

StartChar: product
Encoding: 8719 8719 207
Width: 1665
Flags: W
LayerCount: 2
Fore
SplineSet
293 1282 m 1,0,-1
 75 1283 l 1,1,-1
 75 1522 l 1,2,-1
 1590 1522 l 1,3,-1
 1590 1283 l 1,4,-1
 1362 1282 l 1,5,-1
 1362 -171 l 1,6,-1
 1032 -171 l 1,7,-1
 1032 1282 l 1,8,-1
 623 1282 l 1,9,-1
 623 -171 l 1,10,-1
 293 -171 l 1,11,-1
 293 1282 l 1,0,-1
EndSplineSet
EndChar

StartChar: partialdiff
Encoding: 8706 8706 208
Width: 1376
Flags: W
LayerCount: 2
Fore
SplineSet
102 501 m 1,0,1
 99 608 99 608 121.5 694 c 128,-1,2
 144 780 144 780 185 846 c 128,-1,3
 226 912 226 912 283 959.5 c 128,-1,4
 340 1007 340 1007 408 1037.5 c 128,-1,5
 476 1068 476 1068 552 1082 c 128,-1,6
 628 1096 628 1096 706 1096 c 0,7,8
 785 1096 785 1096 844.5 1079.5 c 128,-1,9
 904 1063 904 1063 954 1038 c 1,10,11
 939 1140 939 1140 902 1223 c 128,-1,12
 865 1306 865 1306 806 1365 c 128,-1,13
 747 1424 747 1424 665.5 1456.5 c 128,-1,14
 584 1489 584 1489 479 1489 c 0,15,16
 446 1489 446 1489 410.5 1484 c 128,-1,17
 375 1479 375 1479 340.5 1469.5 c 128,-1,18
 306 1460 306 1460 274.5 1446.5 c 128,-1,19
 243 1433 243 1433 219 1417 c 1,20,-1
 113 1597 l 1,21,22
 155 1629 155 1629 204.5 1653 c 128,-1,23
 254 1677 254 1677 307 1693.5 c 128,-1,24
 360 1710 360 1710 415.5 1718.5 c 128,-1,25
 471 1727 471 1727 525 1727 c 0,26,27
 660 1727 660 1727 769 1691.5 c 128,-1,28
 878 1656 878 1656 963 1593 c 128,-1,29
 1048 1530 1048 1530 1109 1444 c 128,-1,30
 1170 1358 1170 1358 1209.5 1256.5 c 128,-1,31
 1249 1155 1249 1155 1268 1042.5 c 128,-1,32
 1287 930 1287 930 1287 815 c 0,33,34
 1287 616 1287 616 1249.5 459 c 128,-1,35
 1212 302 1212 302 1134 193.5 c 128,-1,36
 1056 85 1056 85 935 27.5 c 128,-1,37
 814 -30 814 -30 647 -30 c 0,38,39
 539 -30 539 -30 441 10 c 128,-1,40
 343 50 343 50 268.5 121 c 128,-1,41
 194 192 194 192 149 289 c 128,-1,42
 104 386 104 386 102 501 c 1,0,1
434 523 m 0,43,44
 436 453 436 453 449 393 c 128,-1,45
 462 333 462 333 492.5 289.5 c 128,-1,46
 523 246 523 246 573 221.5 c 128,-1,47
 623 197 623 197 699 197 c 0,48,49
 758 197 758 197 800.5 223.5 c 128,-1,50
 843 250 843 250 872.5 293.5 c 128,-1,51
 902 337 902 337 920 392 c 128,-1,52
 938 447 938 447 947.5 504.5 c 128,-1,53
 957 562 957 562 960.5 616.5 c 128,-1,54
 964 671 964 671 964 714 c 2,55,-1
 964 814 l 1,56,57
 907 852 907 852 848.5 870 c 128,-1,58
 790 888 790 888 713 888 c 0,59,60
 647 888 647 888 594 867 c 128,-1,61
 541 846 541 846 504.5 801.5 c 128,-1,62
 468 757 468 757 449.5 688 c 128,-1,63
 431 619 431 619 434 523 c 0,43,44
EndSplineSet
EndChar

StartChar: infinity
Encoding: 8734 8734 209
Width: 1982
Flags: W
LayerCount: 2
Fore
SplineSet
552 176 m 0,0,1
 429 174 429 174 336.5 210.5 c 128,-1,2
 244 247 244 247 182.5 308.5 c 128,-1,3
 121 370 121 370 90.5 450.5 c 128,-1,4
 60 531 60 531 60 618 c 0,5,6
 60 708 60 708 94 788 c 128,-1,7
 128 868 128 868 191 928.5 c 128,-1,8
 254 989 254 989 343 1024 c 128,-1,9
 432 1059 432 1059 543 1059 c 0,10,11
 634 1059 634 1059 705.5 1041 c 128,-1,12
 777 1023 777 1023 833.5 992 c 128,-1,13
 890 961 890 961 933.5 919.5 c 128,-1,14
 977 878 977 878 1013 830 c 1,15,16
 1052 875 1052 875 1097.5 915.5 c 128,-1,17
 1143 956 1143 956 1195.5 986.5 c 128,-1,18
 1248 1017 1248 1017 1307.5 1035.5 c 128,-1,19
 1367 1054 1367 1054 1434 1055 c 0,20,21
 1561 1057 1561 1057 1653 1020 c 128,-1,22
 1745 983 1745 983 1805 921 c 128,-1,23
 1865 859 1865 859 1893.5 778.5 c 128,-1,24
 1922 698 1922 698 1922 614 c 0,25,26
 1922 523 1922 523 1889 442.5 c 128,-1,27
 1856 362 1856 362 1793 301.5 c 128,-1,28
 1730 241 1730 241 1640 206 c 128,-1,29
 1550 171 1550 171 1436 171 c 0,30,31
 1346 171 1346 171 1275 188.5 c 128,-1,32
 1204 206 1204 206 1148.5 236.5 c 128,-1,33
 1093 267 1093 267 1050 308.5 c 128,-1,34
 1007 350 1007 350 972 397 c 1,35,36
 934 352 934 352 889 312 c 128,-1,37
 844 272 844 272 791.5 242 c 128,-1,38
 739 212 739 212 679 194.5 c 128,-1,39
 619 177 619 177 552 176 c 0,0,1
338 617 m 0,40,41
 338 573 338 573 352.5 533 c 128,-1,42
 367 493 367 493 397 462.5 c 128,-1,43
 427 432 427 432 473 414 c 128,-1,44
 519 396 519 396 582 396 c 0,45,46
 719 396 719 396 851 570 c 1,47,48
 823 617 823 617 788 664.5 c 128,-1,49
 753 712 753 712 712.5 749.5 c 128,-1,50
 672 787 672 787 626.5 810.5 c 128,-1,51
 581 834 581 834 532 834 c 0,52,53
 490 834 490 834 454.5 819 c 128,-1,54
 419 804 419 804 393 775.5 c 128,-1,55
 367 747 367 747 352.5 707 c 128,-1,56
 338 667 338 667 338 617 c 0,40,41
1134 657 m 1,57,58
 1162 609 1162 609 1195.5 562 c 128,-1,59
 1229 515 1229 515 1268.5 477 c 128,-1,60
 1308 439 1308 439 1352.5 415.5 c 128,-1,61
 1397 392 1397 392 1446 392 c 0,62,63
 1490 392 1490 392 1526 408 c 128,-1,64
 1562 424 1562 424 1587.5 453.5 c 128,-1,65
 1613 483 1613 483 1627 524.5 c 128,-1,66
 1641 566 1641 566 1641 617 c 0,67,68
 1641 661 1641 661 1626.5 699.5 c 128,-1,69
 1612 738 1612 738 1582.5 767 c 128,-1,70
 1553 796 1553 796 1507.5 812.5 c 128,-1,71
 1462 829 1462 829 1400 829 c 0,72,73
 1263 829 1263 829 1134 657 c 1,57,58
EndSplineSet
EndChar

StartChar: dotaccent.cap
Encoding: 65546 -1 221
Width: 489
Flags: W
LayerCount: 2
Fore
SplineSet
236 1635 m 0,0,1
 157 1635 157 1635 108.5 1680 c 128,-1,2
 60 1725 60 1725 60 1802 c 0,3,4
 60 1841 60 1841 75.5 1874.5 c 128,-1,5
 91 1908 91 1908 117 1933 c 128,-1,6
 143 1958 143 1958 178.5 1972 c 128,-1,7
 214 1986 214 1986 254 1986 c 0,8,9
 339 1986 339 1986 384 1940.5 c 128,-1,10
 429 1895 429 1895 429 1819 c 0,11,12
 429 1780 429 1780 414 1746 c 128,-1,13
 399 1712 399 1712 373 1687.5 c 128,-1,14
 347 1663 347 1663 312 1649 c 128,-1,15
 277 1635 277 1635 236 1635 c 0,0,1
EndSplineSet
EndChar

StartChar: Eogonek
Encoding: 280 280 222
Width: 1225
Flags: W
LayerCount: 2
Fore
SplineSet
164 1522 m 1,0,-1
 1098 1522 l 1,1,-1
 1098 1268 l 1,2,-1
 498 1268 l 1,3,-1
 498 904 l 1,4,-1
 957 904 l 1,5,-1
 957 654 l 1,6,-1
 498 654 l 1,7,-1
 498 262 l 1,8,-1
 1162 262 l 1,9,-1
 1162 0 l 1,10,-1
 1102 0 l 1,11,12
 1064 -24 1064 -24 1031 -48.5 c 128,-1,13
 998 -73 998 -73 973.5 -99.5 c 128,-1,14
 949 -126 949 -126 935.5 -156 c 128,-1,15
 922 -186 922 -186 925 -221 c 1,16,17
 927 -270 927 -270 961.5 -289.5 c 128,-1,18
 996 -309 996 -309 1046 -309 c 0,19,20
 1075 -309 1075 -309 1106 -303.5 c 128,-1,21
 1137 -298 1137 -298 1168 -289 c 1,22,-1
 1168 -448 l 1,23,24
 1123 -480 1123 -480 1061.5 -498 c 128,-1,25
 1000 -516 1000 -516 933 -516 c 0,26,27
 884 -516 884 -516 837.5 -502.5 c 128,-1,28
 791 -489 791 -489 754 -463 c 128,-1,29
 717 -437 717 -437 693.5 -399.5 c 128,-1,30
 670 -362 670 -362 668 -314 c 0,31,32
 665 -258 665 -258 683.5 -210 c 128,-1,33
 702 -162 702 -162 734 -122.5 c 128,-1,34
 766 -83 766 -83 806.5 -52.5 c 128,-1,35
 847 -22 847 -22 888 0 c 1,36,-1
 164 0 l 1,37,-1
 164 1522 l 1,0,-1
EndSplineSet
EndChar

StartChar: macron.cap
Encoding: 65547 -1 224
Width: 697
Flags: W
LayerCount: 2
Fore
SplineSet
50 1908 m 1,0,-1
 647 1908 l 1,1,-1
 647 1695 l 1,2,-1
 50 1695 l 1,3,-1
 50 1908 l 1,0,-1
EndSplineSet
EndChar

StartChar: gcommaaccent
Encoding: 291 291 261
Width: 1261
Flags: W
LayerCount: 2
Fore
SplineSet
631 1284 m 1,0,1
 593 1288 593 1288 555.5 1308 c 128,-1,2
 518 1328 518 1328 488.5 1362 c 128,-1,3
 459 1396 459 1396 441 1443 c 128,-1,4
 423 1490 423 1490 423 1549 c 0,5,6
 423 1611 423 1611 442.5 1664 c 128,-1,7
 462 1717 462 1717 490.5 1757.5 c 128,-1,8
 519 1798 519 1798 552.5 1824 c 128,-1,9
 586 1850 586 1850 614 1859 c 1,10,-1
 738 1808 l 1,11,-1
 738 1785 l 1,12,13
 727 1772 727 1772 718 1758 c 128,-1,14
 709 1744 709 1744 702 1726.5 c 128,-1,15
 695 1709 695 1709 691 1686 c 128,-1,16
 687 1663 687 1663 687 1632 c 0,17,18
 687 1608 687 1608 693.5 1582.5 c 128,-1,19
 700 1557 700 1557 711 1535 c 128,-1,20
 722 1513 722 1513 738 1497.5 c 128,-1,21
 754 1482 754 1482 773 1478 c 1,22,-1
 773 1408 l 1,23,-1
 631 1284 l 1,0,1
58 -165 m 0,24,25
 58 -84 58 -84 104.5 -31 c 128,-1,26
 151 22 151 22 227 53 c 1,27,28
 177 77 177 77 156 121.5 c 128,-1,29
 135 166 135 166 136 228 c 0,30,31
 136 259 136 259 146.5 291.5 c 128,-1,32
 157 324 157 324 177 354.5 c 128,-1,33
 197 385 197 385 225.5 412.5 c 128,-1,34
 254 440 254 440 291 462 c 1,35,36
 190 508 190 508 137.5 588.5 c 128,-1,37
 85 669 85 669 85 775 c 0,38,39
 85 873 85 873 118 944.5 c 128,-1,40
 151 1016 151 1016 215 1062.5 c 128,-1,41
 279 1109 279 1109 372 1132 c 128,-1,42
 465 1155 465 1155 584 1156 c 0,43,44
 695 1157 695 1157 786 1136.5 c 128,-1,45
 877 1116 877 1116 943 1073 c 1,46,47
 970 1098 970 1098 1017.5 1120 c 128,-1,48
 1065 1142 1065 1142 1131 1142 c 2,49,-1
 1254 1142 l 1,50,-1
 1254 910 l 1,51,-1
 1071 910 l 1,52,53
 1080 881 1080 881 1085 849.5 c 128,-1,54
 1090 818 1090 818 1090 783 c 0,55,56
 1090 692 1090 692 1056.5 622 c 128,-1,57
 1023 552 1023 552 958 504 c 128,-1,58
 893 456 893 456 798 431.5 c 128,-1,59
 703 407 703 407 581 407 c 0,60,61
 554 407 554 407 528.5 408.5 c 128,-1,62
 503 410 503 410 479 412 c 1,63,64
 459 395 459 395 448 371.5 c 128,-1,65
 437 348 437 348 437 325 c 0,66,67
 437 277 437 277 469 259.5 c 128,-1,68
 501 242 501 242 573 242 c 2,69,-1
 769 242 l 2,70,71
 906 242 906 242 991.5 212.5 c 128,-1,72
 1077 183 1077 183 1124.5 135.5 c 128,-1,73
 1172 88 1172 88 1189 27.5 c 128,-1,74
 1206 -33 1206 -33 1206 -96 c 0,75,76
 1206 -200 1206 -200 1155.5 -279 c 128,-1,77
 1105 -358 1105 -358 1021.5 -411 c 128,-1,78
 938 -464 938 -464 829 -491 c 128,-1,79
 720 -518 720 -518 603 -516 c 1,80,81
 475 -515 475 -515 373.5 -489.5 c 128,-1,82
 272 -464 272 -464 202 -418.5 c 128,-1,83
 132 -373 132 -373 95 -309 c 128,-1,84
 58 -245 58 -245 58 -165 c 0,24,25
587 602 m 0,85,86
 629 602 629 602 665.5 609.5 c 128,-1,87
 702 617 702 617 728.5 636.5 c 128,-1,88
 755 656 755 656 770.5 689.5 c 128,-1,89
 786 723 786 723 786 775 c 0,90,91
 786 865 786 865 738.5 912 c 128,-1,92
 691 959 691 959 597 959 c 0,93,94
 555 959 555 959 518 951.5 c 128,-1,95
 481 944 481 944 454 924 c 128,-1,96
 427 904 427 904 411.5 869 c 128,-1,97
 396 834 396 834 396 778 c 0,98,99
 396 697 396 697 444.5 649.5 c 128,-1,100
 493 602 493 602 587 602 c 0,85,86
372 -112 m 0,101,102
 372 -153 372 -153 384 -191.5 c 128,-1,103
 396 -230 396 -230 424.5 -260 c 128,-1,104
 453 -290 453 -290 499.5 -308 c 128,-1,105
 546 -326 546 -326 615 -326 c 0,106,107
 670 -326 670 -326 719.5 -317 c 128,-1,108
 769 -308 769 -308 806.5 -288 c 128,-1,109
 844 -268 844 -268 866 -236.5 c 128,-1,110
 888 -205 888 -205 888 -160 c 0,111,112
 888 -121 888 -121 880 -91.5 c 128,-1,113
 872 -62 872 -62 845.5 -42 c 128,-1,114
 819 -22 819 -22 770 -12 c 128,-1,115
 721 -2 721 -2 639 -2 c 2,116,-1
 464 -2 l 2,117,118
 450 -2 450 -2 437 -1.5 c 128,-1,119
 424 -1 424 -1 411 0 c 1,120,121
 394 -16 394 -16 383 -41.5 c 128,-1,122
 372 -67 372 -67 372 -112 c 0,101,102
EndSplineSet
EndChar

StartChar: caronvertical
Encoding: 65548 -1 281
Width: 411
Flags: W
LayerCount: 2
Fore
SplineSet
105 1036 m 1,0,-1
 97 1061 l 1,1,2
 102 1084 102 1084 106 1117 c 128,-1,3
 110 1150 110 1150 113 1188.5 c 128,-1,4
 116 1227 116 1227 117.5 1270 c 128,-1,5
 119 1313 119 1313 119 1355 c 0,6,7
 119 1390 119 1390 114.5 1423.5 c 128,-1,8
 110 1457 110 1457 102 1486 c 128,-1,9
 94 1515 94 1515 83 1537.5 c 128,-1,10
 72 1560 72 1560 60 1573 c 1,11,-1
 72 1637 l 1,12,-1
 295 1711 l 1,13,14
 368 1642 368 1642 368 1439 c 0,15,16
 368 1371 368 1371 356 1303.5 c 128,-1,17
 344 1236 344 1236 325.5 1177.5 c 128,-1,18
 307 1119 307 1119 285 1073.5 c 128,-1,19
 263 1028 263 1028 243 1005 c 1,20,-1
 105 1036 l 1,0,-1
EndSplineSet
EndChar

StartChar: iogonek
Encoding: 303 303 282
Width: 626
Flags: W
LayerCount: 2
Fore
SplineSet
312 1301 m 0,0,1
 273 1301 273 1301 239 1314 c 128,-1,2
 205 1327 205 1327 180 1350.5 c 128,-1,3
 155 1374 155 1374 140.5 1406 c 128,-1,4
 126 1438 126 1438 126 1477 c 256,5,6
 126 1516 126 1516 143 1550.5 c 128,-1,7
 160 1585 160 1585 188 1611 c 128,-1,8
 216 1637 216 1637 253 1652 c 128,-1,9
 290 1667 290 1667 330 1667 c 0,10,11
 372 1667 372 1667 406.5 1654 c 128,-1,12
 441 1641 441 1641 465 1618 c 128,-1,13
 489 1595 489 1595 502 1563 c 128,-1,14
 515 1531 515 1531 515 1493 c 0,15,16
 515 1454 515 1454 498.5 1419 c 128,-1,17
 482 1384 482 1384 454.5 1357.5 c 128,-1,18
 427 1331 427 1331 390 1316 c 128,-1,19
 353 1301 353 1301 312 1301 c 0,0,1
151 1138 m 1,20,-1
 475 1138 l 1,21,-1
 475 0 l 1,22,-1
 424 0 l 1,23,24
 386 -24 386 -24 353 -48 c 128,-1,25
 320 -72 320 -72 295.5 -98.5 c 128,-1,26
 271 -125 271 -125 258 -155 c 128,-1,27
 245 -185 245 -185 248 -220 c 1,28,29
 250 -269 250 -269 285 -289 c 128,-1,30
 320 -309 320 -309 370 -309 c 0,31,32
 399 -309 399 -309 430 -303.5 c 128,-1,33
 461 -298 461 -298 492 -289 c 1,34,-1
 492 -448 l 1,35,36
 447 -480 447 -480 385.5 -498 c 128,-1,37
 324 -516 324 -516 257 -516 c 0,38,39
 208 -516 208 -516 161 -502.5 c 128,-1,40
 114 -489 114 -489 77 -463 c 128,-1,41
 40 -437 40 -437 16.5 -399.5 c 128,-1,42
 -7 -362 -7 -362 -9 -314 c 0,43,44
 -12 -258 -12 -258 7 -210 c 128,-1,45
 26 -162 26 -162 57.5 -122.5 c 128,-1,46
 89 -83 89 -83 129 -52.5 c 128,-1,47
 169 -22 169 -22 209 0 c 1,48,-1
 151 0 l 1,49,-1
 151 1138 l 1,20,-1
EndSplineSet
EndChar

StartChar: Iogonek
Encoding: 302 302 283
Width: 677
Flags: W
LayerCount: 2
Fore
SplineSet
171 1522 m 1,0,-1
 508 1522 l 1,1,-1
 508 0 l 1,2,-1
 447 0 l 1,3,4
 409 -24 409 -24 376 -48 c 128,-1,5
 343 -72 343 -72 318.5 -98.5 c 128,-1,6
 294 -125 294 -125 281 -155 c 128,-1,7
 268 -185 268 -185 271 -220 c 1,8,9
 272 -244 272 -244 282 -261 c 128,-1,10
 292 -278 292 -278 308.5 -288.5 c 128,-1,11
 325 -299 325 -299 346.5 -304 c 128,-1,12
 368 -309 368 -309 394 -309 c 0,13,14
 423 -309 423 -309 453.5 -303.5 c 128,-1,15
 484 -298 484 -298 515 -289 c 1,16,-1
 515 -448 l 1,17,18
 470 -480 470 -480 409 -498 c 128,-1,19
 348 -516 348 -516 280 -516 c 0,20,21
 231 -516 231 -516 184.5 -502.5 c 128,-1,22
 138 -489 138 -489 100.5 -463 c 128,-1,23
 63 -437 63 -437 39.5 -399.5 c 128,-1,24
 16 -362 16 -362 14 -314 c 0,25,26
 11 -258 11 -258 30 -210 c 128,-1,27
 49 -162 49 -162 80.5 -122.5 c 128,-1,28
 112 -83 112 -83 152 -52.5 c 128,-1,29
 192 -22 192 -22 232 0 c 1,30,-1
 171 0 l 1,31,-1
 171 1522 l 1,0,-1
EndSplineSet
EndChar

